<?xml version="1.0" encoding="UTF-8" standalone="no"?>
<!-- Created with Inkscape (http://www.inkscape.org/) -->

<svg
   version="1.1"
   id="svg1"
   width="193.73334"
   height="98.919998"
   viewBox="0 0 193.73334 98.919998"
   sodipodi:docname="upload_j6fwtllx43dwdscgdu27axf4vx.pdf"
   xmlns:inkscape="http://www.inkscape.org/namespaces/inkscape"
   xmlns:sodipodi="http://sodipodi.sourceforge.net/DTD/sodipodi-0.dtd"
   xmlns="http://www.w3.org/2000/svg"
   xmlns:svg="http://www.w3.org/2000/svg">
  <defs
     id="defs1" />
  <sodipodi:namedview
     id="namedview1"
     pagecolor="#ffffff"
     bordercolor="#000000"
     borderopacity="0.25"
     inkscape:showpageshadow="2"
     inkscape:pageopacity="0.0"
     inkscape:pagecheckerboard="0"
     inkscape:deskcolor="#d1d1d1">
    <inkscape:page
       x="0"
       y="0"
       inkscape:label="1"
       id="page1"
       width="193.73334"
       height="98.919998"
       margin="0"
       bleed="0" />
  </sodipodi:namedview>
  <g
     id="g1"
     inkscape:groupmode="layer"
     inkscape:label="1">
    <g
       id="g2"
       aria-label="X(∅)"
       transform="matrix(1.3333333,0,0,1.3333333,11.088,15.633333)">
      <path
         id="path2"
         d="m 5.0990391,-4.3128906 -0.890625,-2.0976563 c -0.023437,-0.082031 -0.046875,-0.1171875 -0.046875,-0.1289062 0,-0.070312 0.1757812,-0.2695313 0.6210937,-0.3046875 0.1054688,-0.011719 0.2109375,-0.023437 0.2109375,-0.1992188 0,-0.1289062 -0.1289062,-0.1289062 -0.1640625,-0.1289062 -0.4335937,0 -0.8789062,0.035156 -1.3242187,0.035156 -0.2578125,0 -0.9140625,-0.035156 -1.171875,-0.035156 -0.058594,0 -0.1875,0 -0.1875,0.2109375 0,0.1171875 0.1054687,0.1171875 0.234375,0.1171875 0.6328125,0 0.703125,0.1054687 0.796875,0.328125 l 1.2304687,2.9296875 -2.2148437,2.390625 -0.1289063,0.1171875 c -0.515625,0.55078123 -1.0078125,0.72656248 -1.54687499,0.74999998 -0.140625,0.0117188 -0.234375,0.0117188 -0.234375,0.2109375 0,0.0117188 0,0.117187495 0.140625,0.117187495 0.31640625,0 0.65624999,-0.035156245 0.98437499,-0.035156245 0.3867188,0 0.796875,0.035156245 1.171875,0.035156245 0.070312,0 0.1992188,0 0.1992188,-0.210937495 0,-0.10546875 -0.1054688,-0.1171875 -0.1289063,-0.1171875 -0.09375,-0.0117188 -0.421875,-0.0234375 -0.421875,-0.328125 0,-0.1640625 0.1523438,-0.328125 0.28125,-0.46874998 l 1.078125,-1.1367188 0.9375,-1.0195312 1.0664063,2.50781248 c 0.035156,0.1171875 0.046875,0.1171875 0.046875,0.140625 0,0.0820313 -0.1992188,0.26953125 -0.609375,0.3046875 -0.1171875,0.0117188 -0.2109375,0.0234375 -0.2109375,0.19921875 0,0.128906245 0.1171875,0.128906245 0.1640625,0.128906245 0.2929687,0 1.03125,-0.035156245 1.3242187,-0.035156245 0.2578125,0 0.9023438,0.035156245 1.1601563,0.035156245 0.070312,0 0.1992187,0 0.1992187,-0.199218745 0,-0.12890625 -0.1054687,-0.12890625 -0.1875,-0.12890625 C 6.7748203,-0.34023437 6.7513828,-0.36367187 6.5756016,-0.78554687 6.1654453,-1.7699219 5.4623203,-3.3988281 5.2162266,-4.0316406 c 0.7148437,-0.7382813 1.8164062,-1.9804688 2.15625,-2.2734375 0.3046875,-0.2578125 0.703125,-0.515625 1.3359375,-0.5390625 0.1289062,-0.011719 0.2226562,-0.011719 0.2226562,-0.2109375 0,-0.011719 0,-0.1171875 -0.1289062,-0.1171875 -0.3164063,0 -0.6679688,0.035156 -0.984375,0.035156 -0.3984375,0 -0.796875,-0.035156 -1.171875,-0.035156 -0.058594,0 -0.1992188,0 -0.1992188,0.2109375 0,0.070312 0.058594,0.1054687 0.1289063,0.1171875 0.09375,0.011719 0.421875,0.023437 0.421875,0.328125 0,0.140625 -0.1171875,0.28125 -0.1992188,0.375 z m 0,0"
         style="fill:#000000;fill-opacity:1;fill-rule:nonzero;stroke:none" />
      <path
         id="path3"
         d="m 13.003336,2.5191406 c 0,-0.035156 0,-0.046875 -0.1875,-0.234375 -1.3125,-1.32421872 -1.640625,-3.3046875 -1.640625,-4.9101562 0,-1.828125 0.398437,-3.65625 1.6875,-4.96875 0.140625,-0.1289063 0.140625,-0.140625 0.140625,-0.1757813 0,-0.070312 -0.04687,-0.1054687 -0.105469,-0.1054687 -0.105469,0 -1.054687,0.7148437 -1.675781,2.0507812 -0.539063,1.1484375 -0.65625,2.3203125 -0.65625,3.1992188 0,0.8203125 0.117187,2.08593748 0.691406,3.28124998 0.632813,1.28906252 1.535156,1.96875002 1.640625,1.96875002 0.05859,0 0.105469,-0.035156 0.105469,-0.1054688 z m 0,0"
         style="fill:#000000;fill-opacity:1;fill-rule:nonzero;stroke:none" />
      <path
         id="path4"
         d="m 21.02482,-5.7074219 c 0.152344,-0.1171875 0.152344,-0.1875 0.152344,-0.2226562 0,-0.1992188 -0.1875,-0.2109375 -0.210937,-0.2109375 -0.07031,0 -0.105469,0.023437 -0.292969,0.1875 l -0.808594,0.703125 c -0.222656,-0.234375 -0.996094,-0.890625 -2.167969,-0.890625 -1.6875,0 -3.09375,1.3359375 -3.09375,3.0703125 0,0.9960937 0.410157,1.5703125 0.621094,1.875 -0.164062,0.1523437 -0.175781,0.1640625 -0.796875,0.70312498 -0.210937,0.1875 -0.234375,0.2109375 -0.234375,0.3046875 0,0.12890625 0.08203,0.2109375 0.210938,0.2109375 0.07031,0 0.09375,0 0.28125,-0.17578125 l 0.820312,-0.71484375 c 0.09375,0.10546875 0.878906,0.890625 2.179688,0.890625 1.78125,0 3.082031,-1.45312498 3.082031,-3.08203128 0,-0.9726562 -0.421875,-1.5820312 -0.621094,-1.8632812 0.01172,-0.011719 0.07031,-0.070312 0.117188,-0.1054688 z m -5.484375,4.2421875 c -0.515625,-0.7265625 -0.515625,-1.359375 -0.515625,-1.59375 0,-1.5117187 1.207032,-2.6601562 2.660157,-2.6601562 1.125,0 1.746093,0.6328125 1.851562,0.75 z m 4.277344,-3.1875 c 0.351563,0.4570313 0.527344,0.984375 0.527344,1.5820313 0,1.5117187 -1.207031,2.67187498 -2.648438,2.67187498 -1.125,0 -1.757812,-0.64453128 -1.863281,-0.76171878 z m 0,0"
         style="fill:#000000;fill-opacity:1;fill-rule:nonzero;stroke:none" />
      <path
         id="path5"
         d="m 24.807047,-2.6253906 c 0,-0.8203125 -0.117188,-2.0859375 -0.691406,-3.28125 -0.632813,-1.2890625 -1.535157,-1.96875 -1.640625,-1.96875 -0.05859,0 -0.105469,0.046875 -0.105469,0.1054687 0,0.035156 0,0.046875 0.199219,0.2460938 1.03125,1.03125 1.628906,2.7070312 1.628906,4.8984375 0,1.79296873 -0.386719,3.6445312 -1.6875,4.96875 -0.140625,0.1289062 -0.140625,0.140625 -0.140625,0.1757812 0,0.058594 0.04687,0.1054688 0.105469,0.1054688 0.105468,0 1.054687,-0.7148438 1.664062,-2.05078127 0.539063,-1.1484375 0.667969,-2.32031253 0.667969,-3.19921873 z m 0,0"
         style="fill:#000000;fill-opacity:1;fill-rule:nonzero;stroke:none" />
    </g>
    <g
       id="g5"
       aria-label="X({0})"
       transform="matrix(1.3333333,0,0,1.3333333,136.49733,15.633333)">
      <path
         id="path6"
         d="m 5.0967266,-4.3128906 -0.890625,-2.0976563 c -0.023437,-0.082031 -0.046875,-0.1171875 -0.046875,-0.1289062 0,-0.070312 0.1757812,-0.2695313 0.6210937,-0.3046875 0.1054688,-0.011719 0.2109375,-0.023437 0.2109375,-0.1992188 0,-0.1289062 -0.1289062,-0.1289062 -0.1640625,-0.1289062 -0.4335937,0 -0.8789062,0.035156 -1.3242187,0.035156 -0.2578125,0 -0.9140625,-0.035156 -1.171875,-0.035156 -0.058594,0 -0.1875,0 -0.1875,0.2109375 0,0.1171875 0.1054687,0.1171875 0.234375,0.1171875 0.6328125,0 0.703125,0.1054687 0.796875,0.328125 l 1.2304687,2.9296875 -2.2148437,2.390625 -0.1289063,0.1171875 c -0.515625,0.55078123 -1.0078125,0.72656248 -1.54687499,0.74999998 -0.140625,0.0117188 -0.234375,0.0117188 -0.234375,0.2109375 0,0.0117188 0,0.117187495 0.140625,0.117187495 0.31640625,0 0.65624999,-0.035156245 0.98437499,-0.035156245 0.3867188,0 0.796875,0.035156245 1.171875,0.035156245 0.070312,0 0.1992188,0 0.1992188,-0.210937495 0,-0.10546875 -0.1054688,-0.1171875 -0.1289063,-0.1171875 -0.09375,-0.0117188 -0.421875,-0.0234375 -0.421875,-0.328125 0,-0.1640625 0.1523438,-0.328125 0.28125,-0.46874998 l 1.078125,-1.1367188 0.9375,-1.0195312 1.0664063,2.50781248 c 0.035156,0.1171875 0.046875,0.1171875 0.046875,0.140625 0,0.0820313 -0.1992188,0.26953125 -0.609375,0.3046875 -0.1171875,0.0117188 -0.2109375,0.0234375 -0.2109375,0.19921875 0,0.128906245 0.1171875,0.128906245 0.1640625,0.128906245 0.2929687,0 1.03125,-0.035156245 1.3242187,-0.035156245 0.2578125,0 0.9023438,0.035156245 1.1601563,0.035156245 0.070312,0 0.1992187,0 0.1992187,-0.199218745 0,-0.12890625 -0.1054687,-0.12890625 -0.1875,-0.12890625 C 6.7725078,-0.34023437 6.7490703,-0.36367187 6.5732891,-0.78554687 6.1631328,-1.7699219 5.4600078,-3.3988281 5.2139141,-4.0316406 c 0.7148437,-0.7382813 1.8164062,-1.9804688 2.15625,-2.2734375 0.3046875,-0.2578125 0.703125,-0.515625 1.3359375,-0.5390625 0.1289062,-0.011719 0.2226562,-0.011719 0.2226562,-0.2109375 0,-0.011719 0,-0.1171875 -0.1289062,-0.1171875 -0.3164063,0 -0.6679688,0.035156 -0.984375,0.035156 -0.3984375,0 -0.796875,-0.035156 -1.171875,-0.035156 -0.058594,0 -0.1992188,0 -0.1992188,0.2109375 0,0.070312 0.058594,0.1054687 0.1289063,0.1171875 0.09375,0.011719 0.421875,0.023437 0.421875,0.328125 0,0.140625 -0.1171875,0.28125 -0.1992188,0.375 z m 0,0"
         style="fill:#000000;fill-opacity:1;fill-rule:nonzero;stroke:none" />
      <path
         id="path7"
         d="m 13.003953,2.5191406 c 0,-0.035156 0,-0.046875 -0.1875,-0.234375 -1.3125,-1.32421872 -1.640625,-3.3046875 -1.640625,-4.9101562 0,-1.828125 0.398438,-3.65625 1.6875,-4.96875 0.140625,-0.1289063 0.140625,-0.140625 0.140625,-0.1757813 0,-0.070312 -0.04687,-0.1054687 -0.105469,-0.1054687 -0.105468,0 -1.054687,0.7148437 -1.675781,2.0507812 -0.539062,1.1484375 -0.65625,2.3203125 -0.65625,3.1992188 0,0.8203125 0.117188,2.08593748 0.691406,3.28124998 0.632813,1.28906252 1.535157,1.96875002 1.640625,1.96875002 0.05859,0 0.105469,-0.035156 0.105469,-0.1054688 z m 0,0"
         style="fill:#000000;fill-opacity:1;fill-rule:nonzero;stroke:none" />
      <path
         id="path8"
         d="m 16.581102,-6.4808594 c 0,-0.421875 0.269531,-1.0898437 1.417968,-1.1601562 0.04687,-0.011719 0.09375,-0.058594 0.09375,-0.1171875 0,-0.1171875 -0.09375,-0.1171875 -0.199218,-0.1171875 -1.054688,0 -2.015625,0.5390625 -2.015625,1.3125 v 2.390625 c 0,0.4101562 0,0.75 -0.421875,1.0898437 -0.375,0.3046875 -0.773438,0.328125 -0.996094,0.3398438 -0.05859,0.011719 -0.09375,0.058594 -0.09375,0.1171875 0,0.1054687 0.05859,0.1054687 0.164062,0.1171875 0.691407,0.035156 1.195313,0.421875 1.3125,0.9375 0.03516,0.1054687 0.03516,0.1289062 0.03516,0.515625 v 2.0742187 c 0,0.4453125 0,0.7734375 0.503906,1.171875 0.398437,0.3164063 1.101562,0.4335938 1.511719,0.4335938 0.105468,0 0.199218,0 0.199218,-0.1171875 0,-0.1054688 -0.07031,-0.1054688 -0.175781,-0.1171875 -0.65625,-0.035156 -1.171875,-0.375 -1.3125,-0.9140625 -0.02344,-0.09375 -0.02344,-0.1171875 -0.02344,-0.49218752 V -1.2191406 c 0,-0.4804688 -0.09375,-0.65625 -0.421875,-0.9960938 -0.222657,-0.2226562 -0.527344,-0.328125 -0.820313,-0.4101562 0.855469,-0.2460938 1.242188,-0.7265625 1.242188,-1.3359375 z m 0,0"
         style="fill:#000000;fill-opacity:1;fill-rule:nonzero;stroke:none" />
      <path
         id="path9"
         d="m 23.682664,-3.3636719 c 0,-0.8320312 -0.04687,-1.6757812 -0.421875,-2.4492187 -0.480469,-1.0078125 -1.335937,-1.1835938 -1.78125,-1.1835938 -0.632812,0 -1.394531,0.28125 -1.828125,1.2539063 -0.339844,0.7265625 -0.386719,1.546875 -0.386719,2.3789062 0,0.7851563 0.04687,1.734375 0.46875,2.53125003 0.457032,0.85546875 1.21875,1.06640625 1.734375,1.06640625 0.5625,0 1.371094,-0.22265625 1.828125,-1.21875 0.339844,-0.72656248 0.386719,-1.54687498 0.386719,-2.37890628 z M 21.46782,-3.90625e-4 c -0.410156,0 -1.03125,-0.257812495 -1.21875,-1.265624975 -0.117187,-0.6328125 -0.117187,-1.6054688 -0.117187,-2.2148438 0,-0.6796875 0,-1.3710937 0.08203,-1.9335937 0.210938,-1.2539063 0.996094,-1.3476563 1.253906,-1.3476563 0.351563,0 1.042969,0.1875 1.242188,1.2304688 0.105469,0.5859375 0.105469,1.3828125 0.105469,2.0507812 0,0.7851563 0,1.5 -0.117188,2.1679688 -0.164062,0.99609373 -0.761719,1.312499975 -1.230469,1.312499975 z m 0,0"
         style="fill:#000000;fill-opacity:1;fill-rule:nonzero;stroke:none" />
      <path
         id="path10"
         d="m 26.377977,1.2300781 c 0,0.421875 -0.28125,1.0898438 -1.417969,1.1601563 -0.05859,0.011719 -0.09375,0.058594 -0.09375,0.1171875 0,0.1171875 0.105469,0.1171875 0.199219,0.1171875 1.019531,0 2.003906,-0.515625 2.015625,-1.3125 v -2.390625 c 0,-0.4101563 0,-0.75 0.410156,-1.0898438 0.375,-0.3046875 0.773437,-0.328125 1.007812,-0.3398437 0.04687,-0.011719 0.09375,-0.058594 0.09375,-0.1171875 0,-0.1054688 -0.07031,-0.1054688 -0.175781,-0.1171875 -0.691406,-0.035156 -1.195312,-0.421875 -1.3125,-0.9375 -0.02344,-0.1054688 -0.02344,-0.1289063 -0.02344,-0.515625 v -2.0742188 c 0,-0.4453125 0,-0.7734375 -0.503907,-1.171875 -0.421875,-0.328125 -1.148437,-0.4335937 -1.511718,-0.4335937 -0.09375,0 -0.199219,0 -0.199219,0.1171875 0,0.1054687 0.05859,0.1054687 0.164062,0.1171875 0.65625,0.035156 1.171875,0.375 1.3125,0.9140625 0.03516,0.09375 0.03516,0.1171875 0.03516,0.4921875 v 2.203125 c 0,0.4804687 0.08203,0.65625 0.410156,0.9960937 0.222656,0.2226563 0.527344,0.328125 0.820312,0.4101563 -0.855468,0.2460937 -1.230468,0.7265625 -1.230468,1.3359375 z m 0,0"
         style="fill:#000000;fill-opacity:1;fill-rule:nonzero;stroke:none" />
      <path
         id="path11"
         d="m 32.389695,-2.6253906 c 0,-0.8203125 -0.117187,-2.0859375 -0.691406,-3.28125 -0.632812,-1.2890625 -1.535156,-1.96875 -1.640625,-1.96875 -0.05859,0 -0.105469,0.046875 -0.105469,0.1054687 0,0.035156 0,0.046875 0.199219,0.2460938 1.03125,1.03125 1.628906,2.7070312 1.628906,4.8984375 0,1.79296873 -0.386718,3.6445312 -1.6875,4.96875 -0.140625,0.1289062 -0.140625,0.140625 -0.140625,0.1757812 0,0.058594 0.04687,0.1054688 0.105469,0.1054688 0.105469,0 1.054688,-0.7148438 1.664063,-2.05078127 0.539062,-1.1484375 0.667968,-2.32031253 0.667968,-3.19921873 z m 0,0"
         style="fill:#000000;fill-opacity:1;fill-rule:nonzero;stroke:none" />
    </g>
    <g
       id="g11"
       aria-label="X({1})"
       transform="matrix(1.3333333,0,0,1.3333333,6.032,90.290667)">
      <path
         id="path12"
         d="m 5.0970937,-4.3137031 -0.890625,-2.0976563 c -0.023437,-0.082031 -0.046875,-0.1171875 -0.046875,-0.1289062 0,-0.070312 0.1757813,-0.2695313 0.6210938,-0.3046875 0.1054687,-0.011719 0.2109375,-0.023437 0.2109375,-0.1992188 0,-0.1289062 -0.1289063,-0.1289062 -0.1640625,-0.1289062 -0.4335938,0 -0.8789063,0.035156 -1.3242188,0.035156 -0.2578125,0 -0.9140625,-0.035156 -1.171875,-0.035156 -0.058594,0 -0.1875,0 -0.1875,0.2109375 0,0.1171875 0.1054688,0.1171875 0.234375,0.1171875 0.6328125,0 0.703125,0.1054687 0.796875,0.328125 l 1.2304688,2.9296875 -2.2148438,2.390625 -0.1289062,0.1171875 c -0.515625,0.55078123 -1.0078125,0.72656248 -1.546875,0.74999998 -0.140625,0.0117188 -0.234375,0.0117188 -0.234375,0.2109375 0,0.0117188 0,0.1171875 0.140625,0.1171875 0.31640625,0 0.65625,-0.03515625 0.984375,-0.03515625 0.3867187,0 0.796875,0.03515625 1.171875,0.03515625 0.070312,0 0.1992187,0 0.1992187,-0.2109375 0,-0.10546875 -0.1054687,-0.1171875 -0.1289062,-0.1171875 -0.09375,-0.0117188 -0.421875,-0.0234375 -0.421875,-0.328125 0,-0.1640625 0.1523437,-0.328125 0.28125,-0.46874998 l 1.078125,-1.1367188 0.9375,-1.0195312 1.0664062,2.50781248 c 0.035156,0.1171875 0.046875,0.1171875 0.046875,0.140625 0,0.0820313 -0.1992187,0.26953125 -0.609375,0.3046875 -0.1171875,0.0117188 -0.2109375,0.0234375 -0.2109375,0.19921875 0,0.12890625 0.1171875,0.12890625 0.1640625,0.12890625 0.2929688,0 1.03125,-0.03515625 1.3242188,-0.03515625 0.2578125,0 0.9023437,0.03515625 1.1601562,0.03515625 0.070312,0 0.1992188,0 0.1992188,-0.19921875 0,-0.12890625 -0.1054688,-0.12890625 -0.1875,-0.12890625 C 6.772875,-0.34104687 6.7494375,-0.36448437 6.5736562,-0.78635937 6.1635,-1.7707344 5.460375,-3.3996406 5.2142812,-4.0324531 c 0.7148438,-0.7382813 1.8164063,-1.9804688 2.15625,-2.2734375 0.3046875,-0.2578125 0.703125,-0.515625 1.3359375,-0.5390625 0.1289063,-0.011719 0.2226563,-0.011719 0.2226563,-0.2109375 0,-0.011719 0,-0.1171875 -0.1289063,-0.1171875 -0.3164062,0 -0.6679687,0.035156 -0.984375,0.035156 -0.3984375,0 -0.796875,-0.035156 -1.171875,-0.035156 -0.058594,0 -0.1992187,0 -0.1992187,0.2109375 0,0.070312 0.058594,0.1054687 0.1289062,0.1171875 0.09375,0.011719 0.421875,0.023437 0.421875,0.328125 0,0.140625 -0.1171875,0.28125 -0.1992187,0.375 z m 0,0"
         style="fill:#000000;fill-opacity:1;fill-rule:nonzero;stroke:none" />
      <path
         id="path13"
         d="m 13.00432,2.5183281 c 0,-0.035156 0,-0.046875 -0.1875,-0.234375 -1.3125,-1.32421872 -1.640625,-3.3046875 -1.640625,-4.9101562 0,-1.828125 0.398438,-3.65625 1.6875,-4.96875 0.140625,-0.1289063 0.140625,-0.140625 0.140625,-0.1757813 0,-0.070312 -0.04687,-0.1054687 -0.105468,-0.1054687 -0.105469,0 -1.054688,0.7148437 -1.675782,2.0507812 -0.539062,1.1484375 -0.65625,2.3203125 -0.65625,3.1992188 0,0.8203125 0.117188,2.08593748 0.691407,3.28124998 0.632812,1.28906252 1.535156,1.96875002 1.640625,1.96875002 0.05859,0 0.105468,-0.035156 0.105468,-0.1054688 z m 0,0"
         style="fill:#000000;fill-opacity:1;fill-rule:nonzero;stroke:none" />
      <path
         id="path14"
         d="m 16.581469,-6.4816719 c 0,-0.421875 0.269531,-1.0898437 1.417968,-1.1601562 0.04687,-0.011719 0.09375,-0.058594 0.09375,-0.1171875 0,-0.1171875 -0.09375,-0.1171875 -0.199218,-0.1171875 -1.054688,0 -2.015625,0.5390625 -2.015625,1.3125 v 2.390625 c 0,0.4101562 0,0.75 -0.421875,1.0898437 -0.375,0.3046875 -0.773438,0.328125 -0.996094,0.3398438 -0.05859,0.011719 -0.09375,0.058594 -0.09375,0.1171875 0,0.1054687 0.05859,0.1054687 0.164062,0.1171875 0.691407,0.035156 1.195313,0.421875 1.3125,0.9375 0.03516,0.1054687 0.03516,0.1289062 0.03516,0.515625 v 2.0742187 c 0,0.4453125 0,0.7734375 0.503906,1.171875 0.398437,0.3164063 1.101562,0.4335938 1.511719,0.4335938 0.105468,0 0.199218,0 0.199218,-0.1171875 0,-0.1054688 -0.07031,-0.1054688 -0.175781,-0.1171875 -0.65625,-0.035156 -1.171875,-0.375 -1.3125,-0.9140625 -0.02344,-0.09375 -0.02344,-0.1171875 -0.02344,-0.49218752 V -1.2199531 c 0,-0.4804688 -0.09375,-0.65625 -0.421875,-0.9960938 -0.222657,-0.2226562 -0.527344,-0.328125 -0.820313,-0.4101562 0.855469,-0.2460938 1.242188,-0.7265625 1.242188,-1.3359375 z m 0,0"
         style="fill:#000000;fill-opacity:1;fill-rule:nonzero;stroke:none" />
      <path
         id="path15"
         d="m 21.936937,-6.7160469 c 0,-0.2578125 0,-0.28125 -0.234375,-0.28125 -0.65625,0.6796875 -1.582031,0.6796875 -1.910156,0.6796875 v 0.3164063 c 0.210938,0 0.832031,0 1.371094,-0.2695313 v 5.43750003 c 0,0.375 -0.03516,0.50390625 -0.972656,0.50390625 H 19.851 v 0.328125 c 0.363281,-0.03515625 1.277344,-0.03515625 1.699219,-0.03515625 0.421875,0 1.335937,0 1.699218,0.03515625 v -0.328125 h -0.328125 c -0.949218,0 -0.984375,-0.1171875 -0.984375,-0.50390625 z m 0,0"
         style="fill:#000000;fill-opacity:1;fill-rule:nonzero;stroke:none" />
      <path
         id="path16"
         d="m 26.378344,1.2292656 c 0,0.421875 -0.28125,1.0898438 -1.417969,1.1601563 -0.05859,0.011719 -0.09375,0.058594 -0.09375,0.1171875 0,0.1171875 0.105469,0.1171875 0.199219,0.1171875 1.019531,0 2.003906,-0.515625 2.015625,-1.3125 v -2.390625 c 0,-0.4101563 0,-0.75 0.410156,-1.0898438 0.375,-0.3046875 0.773437,-0.328125 1.007812,-0.3398437 0.04687,-0.011719 0.09375,-0.058594 0.09375,-0.1171875 0,-0.1054688 -0.07031,-0.1054688 -0.175781,-0.1171875 -0.691406,-0.035156 -1.195312,-0.421875 -1.3125,-0.9375 -0.02344,-0.1054688 -0.02344,-0.1289063 -0.02344,-0.515625 v -2.0742188 c 0,-0.4453125 0,-0.7734375 -0.503907,-1.171875 -0.421875,-0.328125 -1.148437,-0.4335937 -1.511718,-0.4335937 -0.09375,0 -0.199219,0 -0.199219,0.1171875 0,0.1054687 0.05859,0.1054687 0.164062,0.1171875 0.65625,0.035156 1.171875,0.375 1.3125,0.9140625 0.03516,0.09375 0.03516,0.1171875 0.03516,0.4921875 v 2.203125 c 0,0.4804687 0.08203,0.65625 0.410156,0.9960937 0.222656,0.2226563 0.527344,0.328125 0.820312,0.4101563 -0.855468,0.2460937 -1.230468,0.7265625 -1.230468,1.3359375 z m 0,0"
         style="fill:#000000;fill-opacity:1;fill-rule:nonzero;stroke:none" />
      <path
         id="path17"
         d="m 32.390062,-2.6262031 c 0,-0.8203125 -0.117187,-2.0859375 -0.691406,-3.28125 -0.632812,-1.2890625 -1.535156,-1.96875 -1.640625,-1.96875 -0.05859,0 -0.105469,0.046875 -0.105469,0.1054687 0,0.035156 0,0.046875 0.199219,0.2460938 1.03125,1.03125 1.628906,2.7070312 1.628906,4.8984375 0,1.79296873 -0.386718,3.6445312 -1.6875,4.96875 -0.140625,0.1289062 -0.140625,0.140625 -0.140625,0.1757812 0,0.058594 0.04687,0.1054688 0.105469,0.1054688 0.105469,0 1.054688,-0.7148438 1.664063,-2.05078127 0.539062,-1.1484375 0.667968,-2.32031253 0.667968,-3.19921873 z m 0,0"
         style="fill:#000000;fill-opacity:1;fill-rule:nonzero;stroke:none" />
    </g>
    <g
       id="g17"
       aria-label="X({0,1})"
       transform="matrix(1.3333333,0,0,1.3333333,129.88667,90.290667)">
      <path
         id="path18"
         d="m 5.0976953,-4.3137031 -0.890625,-2.0976563 c -0.023437,-0.082031 -0.046875,-0.1171875 -0.046875,-0.1289062 0,-0.070312 0.1757813,-0.2695313 0.6210938,-0.3046875 0.1054687,-0.011719 0.2109375,-0.023437 0.2109375,-0.1992188 0,-0.1289062 -0.1289063,-0.1289062 -0.1640625,-0.1289062 -0.4335938,0 -0.8789063,0.035156 -1.3242188,0.035156 -0.2578125,0 -0.9140625,-0.035156 -1.171875,-0.035156 -0.058594,0 -0.1875,0 -0.1875,0.2109375 0,0.1171875 0.1054688,0.1171875 0.234375,0.1171875 0.6328125,0 0.703125,0.1054687 0.796875,0.328125 l 1.2304688,2.9296875 -2.2148438,2.390625 -0.1289062,0.1171875 c -0.515625,0.55078123 -1.0078125,0.72656248 -1.54687504,0.74999998 -0.140625,0.0117188 -0.234375,0.0117188 -0.234375,0.2109375 0,0.0117188 0,0.1171875 0.140625,0.1171875 0.31640625,0 0.65625004,-0.03515625 0.98437504,-0.03515625 0.3867187,0 0.796875,0.03515625 1.171875,0.03515625 0.070312,0 0.1992187,0 0.1992187,-0.2109375 0,-0.10546875 -0.1054687,-0.1171875 -0.1289062,-0.1171875 -0.09375,-0.0117188 -0.421875,-0.0234375 -0.421875,-0.328125 0,-0.1640625 0.1523437,-0.328125 0.28125,-0.46874998 l 1.078125,-1.1367188 0.9375,-1.0195312 1.0664062,2.50781248 c 0.035156,0.1171875 0.046875,0.1171875 0.046875,0.140625 0,0.0820313 -0.1992187,0.26953125 -0.609375,0.3046875 -0.1171875,0.0117188 -0.2109375,0.0234375 -0.2109375,0.19921875 0,0.12890625 0.1171875,0.12890625 0.1640625,0.12890625 0.2929688,0 1.03125,-0.03515625 1.3242188,-0.03515625 0.2578125,0 0.9023437,0.03515625 1.1601562,0.03515625 0.070312,0 0.1992188,0 0.1992188,-0.19921875 0,-0.12890625 -0.1054688,-0.12890625 -0.1875,-0.12890625 C 6.7734766,-0.34104687 6.7500391,-0.36448437 6.5742578,-0.78635937 6.1641016,-1.7707344 5.4609766,-3.3996406 5.2148828,-4.0324531 c 0.7148438,-0.7382813 1.8164063,-1.9804688 2.15625,-2.2734375 0.3046875,-0.2578125 0.703125,-0.515625 1.3359375,-0.5390625 0.1289063,-0.011719 0.2226563,-0.011719 0.2226563,-0.2109375 0,-0.011719 0,-0.1171875 -0.1289063,-0.1171875 -0.3164062,0 -0.6679687,0.035156 -0.984375,0.035156 -0.3984375,0 -0.796875,-0.035156 -1.171875,-0.035156 -0.058594,0 -0.1992187,0 -0.1992187,0.2109375 0,0.070312 0.058594,0.1054687 0.1289062,0.1171875 0.09375,0.011719 0.421875,0.023437 0.421875,0.328125 0,0.140625 -0.1171875,0.28125 -0.1992187,0.375 z m 0,0"
         style="fill:#000000;fill-opacity:1;fill-rule:nonzero;stroke:none" />
      <path
         id="path19"
         d="m 13.004922,2.5183281 c 0,-0.035156 0,-0.046875 -0.1875,-0.234375 -1.3125,-1.32421872 -1.640625,-3.3046875 -1.640625,-4.9101562 0,-1.828125 0.398437,-3.65625 1.6875,-4.96875 0.140625,-0.1289063 0.140625,-0.140625 0.140625,-0.1757813 0,-0.070312 -0.04687,-0.1054687 -0.105469,-0.1054687 -0.105469,0 -1.054687,0.7148437 -1.675781,2.0507812 -0.539063,1.1484375 -0.65625,2.3203125 -0.65625,3.1992188 0,0.8203125 0.117187,2.08593748 0.691406,3.28124998 0.632813,1.28906252 1.535156,1.96875002 1.640625,1.96875002 0.05859,0 0.105469,-0.035156 0.105469,-0.1054688 z m 0,0"
         style="fill:#000000;fill-opacity:1;fill-rule:nonzero;stroke:none" />
      <path
         id="path20"
         d="m 16.58207,-6.4816719 c 0,-0.421875 0.269532,-1.0898437 1.417969,-1.1601562 0.04687,-0.011719 0.09375,-0.058594 0.09375,-0.1171875 0,-0.1171875 -0.09375,-0.1171875 -0.199219,-0.1171875 -1.054687,0 -2.015625,0.5390625 -2.015625,1.3125 v 2.390625 c 0,0.4101562 0,0.75 -0.421875,1.0898437 -0.375,0.3046875 -0.773437,0.328125 -0.996093,0.3398438 -0.05859,0.011719 -0.09375,0.058594 -0.09375,0.1171875 0,0.1054687 0.05859,0.1054687 0.164062,0.1171875 0.691406,0.035156 1.195313,0.421875 1.3125,0.9375 0.03516,0.1054687 0.03516,0.1289062 0.03516,0.515625 v 2.0742187 c 0,0.4453125 0,0.7734375 0.503907,1.171875 0.398437,0.3164063 1.101562,0.4335938 1.511718,0.4335938 0.105469,0 0.199219,0 0.199219,-0.1171875 0,-0.1054688 -0.07031,-0.1054688 -0.175781,-0.1171875 -0.65625,-0.035156 -1.171875,-0.375 -1.3125,-0.9140625 -0.02344,-0.09375 -0.02344,-0.1171875 -0.02344,-0.49218752 V -1.2199531 c 0,-0.4804688 -0.09375,-0.65625 -0.421875,-0.9960938 -0.222656,-0.2226562 -0.527343,-0.328125 -0.820312,-0.4101562 0.855469,-0.2460938 1.242187,-0.7265625 1.242187,-1.3359375 z m 0,0"
         style="fill:#000000;fill-opacity:1;fill-rule:nonzero;stroke:none" />
      <path
         id="path21"
         d="m 23.683633,-3.3644844 c 0,-0.8320312 -0.04687,-1.6757812 -0.421875,-2.4492187 -0.480469,-1.0078125 -1.335938,-1.1835938 -1.78125,-1.1835938 -0.632813,0 -1.394531,0.28125 -1.828125,1.2539063 -0.339844,0.7265625 -0.386719,1.546875 -0.386719,2.3789062 0,0.7851563 0.04687,1.734375 0.46875,2.53125003 0.457031,0.85546875 1.21875,1.06640625 1.734375,1.06640625 0.5625,0 1.371094,-0.22265625 1.828125,-1.21875 0.339844,-0.72656248 0.386719,-1.54687498 0.386719,-2.37890628 z m -2.214844,3.36328128 c -0.410156,0 -1.03125,-0.2578125 -1.21875,-1.26562498 -0.117187,-0.6328125 -0.117187,-1.6054688 -0.117187,-2.2148438 0,-0.6796875 0,-1.3710937 0.08203,-1.9335937 0.210937,-1.2539063 0.996094,-1.3476563 1.253906,-1.3476563 0.351563,0 1.042969,0.1875 1.242188,1.2304688 0.105468,0.5859375 0.105468,1.3828125 0.105468,2.0507812 0,0.7851563 0,1.5 -0.117187,2.1679688 -0.164063,0.99609373 -0.761719,1.31249998 -1.230469,1.31249998 z m 0,0"
         style="fill:#000000;fill-opacity:1;fill-rule:nonzero;stroke:none" />
      <path
         id="path22"
         d="m 26.23832,-0.01292187 c 0,-0.69140625 -0.269531,-1.10156253 -0.667968,-1.10156253 -0.351563,0 -0.5625,0.25781253 -0.5625,0.56250003 0,0.28125 0.210937,0.55078125 0.5625,0.55078125 0.117187,0 0.257812,-0.046875 0.363281,-0.140625 0.03516,-0.0117188 0.03516,-0.0234375 0.04687,-0.0234375 0.01172,0 0.02344,0.0117188 0.02344,0.15234375 0,0.7734375 -0.363281,1.40624997 -0.714843,1.75781247 -0.117188,0.1171875 -0.117188,0.1289063 -0.117188,0.1640625 0,0.070312 0.05859,0.1171875 0.105469,0.1171875 0.117187,0 0.960937,-0.8085937 0.960937,-2.03906247 z m 0,0"
         style="fill:#000000;fill-opacity:1;fill-rule:nonzero;stroke:none" />
      <path
         id="path23"
         d="m 31.854531,-6.7160469 c 0,-0.2578125 0,-0.28125 -0.234375,-0.28125 -0.65625,0.6796875 -1.582031,0.6796875 -1.910156,0.6796875 v 0.3164063 c 0.210937,0 0.832031,0 1.371094,-0.2695313 v 5.43750003 c 0,0.375 -0.03516,0.50390625 -0.972657,0.50390625 h -0.339843 v 0.328125 c 0.363281,-0.03515625 1.277343,-0.03515625 1.699218,-0.03515625 0.421875,0 1.335938,0 1.699219,0.03515625 v -0.328125 h -0.328125 c -0.949219,0 -0.984375,-0.1171875 -0.984375,-0.50390625 z m 0,0"
         style="fill:#000000;fill-opacity:1;fill-rule:nonzero;stroke:none" />
      <path
         id="path24"
         d="m 36.295937,1.2292656 c 0,0.421875 -0.28125,1.0898438 -1.417968,1.1601563 -0.05859,0.011719 -0.09375,0.058594 -0.09375,0.1171875 0,0.1171875 0.105468,0.1171875 0.199218,0.1171875 1.019532,0 2.003907,-0.515625 2.015625,-1.3125 v -2.390625 c 0,-0.4101563 0,-0.75 0.410157,-1.0898438 0.375,-0.3046875 0.773437,-0.328125 1.007812,-0.3398437 0.04687,-0.011719 0.09375,-0.058594 0.09375,-0.1171875 0,-0.1054688 -0.07031,-0.1054688 -0.175781,-0.1171875 -0.691406,-0.035156 -1.195313,-0.421875 -1.3125,-0.9375 -0.02344,-0.1054688 -0.02344,-0.1289063 -0.02344,-0.515625 v -2.0742188 c 0,-0.4453125 0,-0.7734375 -0.503906,-1.171875 -0.421875,-0.328125 -1.148437,-0.4335937 -1.511719,-0.4335937 -0.09375,0 -0.199218,0 -0.199218,0.1171875 0,0.1054687 0.05859,0.1054687 0.164062,0.1171875 0.65625,0.035156 1.171875,0.375 1.3125,0.9140625 0.03516,0.09375 0.03516,0.1171875 0.03516,0.4921875 v 2.203125 c 0,0.4804687 0.08203,0.65625 0.410157,0.9960937 0.222656,0.2226563 0.527343,0.328125 0.820312,0.4101563 -0.855469,0.2460937 -1.230469,0.7265625 -1.230469,1.3359375 z m 0,0"
         style="fill:#000000;fill-opacity:1;fill-rule:nonzero;stroke:none" />
      <path
         id="path25"
         d="m 42.307656,-2.6262031 c 0,-0.8203125 -0.117187,-2.0859375 -0.691406,-3.28125 -0.632813,-1.2890625 -1.535156,-1.96875 -1.640625,-1.96875 -0.05859,0 -0.105469,0.046875 -0.105469,0.1054687 0,0.035156 0,0.046875 0.199219,0.2460938 1.03125,1.03125 1.628906,2.7070312 1.628906,4.8984375 0,1.79296873 -0.386719,3.6445312 -1.6875,4.96875 -0.140625,0.1289062 -0.140625,0.140625 -0.140625,0.1757812 0,0.058594 0.04687,0.1054688 0.105469,0.1054688 0.105469,0 1.054687,-0.7148438 1.664062,-2.05078127 0.539063,-1.1484375 0.667969,-2.32031253 0.667969,-3.19921873 z m 0,0"
         style="fill:#000000;fill-opacity:1;fill-rule:nonzero;stroke:none" />
    </g>
    <path
       id="path26"
       d="M -33.75107,27.99706 H 24.581"
       style="fill:none;stroke:#000000;stroke-width:0.41998;stroke-linecap:butt;stroke-linejoin:miter;stroke-miterlimit:10;stroke-dasharray:none;stroke-opacity:1"
       transform="matrix(1.3333333,0,0,-1.3333333,96.865333,49.461333)" />
    <path
       id="path27"
       d="M -2.18391,2.51988 C -1.78491,1.00793 -0.8958,0.29398 0,0 -0.8958,-0.29398 -1.78491,-1.00793 -2.18391,-2.51988"
       style="fill:none;stroke:#000000;stroke-width:0.41998;stroke-linecap:round;stroke-linejoin:round;stroke-miterlimit:10;stroke-dasharray:none;stroke-opacity:1"
       transform="matrix(1.3333333,0,0,-1.3333333,129.91999,12.13192)" />
    <path
       id="path28"
       d="M -51.40417,18.70099 V -18.28102"
       style="fill:none;stroke:#000000;stroke-width:0.41998;stroke-linecap:butt;stroke-linejoin:miter;stroke-miterlimit:10;stroke-dasharray:none;stroke-opacity:1"
       transform="matrix(1.3333333,0,0,-1.3333333,96.865333,49.461333)" />
    <path
       id="path29"
       d="M -2.18391,2.51988 C -1.78491,1.00793 -0.8958,0.29398 0,0 -0.8958,-0.29398 -1.78491,-1.00793 -2.18391,-2.51988"
       style="fill:none;stroke:#000000;stroke-width:0.41998;stroke-linecap:round;stroke-linejoin:round;stroke-miterlimit:10;stroke-dasharray:none;stroke-opacity:1"
       transform="matrix(0,1.3333333,1.3333333,0,28.32644,74.116013)" />
    <path
       id="path30"
       d="m 3.5275313,-2.5905547 c 0,-0.1054687 0,-0.2578125 -0.1640625,-0.2578125 -0.1757813,0 -0.1757813,0.1757813 -0.1757813,0.2929688 v 2.35546871 H 0.8205 c -0.1171875,0 -0.28125,0 -0.28125,0.1640625 0,0.17578125 0.1640625,0.17578125 0.28125,0.17578125 H 3.258 c 0.234375,0 0.2695313,-0.046875 0.2695313,-0.26953125 z m 0,0"
       style="fill:#000000;fill-opacity:1;fill-rule:nonzero;stroke:none"
       aria-label="⌟"
       transform="matrix(1.3333333,0,0,1.3333333,58.156,32.762667)" />
    <path
       id="path31"
       d="M 46.44579,18.70099 V -18.28102"
       style="fill:none;stroke:#000000;stroke-width:0.41998;stroke-linecap:butt;stroke-linejoin:miter;stroke-miterlimit:10;stroke-dasharray:none;stroke-opacity:1"
       transform="matrix(1.3333333,0,0,-1.3333333,96.865333,49.461333)" />
    <path
       id="path32"
       d="M -2.18391,2.51988 C -1.78491,1.00793 -0.8958,0.29398 0,0 -0.8958,-0.29398 -1.78491,-1.00793 -2.18391,-2.51988"
       style="fill:none;stroke:#000000;stroke-width:0.41998;stroke-linecap:round;stroke-linejoin:round;stroke-miterlimit:10;stroke-dasharray:none;stroke-opacity:1"
       transform="matrix(0,1.3333333,1.3333333,0,158.79305,74.116013)" />
    <path
       id="path33"
       d="M -29.95935,-27.99706 H 19.62262"
       style="fill:none;stroke:#000000;stroke-width:0.41998;stroke-linecap:butt;stroke-linejoin:miter;stroke-miterlimit:10;stroke-dasharray:none;stroke-opacity:1"
       transform="matrix(1.3333333,0,0,-1.3333333,96.865333,49.461333)" />
    <path
       id="path34"
       d="M -2.18391,2.51988 C -1.78491,1.00793 -0.8958,0.29398 0,0 -0.8958,-0.29398 -1.78491,-1.00793 -2.18391,-2.51988"
       style="fill:none;stroke:#000000;stroke-width:0.41998;stroke-linecap:round;stroke-linejoin:round;stroke-miterlimit:10;stroke-dasharray:none;stroke-opacity:1"
       transform="matrix(1.3333333,0,0,-1.3333333,123.3088,86.790747)" />
  </g>
</svg>
