<?xml version="1.0" encoding="UTF-8" standalone="no"?>
<!-- Created with Inkscape (http://www.inkscape.org/) -->

<svg
   version="1.1"
   id="svg1"
   width="105.33333"
   height="16.48"
   viewBox="0 0 105.33333 16.48"
   sodipodi:docname="upload_fcwrfudta6a7rr4byxlurozxgg.pdf"
   xmlns:inkscape="http://www.inkscape.org/namespaces/inkscape"
   xmlns:sodipodi="http://sodipodi.sourceforge.net/DTD/sodipodi-0.dtd"
   xmlns="http://www.w3.org/2000/svg"
   xmlns:svg="http://www.w3.org/2000/svg">
  <defs
     id="defs1" />
  <sodipodi:namedview
     id="namedview1"
     pagecolor="#ffffff"
     bordercolor="#000000"
     borderopacity="0.25"
     inkscape:showpageshadow="2"
     inkscape:pageopacity="0.0"
     inkscape:pagecheckerboard="0"
     inkscape:deskcolor="#d1d1d1">
    <inkscape:page
       x="0"
       y="0"
       inkscape:label="1"
       id="page1"
       width="105.33333"
       height="16.48"
       margin="0"
       bleed="0" />
  </sodipodi:namedview>
  <g
     id="g1"
     inkscape:groupmode="layer"
     inkscape:label="1">
    <path
       id="path1"
       d="m 4.6654297,-2.6243281 c 0,-1.125 -0.9375,-2.0390625 -2.0390625,-2.0390625 -1.1367188,0 -2.05078126,0.9375 -2.05078126,2.0390625 0,1.1132812 0.91406246,2.03906247 2.05078126,2.03906247 1.1015625,0 2.0390625,-0.91406247 2.0390625,-2.03906247 z m 0,0"
       style="fill:#000000;fill-opacity:1;fill-rule:nonzero;stroke:none"
       aria-label="•"
       transform="matrix(1.3333333,0,0,1.3333333,6.0333333,11.350667)" />
    <path
       id="path2"
       d="m 4.6636484,-2.6243281 c 0,-1.125 -0.9375,-2.0390625 -2.0390625,-2.0390625 -1.1367187,0 -2.05078121,0.9375 -2.05078121,2.0390625 0,1.1132812 0.91406251,2.03906247 2.05078121,2.03906247 1.1015625,0 2.0390625,-0.91406247 2.0390625,-2.03906247 z m 0,0"
       style="fill:#000000;fill-opacity:1;fill-rule:nonzero;stroke:none"
       aria-label="•"
       transform="matrix(1.3333333,0,0,1.3333333,92.301333,11.350667)" />
    <path
       id="path3"
       d="M -25.00096,-2.24261 H 24.581"
       style="fill:none;stroke:#000000;stroke-width:0.41998;stroke-linecap:butt;stroke-linejoin:miter;stroke-miterlimit:10;stroke-dasharray:none;stroke-opacity:1"
       transform="matrix(1.3333333,0,0,-1.3333333,52.668,8.24)" />
    <path
       id="path4"
       d="M -2.18391,2.51988 C -1.78491,1.00793 -0.8958,0.29398 0,0 -0.8958,-0.29398 -1.78491,-1.00793 -2.18391,-2.51988"
       style="fill:none;stroke:#000000;stroke-width:0.41998;stroke-linecap:round;stroke-linejoin:round;stroke-miterlimit:10;stroke-dasharray:none;stroke-opacity:1"
       transform="matrix(1.3333333,0,0,-1.3333333,85.722653,11.230147)" />
    <path
       id="path5"
       d="M -25.00096,2.82594 H 24.581"
       style="fill:none;stroke:#000000;stroke-width:0.41998;stroke-linecap:butt;stroke-linejoin:miter;stroke-miterlimit:10;stroke-dasharray:none;stroke-opacity:1"
       transform="matrix(1.3333333,0,0,-1.3333333,52.668,8.24)" />
    <path
       id="path6"
       d="M -2.18391,2.51988 C -1.78491,1.00793 -0.8958,0.29398 0,0 -0.8958,-0.29398 -1.78491,-1.00793 -2.18391,-2.51988"
       style="fill:none;stroke:#000000;stroke-width:0.41998;stroke-linecap:round;stroke-linejoin:round;stroke-miterlimit:10;stroke-dasharray:none;stroke-opacity:1"
       transform="matrix(1.3333333,0,0,-1.3333333,85.722653,4.47208)" />
  </g>
</svg>
