<?xml version="1.0" encoding="UTF-8"?>
<svg xmlns="http://www.w3.org/2000/svg" xmlns:xlink="http://www.w3.org/1999/xlink" width="343.71pt" height="121.59pt" viewBox="0 0 343.71 121.59" version="1.1">
<defs>
<g>
<symbol overflow="visible" id="glyph0-0">
<path style="stroke:none;" d=""/>
</symbol>
<symbol overflow="visible" id="glyph0-1">
<path style="stroke:none;" d="M 3.078125 -4.765625 L 3.078125 -2.5 L 7.59375 -2.5 L 7.59375 -4.765625 Z M 2.421875 -1.515625 C 2.453125 -2.085938 2.46875 -2.703125 2.46875 -3.359375 C 2.46875 -4.015625 2.453125 -4.671875 2.421875 -5.328125 L 3.078125 -5 L 4.84375 -5 C 4.84375 -6.832031 4.828125 -8.023438 4.796875 -8.578125 L 5.75 -8.203125 L 5.421875 -7.875 L 5.421875 -6.890625 L 8.078125 -6.890625 L 8.609375 -7.421875 L 9.359375 -6.640625 L 5.421875 -6.640625 L 5.421875 -5 L 7.5 -5 L 7.921875 -5.421875 L 8.53125 -4.796875 L 8.15625 -4.515625 C 8.15625 -3.222656 8.171875 -2.347656 8.203125 -1.890625 L 7.59375 -1.640625 L 7.59375 -2.25 L 3.078125 -2.25 L 3.078125 -1.765625 Z M 2.21875 -1.3125 L 2.375 -1.3125 C 2.21875 -0.25 2.046875 0.367188 1.859375 0.546875 C 1.679688 0.734375 1.523438 0.828125 1.390625 0.828125 C 1.304688 0.828125 1.207031 0.789062 1.09375 0.71875 C 0.988281 0.644531 0.9375 0.570312 0.9375 0.5 C 0.9375 0.414062 1.007812 0.316406 1.15625 0.203125 C 1.394531 0.015625 1.578125 -0.160156 1.703125 -0.328125 C 1.828125 -0.492188 2 -0.820312 2.21875 -1.3125 Z M 3.65625 -1.109375 L 3.734375 -1.234375 C 4.304688 -0.796875 4.625 -0.488281 4.6875 -0.3125 C 4.757812 -0.132812 4.796875 -0.00390625 4.796875 0.078125 C 4.796875 0.273438 4.734375 0.429688 4.609375 0.546875 C 4.492188 0.671875 4.421875 0.734375 4.390625 0.734375 C 4.273438 0.734375 4.207031 0.597656 4.1875 0.328125 C 4.132812 -0.078125 3.957031 -0.554688 3.65625 -1.109375 Z M 5.828125 -1.15625 L 5.90625 -1.265625 C 6.425781 -0.890625 6.75 -0.59375 6.875 -0.375 C 7 -0.15625 7.0625 -0.00390625 7.0625 0.078125 C 7.0625 0.210938 7 0.347656 6.875 0.484375 C 6.75 0.628906 6.671875 0.703125 6.640625 0.703125 C 6.535156 0.703125 6.457031 0.535156 6.40625 0.203125 C 6.320312 -0.265625 6.128906 -0.71875 5.828125 -1.15625 Z M 8.046875 -1.265625 L 8.125 -1.390625 C 8.664062 -1.015625 9.039062 -0.6875 9.25 -0.40625 C 9.457031 -0.132812 9.5625 0.0664062 9.5625 0.203125 C 9.5625 0.335938 9.503906 0.472656 9.390625 0.609375 C 9.285156 0.753906 9.21875 0.828125 9.1875 0.828125 C 9.082031 0.828125 8.988281 0.660156 8.90625 0.328125 C 8.769531 -0.140625 8.484375 -0.671875 8.046875 -1.265625 Z M 8.046875 -1.265625 "/>
</symbol>
<symbol overflow="visible" id="glyph0-2">
<path style="stroke:none;" d="M 2.09375 -3.453125 L 7.21875 -3.453125 L 7.75 -3.9375 L 8.484375 -3.203125 L 5.53125 -3.203125 L 5.53125 0.25 L 8.375 0.25 L 8.984375 -0.375 L 9.796875 0.5 L 2.09375 0.5 C 1.738281 0.5 1.410156 0.535156 1.109375 0.609375 L 0.734375 0.25 L 4.921875 0.25 L 4.921875 -3.203125 L 3.453125 -3.203125 C 3.085938 -3.203125 2.757812 -3.160156 2.46875 -3.078125 Z M 4.34375 -8.484375 C 4.945312 -8.328125 5.332031 -8.164062 5.5 -8 C 5.664062 -7.832031 5.75 -7.664062 5.75 -7.5 C 5.75 -7.363281 5.707031 -7.226562 5.625 -7.09375 C 5.539062 -6.957031 5.472656 -6.890625 5.421875 -6.890625 C 5.335938 -6.890625 5.253906 -7 5.171875 -7.21875 C 5.035156 -7.570312 4.734375 -7.957031 4.265625 -8.375 Z M 8.28125 -5.421875 L 8.78125 -6.5625 L 1.921875 -6.5625 C 2.003906 -5.90625 1.941406 -5.53125 1.734375 -5.4375 C 1.535156 -5.34375 1.367188 -5.296875 1.234375 -5.296875 C 1.117188 -5.296875 1.019531 -5.304688 0.9375 -5.328125 C 0.863281 -5.359375 0.828125 -5.398438 0.828125 -5.453125 C 0.828125 -5.484375 0.863281 -5.550781 0.9375 -5.65625 C 1.082031 -5.789062 1.226562 -5.972656 1.375 -6.203125 C 1.519531 -6.441406 1.632812 -6.796875 1.71875 -7.265625 L 1.921875 -7.265625 L 1.921875 -6.8125 L 8.703125 -6.8125 L 9.0625 -7.296875 L 9.921875 -6.4375 C 9.484375 -6.4375 8.976562 -6.066406 8.40625 -5.328125 Z M 4.640625 -5.625 L 4.265625 -5.5 C 2.984375 -4.457031 1.890625 -3.773438 0.984375 -3.453125 L 0.90625 -3.5625 C 1.582031 -3.976562 2.175781 -4.410156 2.6875 -4.859375 C 3.195312 -5.304688 3.613281 -5.789062 3.9375 -6.3125 Z M 6.03125 -6.03125 C 6.9375 -5.726562 7.644531 -5.453125 8.15625 -5.203125 C 8.675781 -4.960938 8.960938 -4.753906 9.015625 -4.578125 C 9.078125 -4.398438 9.109375 -4.28125 9.109375 -4.21875 C 9.109375 -4.144531 9.085938 -4.050781 9.046875 -3.9375 C 9.003906 -3.832031 8.957031 -3.78125 8.90625 -3.78125 C 8.789062 -3.78125 8.664062 -3.859375 8.53125 -4.015625 C 8.28125 -4.265625 7.941406 -4.550781 7.515625 -4.875 C 7.097656 -5.207031 6.578125 -5.535156 5.953125 -5.859375 Z M 6.03125 -6.03125 "/>
</symbol>
<symbol overflow="visible" id="glyph0-3">
<path style="stroke:none;" d="M 3.53125 -0.859375 C 3.550781 -1.734375 3.5625 -2.601562 3.5625 -3.46875 C 3.5625 -4.332031 3.550781 -5.1875 3.53125 -6.03125 L 4.140625 -5.65625 L 6.15625 -5.65625 L 6.5625 -6.078125 L 7.09375 -5.53125 L 6.765625 -5.25 C 6.765625 -3.445312 6.78125 -2.117188 6.8125 -1.265625 L 6.234375 -0.9375 L 6.234375 -1.59375 L 4.109375 -1.59375 L 4.109375 -1.15625 Z M 4.109375 -5.421875 L 4.109375 -3.8125 L 6.234375 -3.8125 L 6.234375 -5.421875 Z M 4.109375 -3.5625 L 4.109375 -1.84375 L 6.234375 -1.84375 L 6.234375 -3.5625 Z M 2.09375 -8.53125 C 2.71875 -8.125 3.082031 -7.835938 3.1875 -7.671875 C 3.300781 -7.503906 3.359375 -7.367188 3.359375 -7.265625 C 3.359375 -7.097656 3.300781 -6.9375 3.1875 -6.78125 C 3.082031 -6.632812 3.019531 -6.5625 3 -6.5625 C 2.914062 -6.5625 2.832031 -6.710938 2.75 -7.015625 C 2.613281 -7.421875 2.351562 -7.882812 1.96875 -8.40625 Z M 1.84375 -0.703125 C 1.84375 -0.265625 1.859375 0.171875 1.890625 0.609375 L 1.234375 0.859375 C 1.253906 0.453125 1.265625 -0.894531 1.265625 -3.1875 C 1.265625 -5.488281 1.253906 -6.847656 1.234375 -7.265625 L 2.21875 -6.765625 L 1.84375 -6.515625 Z M 6.9375 -0.203125 C 7.8125 -0.0664062 8.300781 -0.0195312 8.40625 -0.0625 C 8.519531 -0.101562 8.578125 -0.21875 8.578125 -0.40625 L 8.578125 -7.296875 L 5.296875 -7.296875 C 4.941406 -7.296875 4.613281 -7.253906 4.3125 -7.171875 L 3.9375 -7.546875 L 8.484375 -7.546875 L 8.90625 -7.953125 L 9.46875 -7.390625 L 9.140625 -7.140625 L 9.140625 -0.375 C 9.140625 -0.0078125 9.078125 0.25 8.953125 0.40625 C 8.835938 0.570312 8.585938 0.738281 8.203125 0.90625 C 7.984375 0.4375 7.5625 0.117188 6.9375 -0.046875 Z M 6.9375 -0.203125 "/>
</symbol>
<symbol overflow="visible" id="glyph0-4">
<path style="stroke:none;" d="M 2.546875 -1.09375 C 2.710938 -0.988281 2.785156 -0.804688 2.765625 -0.546875 C 2.753906 -0.296875 2.648438 -0.113281 2.453125 0 C 2.265625 0.113281 2.128906 0.171875 2.046875 0.171875 C 1.960938 0.171875 1.828125 0.113281 1.640625 0 C 1.453125 -0.113281 1.347656 -0.304688 1.328125 -0.578125 C 1.316406 -0.847656 1.398438 -1.03125 1.578125 -1.125 C 1.753906 -1.21875 1.910156 -1.265625 2.046875 -1.265625 C 2.210938 -1.265625 2.378906 -1.207031 2.546875 -1.09375 Z M 2.53125 -3.59375 C 2.726562 -3.5 2.828125 -3.304688 2.828125 -3.015625 C 2.828125 -2.722656 2.71875 -2.53125 2.5 -2.4375 C 2.28125 -2.34375 2.128906 -2.296875 2.046875 -2.296875 C 1.910156 -2.296875 1.753906 -2.359375 1.578125 -2.484375 C 1.398438 -2.609375 1.316406 -2.800781 1.328125 -3.0625 C 1.347656 -3.320312 1.453125 -3.5 1.640625 -3.59375 C 1.828125 -3.6875 1.976562 -3.734375 2.09375 -3.734375 C 2.195312 -3.734375 2.34375 -3.6875 2.53125 -3.59375 Z M 2.53125 -3.59375 "/>
</symbol>
<symbol overflow="visible" id="glyph0-5">
<path style="stroke:none;" d="M 6.40625 -5.578125 C 6.40625 -5.191406 6.429688 -4.6875 6.484375 -4.0625 L 8.40625 -4.265625 L 8.9375 -4.875 L 9.765625 -4.1875 L 6.515625 -3.859375 C 6.597656 -3.003906 6.738281 -2.332031 6.9375 -1.84375 C 7.53125 -2.394531 8.007812 -2.96875 8.375 -3.5625 L 9.109375 -2.828125 L 8.734375 -2.796875 C 8.210938 -2.296875 7.691406 -1.800781 7.171875 -1.3125 C 7.671875 -0.625 8.25 -0.144531 8.90625 0.125 L 9.46875 -1.84375 L 9.640625 -1.8125 C 9.585938 -1.175781 9.550781 -0.648438 9.53125 -0.234375 C 9.519531 0.171875 9.582031 0.492188 9.71875 0.734375 C 9.75 0.796875 9.765625 0.835938 9.765625 0.859375 C 9.765625 0.972656 9.617188 1.007812 9.328125 0.96875 C 9.046875 0.925781 8.664062 0.757812 8.1875 0.46875 C 7.707031 0.1875 7.222656 -0.269531 6.734375 -0.90625 C 6.234375 -0.570312 5.726562 -0.296875 5.21875 -0.078125 C 4.71875 0.140625 4.085938 0.359375 3.328125 0.578125 L 3.28125 0.40625 C 4.457031 -0.03125 5.507812 -0.628906 6.4375 -1.390625 C 6.195312 -2.128906 6.035156 -2.925781 5.953125 -3.78125 L 4.265625 -3.5625 L 3.9375 -3.40625 L 3.484375 -3.734375 L 5.90625 -3.984375 C 5.875 -4.359375 5.847656 -4.875 5.828125 -5.53125 L 4.640625 -5.453125 L 4.390625 -5.296875 L 4.015625 -5.625 L 5.828125 -5.75 C 5.796875 -6.695312 5.769531 -7.648438 5.75 -8.609375 L 6.6875 -8.15625 L 6.359375 -7.875 C 6.359375 -7.300781 6.375 -6.601562 6.40625 -5.78125 L 8.15625 -5.953125 L 8.703125 -6.5625 L 9.515625 -5.828125 Z M 7.015625 -7.921875 L 7.0625 -8.046875 C 7.90625 -7.828125 8.367188 -7.640625 8.453125 -7.484375 C 8.535156 -7.335938 8.578125 -7.207031 8.578125 -7.09375 C 8.578125 -6.957031 8.546875 -6.820312 8.484375 -6.6875 C 8.429688 -6.550781 8.378906 -6.484375 8.328125 -6.484375 C 8.273438 -6.484375 8.191406 -6.59375 8.078125 -6.8125 C 7.890625 -7.113281 7.535156 -7.484375 7.015625 -7.921875 Z M 2.5 -8.453125 L 3.328125 -7.921875 C 3.109375 -7.835938 2.875 -7.5625 2.625 -7.09375 C 2.375 -6.601562 1.921875 -5.90625 1.265625 -5 L 2.953125 -5.171875 C 3.285156 -5.710938 3.546875 -6.257812 3.734375 -6.8125 L 4.46875 -6.28125 C 4.28125 -6.164062 3.953125 -5.769531 3.484375 -5.09375 C 3.023438 -4.40625 2.425781 -3.582031 1.6875 -2.625 C 2.0625 -2.675781 2.90625 -2.828125 4.21875 -3.078125 L 4.21875 -2.90625 C 3.488281 -2.71875 2.914062 -2.546875 2.5 -2.390625 C 2.09375 -2.242188 1.679688 -2.035156 1.265625 -1.765625 L 0.78125 -2.625 C 1.082031 -2.707031 1.429688 -3 1.828125 -3.5 C 2.222656 -4.007812 2.570312 -4.507812 2.875 -5 C 2.570312 -4.945312 2.253906 -4.875 1.921875 -4.78125 C 1.597656 -4.6875 1.300781 -4.515625 1.03125 -4.265625 L 0.578125 -5.046875 C 0.878906 -5.097656 1.226562 -5.484375 1.625 -6.203125 C 2.019531 -6.929688 2.3125 -7.679688 2.5 -8.453125 Z M 0.53125 -0.609375 C 1.300781 -0.722656 1.914062 -0.820312 2.375 -0.90625 C 2.84375 -0.988281 3.597656 -1.140625 4.640625 -1.359375 L 4.671875 -1.1875 C 3.441406 -0.832031 2.546875 -0.550781 1.984375 -0.34375 C 1.429688 -0.144531 1.082031 0.0234375 0.9375 0.171875 Z M 0.53125 -0.609375 "/>
</symbol>
<symbol overflow="visible" id="glyph0-6">
<path style="stroke:none;" d="M 4.34375 -1.921875 L 4.34375 -0.125 L 6.078125 -0.125 L 6.078125 -1.921875 Z M 4.0625 -5.859375 C 4.28125 -6.492188 4.429688 -7.082031 4.515625 -7.625 L 1.890625 -7.625 C 1.472656 -7.625 1.117188 -7.582031 0.828125 -7.5 L 0.453125 -7.875 L 8.65625 -7.875 L 9.3125 -8.484375 L 10.046875 -7.625 L 4.921875 -7.625 L 5.53125 -7.296875 L 5.125 -7.171875 C 4.800781 -6.710938 4.53125 -6.273438 4.3125 -5.859375 L 8.328125 -5.859375 L 8.609375 -6.28125 L 9.265625 -5.78125 L 8.984375 -5.5 C 8.984375 -3.039062 9 -0.988281 9.03125 0.65625 L 8.40625 0.9375 L 8.40625 0.125 L 2.046875 0.125 L 2.046875 0.703125 L 1.4375 0.984375 C 1.46875 0.0234375 1.484375 -1.195312 1.484375 -2.6875 C 1.484375 -4.175781 1.46875 -5.34375 1.4375 -6.1875 L 2.046875 -5.859375 Z M 2.046875 -5.625 L 2.046875 -0.125 L 3.8125 -0.125 L 3.8125 -5.625 Z M 6.609375 -5.625 L 6.609375 -0.125 L 8.40625 -0.125 L 8.40625 -5.625 Z M 4.34375 -5.625 L 4.34375 -4.0625 L 6.078125 -4.0625 L 6.078125 -5.625 Z M 4.34375 -3.8125 L 4.34375 -2.171875 L 6.078125 -2.171875 L 6.078125 -3.8125 Z M 4.34375 -3.8125 "/>
</symbol>
<symbol overflow="visible" id="glyph1-0">
<path style="stroke:none;" d=""/>
</symbol>
<symbol overflow="visible" id="glyph1-1">
<path style="stroke:none;" d="M 6.765625 -7.296875 C 6.765625 -7.328125 6.75 -7.40625 6.65625 -7.40625 C 6.609375 -7.40625 6.59375 -7.390625 6.46875 -7.25 L 5.96875 -6.640625 C 5.6875 -7.140625 5.140625 -7.40625 4.46875 -7.40625 C 3.125 -7.40625 1.875 -6.1875 1.875 -4.921875 C 1.875 -4.078125 2.421875 -3.59375 2.96875 -3.4375 L 4.078125 -3.140625 C 4.46875 -3.046875 5.046875 -2.890625 5.046875 -2.03125 C 5.046875 -1.078125 4.1875 -0.09375 3.15625 -0.09375 C 2.484375 -0.09375 1.328125 -0.328125 1.328125 -1.625 C 1.328125 -1.875 1.375 -2.125 1.390625 -2.1875 C 1.390625 -2.234375 1.40625 -2.25 1.40625 -2.265625 C 1.40625 -2.375 1.328125 -2.390625 1.28125 -2.390625 C 1.234375 -2.390625 1.203125 -2.375 1.171875 -2.34375 C 1.140625 -2.296875 0.546875 0.09375 0.546875 0.125 C 0.546875 0.1875 0.59375 0.234375 0.65625 0.234375 C 0.71875 0.234375 0.71875 0.21875 0.84375 0.078125 L 1.359375 -0.53125 C 1.8125 0.078125 2.53125 0.234375 3.140625 0.234375 C 4.5625 0.234375 5.8125 -1.171875 5.8125 -2.46875 C 5.8125 -3.1875 5.453125 -3.546875 5.296875 -3.703125 C 5.046875 -3.9375 4.890625 -3.984375 3.953125 -4.21875 C 3.734375 -4.28125 3.34375 -4.390625 3.25 -4.40625 C 2.96875 -4.5 2.609375 -4.8125 2.609375 -5.359375 C 2.609375 -6.21875 3.453125 -7.109375 4.453125 -7.109375 C 5.328125 -7.109375 5.96875 -6.65625 5.96875 -5.484375 C 5.96875 -5.140625 5.921875 -4.953125 5.921875 -4.890625 C 5.921875 -4.875 5.921875 -4.78125 6.046875 -4.78125 C 6.15625 -4.78125 6.15625 -4.8125 6.203125 -5 Z M 6.765625 -7.296875 "/>
</symbol>
<symbol overflow="visible" id="glyph1-2">
<path style="stroke:none;" d="M 2.125 -0.015625 C 2.125 -0.703125 1.875 -1.109375 1.453125 -1.109375 C 1.109375 -1.109375 0.90625 -0.84375 0.90625 -0.5625 C 0.90625 -0.265625 1.109375 0 1.453125 0 C 1.578125 0 1.71875 -0.046875 1.828125 -0.140625 C 1.859375 -0.15625 1.875 -0.171875 1.875 -0.171875 C 1.890625 -0.171875 1.90625 -0.15625 1.90625 -0.015625 C 1.90625 0.765625 1.53125 1.390625 1.1875 1.75 C 1.078125 1.859375 1.078125 1.875 1.078125 1.90625 C 1.078125 1.984375 1.125 2.03125 1.171875 2.03125 C 1.296875 2.03125 2.125 1.21875 2.125 -0.015625 Z M 2.125 -0.015625 "/>
</symbol>
<symbol overflow="visible" id="glyph2-0">
<path style="stroke:none;" d=""/>
</symbol>
<symbol overflow="visible" id="glyph2-1">
<path style="stroke:none;" d="M 3.59375 -2.21875 C 3.59375 -2.984375 3.5 -3.546875 3.1875 -4.03125 C 2.96875 -4.34375 2.53125 -4.625 1.984375 -4.625 C 0.359375 -4.625 0.359375 -2.71875 0.359375 -2.21875 C 0.359375 -1.71875 0.359375 0.140625 1.984375 0.140625 C 3.59375 0.140625 3.59375 -1.71875 3.59375 -2.21875 Z M 1.984375 -0.0625 C 1.65625 -0.0625 1.234375 -0.25 1.09375 -0.8125 C 1 -1.21875 1 -1.796875 1 -2.3125 C 1 -2.828125 1 -3.359375 1.09375 -3.734375 C 1.25 -4.28125 1.6875 -4.4375 1.984375 -4.4375 C 2.359375 -4.4375 2.71875 -4.203125 2.84375 -3.796875 C 2.953125 -3.421875 2.96875 -2.921875 2.96875 -2.3125 C 2.96875 -1.796875 2.96875 -1.28125 2.875 -0.84375 C 2.734375 -0.203125 2.265625 -0.0625 1.984375 -0.0625 Z M 1.984375 -0.0625 "/>
</symbol>
<symbol overflow="visible" id="glyph2-2">
<path style="stroke:none;" d="M 2.328125 -4.4375 C 2.328125 -4.625 2.328125 -4.625 2.125 -4.625 C 1.671875 -4.1875 1.046875 -4.1875 0.765625 -4.1875 L 0.765625 -3.9375 C 0.921875 -3.9375 1.390625 -3.9375 1.765625 -4.125 L 1.765625 -0.578125 C 1.765625 -0.34375 1.765625 -0.25 1.078125 -0.25 L 0.8125 -0.25 L 0.8125 0 C 0.9375 0 1.796875 -0.03125 2.046875 -0.03125 C 2.265625 -0.03125 3.140625 0 3.296875 0 L 3.296875 -0.25 L 3.03125 -0.25 C 2.328125 -0.25 2.328125 -0.34375 2.328125 -0.578125 Z M 2.328125 -4.4375 "/>
</symbol>
<symbol overflow="visible" id="glyph2-3">
<path style="stroke:none;" d="M 3.515625 -1.265625 L 3.28125 -1.265625 C 3.265625 -1.109375 3.1875 -0.703125 3.09375 -0.640625 C 3.046875 -0.59375 2.515625 -0.59375 2.40625 -0.59375 L 1.125 -0.59375 C 1.859375 -1.234375 2.109375 -1.4375 2.515625 -1.765625 C 3.03125 -2.171875 3.515625 -2.609375 3.515625 -3.265625 C 3.515625 -4.109375 2.78125 -4.625 1.890625 -4.625 C 1.03125 -4.625 0.4375 -4.015625 0.4375 -3.375 C 0.4375 -3.03125 0.734375 -2.984375 0.8125 -2.984375 C 0.96875 -2.984375 1.171875 -3.109375 1.171875 -3.359375 C 1.171875 -3.484375 1.125 -3.734375 0.765625 -3.734375 C 0.984375 -4.21875 1.453125 -4.375 1.78125 -4.375 C 2.484375 -4.375 2.84375 -3.828125 2.84375 -3.265625 C 2.84375 -2.65625 2.40625 -2.1875 2.1875 -1.9375 L 0.515625 -0.265625 C 0.4375 -0.203125 0.4375 -0.1875 0.4375 0 L 3.3125 0 Z M 3.515625 -1.265625 "/>
</symbol>
<symbol overflow="visible" id="glyph3-0">
<path style="stroke:none;" d=""/>
</symbol>
<symbol overflow="visible" id="glyph3-1">
<path style="stroke:none;" d="M 7.21875 -3.4375 C 7.375 -3.4375 7.578125 -3.4375 7.578125 -3.640625 C 7.578125 -3.859375 7.375 -3.859375 7.21875 -3.859375 L 0.9375 -3.859375 C 0.78125 -3.859375 0.59375 -3.859375 0.59375 -3.640625 C 0.59375 -3.4375 0.78125 -3.4375 0.9375 -3.4375 Z M 7.21875 -1.390625 C 7.375 -1.390625 7.578125 -1.390625 7.578125 -1.609375 C 7.578125 -1.8125 7.375 -1.8125 7.21875 -1.8125 L 0.9375 -1.8125 C 0.78125 -1.8125 0.59375 -1.8125 0.59375 -1.609375 C 0.59375 -1.390625 0.78125 -1.390625 0.9375 -1.390625 Z M 7.21875 -1.390625 "/>
</symbol>
<symbol overflow="visible" id="glyph4-0">
<path style="stroke:none;" d=""/>
</symbol>
<symbol overflow="visible" id="glyph4-1">
<path style="stroke:none;" d="M 6.65625 30.75 C 6.703125 30.90625 6.765625 31.078125 7 31.078125 C 7.171875 31.078125 7.3125 30.9375 7.3125 30.75 C 7.3125 30.734375 7.3125 30.6875 7.265625 30.546875 L 2.125 15.328125 L 7.265625 0.109375 C 7.3125 -0.03125 7.3125 -0.078125 7.3125 -0.09375 C 7.3125 -0.265625 7.171875 -0.421875 7 -0.421875 C 6.765625 -0.421875 6.703125 -0.234375 6.65625 -0.109375 L 1.515625 15.125 C 1.453125 15.265625 1.453125 15.3125 1.453125 15.328125 C 1.453125 15.34375 1.453125 15.390625 1.515625 15.546875 Z M 6.65625 30.75 "/>
</symbol>
<symbol overflow="visible" id="glyph4-2">
<path style="stroke:none;" d="M 6.328125 15.328125 L 1.1875 30.546875 C 1.140625 30.6875 1.140625 30.734375 1.140625 30.75 C 1.140625 30.9375 1.28125 31.078125 1.453125 31.078125 C 1.6875 31.078125 1.75 30.90625 1.796875 30.765625 L 6.9375 15.546875 C 7 15.390625 7 15.34375 7 15.328125 C 7 15.3125 7 15.265625 6.9375 15.125 L 1.796875 -0.09375 C 1.75 -0.25 1.6875 -0.421875 1.453125 -0.421875 C 1.28125 -0.421875 1.140625 -0.265625 1.140625 -0.09375 C 1.140625 -0.078125 1.140625 -0.03125 1.1875 0.109375 Z M 6.328125 15.328125 "/>
</symbol>
<symbol overflow="visible" id="glyph5-0">
<path style="stroke:none;" d=""/>
</symbol>
<symbol overflow="visible" id="glyph5-1">
<path style="stroke:none;" d="M 4.65625 -2.625 C 4.65625 -3.75 3.734375 -4.65625 2.625 -4.65625 C 1.484375 -4.65625 0.578125 -3.734375 0.578125 -2.625 C 0.578125 -1.515625 1.484375 -0.59375 2.625 -0.59375 C 3.734375 -0.59375 4.65625 -1.5 4.65625 -2.625 Z M 4.65625 -2.625 "/>
</symbol>
</g>
<clipPath id="clip1">
  <path d="M 145 90 L 152 90 L 152 121.589844 L 145 121.589844 Z M 145 90 "/>
</clipPath>
<clipPath id="clip2">
  <path d="M 183 90 L 189 90 L 189 121.589844 L 183 121.589844 Z M 183 90 "/>
</clipPath>
</defs>
<g id="surface1">
<g style="fill:rgb(0%,0%,0%);fill-opacity:1;">
  <use xlink:href="#glyph0-1" x="73.655" y="33.802"/>
  <use xlink:href="#glyph0-2" x="84.155" y="33.802"/>
  <use xlink:href="#glyph0-3" x="94.655" y="33.802"/>
  <use xlink:href="#glyph0-4" x="105.155" y="33.802"/>
</g>
<g style="fill:rgb(0%,0%,0%);fill-opacity:1;">
  <use xlink:href="#glyph1-1" x="119.151" y="33.802"/>
</g>
<g style="fill:rgb(0%,0%,0%);fill-opacity:1;">
  <use xlink:href="#glyph2-1" x="125.59" y="35.377"/>
</g>
<g style="fill:rgb(0%,0%,0%);fill-opacity:1;">
  <use xlink:href="#glyph3-1" x="132.976" y="33.802"/>
</g>
<g style="fill:rgb(0%,0%,0%);fill-opacity:1;">
  <use xlink:href="#glyph4-1" x="144.059" y="15.847"/>
</g>
<g style="fill:rgb(0%,0%,0%);fill-opacity:1;">
  <use xlink:href="#glyph5-1" x="156.017" y="44.639"/>
</g>
<g style="fill:rgb(0%,0%,0%);fill-opacity:1;">
  <use xlink:href="#glyph1-2" x="185.766" y="33.802"/>
</g>
<g style="fill:rgb(0%,0%,0%);fill-opacity:1;">
  <use xlink:href="#glyph5-1" x="204.433" y="19.127"/>
</g>
<g style="fill:rgb(0%,0%,0%);fill-opacity:1;">
  <use xlink:href="#glyph1-2" x="234.182" y="33.802"/>
</g>
<g style="fill:rgb(0%,0%,0%);fill-opacity:1;">
  <use xlink:href="#glyph5-1" x="252.849" y="44.639"/>
</g>
<g style="fill:rgb(0%,0%,0%);fill-opacity:1;">
  <use xlink:href="#glyph4-2" x="261.598" y="15.847"/>
</g>
<g style="fill:rgb(0%,0%,0%);fill-opacity:1;">
  <use xlink:href="#glyph0-5" x="73.655" y="72.632"/>
  <use xlink:href="#glyph0-2" x="84.155" y="72.632"/>
  <use xlink:href="#glyph0-3" x="94.655" y="72.632"/>
  <use xlink:href="#glyph0-4" x="105.155" y="72.632"/>
</g>
<g style="fill:rgb(0%,0%,0%);fill-opacity:1;">
  <use xlink:href="#glyph1-1" x="119.151" y="72.632"/>
</g>
<g style="fill:rgb(0%,0%,0%);fill-opacity:1;">
  <use xlink:href="#glyph2-2" x="125.59" y="74.207"/>
</g>
<g style="fill:rgb(0%,0%,0%);fill-opacity:1;">
  <use xlink:href="#glyph3-1" x="132.976" y="72.632"/>
</g>
<g style="fill:rgb(0%,0%,0%);fill-opacity:1;">
  <use xlink:href="#glyph4-1" x="144.059" y="54.676"/>
</g>
<path style="fill:none;stroke-width:0.3985;stroke-linecap:butt;stroke-linejoin:miter;stroke:rgb(0%,0%,0%);stroke-opacity:1;stroke-miterlimit:10;" d="M -2.136625 13.307781 L -12.593656 -4.8055 " transform="matrix(1,0,0,-1,170.746,72.632)"/>
<g style="fill:rgb(0%,0%,0%);fill-opacity:1;">
  <use xlink:href="#glyph1-2" x="174.246" y="72.632"/>
</g>
<path style="fill:none;stroke-width:0.3985;stroke-linecap:butt;stroke-linejoin:miter;stroke:rgb(0%,0%,0%);stroke-opacity:1;stroke-miterlimit:10;" d="M 12.591906 -4.8055 L 2.134875 13.307781 " transform="matrix(1,0,0,-1,182.412,72.632)"/>
<g style="fill:rgb(0%,0%,0%);fill-opacity:1;">
  <use xlink:href="#glyph1-2" x="200.64" y="72.632"/>
</g>
<path style="fill:none;stroke-width:0.3985;stroke-linecap:butt;stroke-linejoin:miter;stroke:rgb(0%,0%,0%);stroke-opacity:1;stroke-miterlimit:10;" d="M -11.032094 -8.504719 L 11.030406 -8.504719 " transform="matrix(1,0,0,-1,223.536,72.632)"/>
<g style="fill:rgb(0%,0%,0%);fill-opacity:1;">
  <use xlink:href="#glyph4-2" x="241.764" y="54.676"/>
</g>
<g style="fill:rgb(0%,0%,0%);fill-opacity:1;">
  <use xlink:href="#glyph0-6" x="73.655" y="108.465"/>
  <use xlink:href="#glyph0-2" x="84.155" y="108.465"/>
  <use xlink:href="#glyph0-3" x="94.655" y="108.465"/>
  <use xlink:href="#glyph0-4" x="105.155" y="108.465"/>
</g>
<g style="fill:rgb(0%,0%,0%);fill-opacity:1;">
  <use xlink:href="#glyph1-1" x="119.151" y="108.465"/>
</g>
<g style="fill:rgb(0%,0%,0%);fill-opacity:1;">
  <use xlink:href="#glyph2-3" x="125.59" y="110.04"/>
</g>
<g style="fill:rgb(0%,0%,0%);fill-opacity:1;">
  <use xlink:href="#glyph3-1" x="132.976" y="108.465"/>
</g>
<g clip-path="url(#clip1)" clip-rule="nonzero">
<g style="fill:rgb(0%,0%,0%);fill-opacity:1;">
  <use xlink:href="#glyph4-1" x="144.059" y="90.51"/>
</g>
</g>
<path style=" stroke:none;fill-rule:nonzero;fill:rgb(69.999695%,69.999695%,100%);fill-opacity:1;" d="M 152.515625 115.253906 L 181.976562 115.253906 L 167.246094 89.742188 Z M 152.515625 115.253906 "/>
<g clip-path="url(#clip2)" clip-rule="nonzero">
<g style="fill:rgb(0%,0%,0%);fill-opacity:1;">
  <use xlink:href="#glyph4-2" x="181.976" y="90.51"/>
</g>
</g>
</g>
</svg>
