<?xml version="1.0" encoding="UTF-8" standalone="no"?>
<!-- Created with Inkscape (http://www.inkscape.org/) -->

<svg
   version="1.1"
   id="svg1"
   width="207.62666"
   height="120.16"
   viewBox="0 0 207.62666 120.16"
   sodipodi:docname="upload_vbq7czekx3rodpm4g3xrf2xri5.pdf"
   xmlns:inkscape="http://www.inkscape.org/namespaces/inkscape"
   xmlns:sodipodi="http://sodipodi.sourceforge.net/DTD/sodipodi-0.dtd"
   xmlns="http://www.w3.org/2000/svg"
   xmlns:svg="http://www.w3.org/2000/svg">
  <defs
     id="defs1" />
  <sodipodi:namedview
     id="namedview1"
     pagecolor="#ffffff"
     bordercolor="#000000"
     borderopacity="0.25"
     inkscape:showpageshadow="2"
     inkscape:pageopacity="0.0"
     inkscape:pagecheckerboard="0"
     inkscape:deskcolor="#d1d1d1">
    <inkscape:page
       x="0"
       y="0"
       inkscape:label="1"
       id="page1"
       width="207.62666"
       height="120.16"
       margin="0"
       bleed="0" />
  </sodipodi:namedview>
  <g
     id="g1"
     inkscape:groupmode="layer"
     inkscape:label="1">
    <path
       id="path1"
       d="m 1.8758672,-1.2082031 c -0.4101563,0.70312497 -0.8203125,0.85546872 -1.28906251,0.87890622 -0.12890625,0.0117188 -0.22265625,0.0117188 -0.22265625,0.2109375 0,0.0703125 0.0585938,0.1171875 0.140625,0.1171875 0.28125,0 0.60937496,-0.03515625 0.90234376,-0.03515625 0.3515625,0 0.7148437,0.03515625 1.0546875,0.03515625 0.058594,0 0.1992187,0 0.1992187,-0.19921875 0,-0.1171875 -0.09375,-0.12890625 -0.1757812,-0.12890625 -0.234375,-0.0234375 -0.4921875,-0.10546875 -0.4921875,-0.36328125 0,-0.12890625 0.070312,-0.24609375 0.1523437,-0.38671877 l 0.796875,-1.3476562 h 2.6367188 c 0.023437,0.2226562 0.1640625,1.65234372 0.1640625,1.75781247 0,0.31640625 -0.5390625,0.33984375 -0.75,0.33984375 -0.1523438,0 -0.2578125,0 -0.2578125,0.2109375 0,0.1171875 0.1289062,0.1171875 0.1523437,0.1171875 0.421875,0 0.8789063,-0.03515625 1.3125,-0.03515625 0.2578125,0 0.9140625,0.03515625 1.1835938,0.03515625 0.058594,0 0.1875,0 0.1875,-0.2109375 0,-0.1171875 -0.1054688,-0.1171875 -0.2460938,-0.1171875 -0.6445312,0 -0.6445312,-0.0703125 -0.6796875,-0.375 L 6.0125859,-7.2667969 c -0.023437,-0.2109375 -0.023437,-0.2578125 -0.2109375,-0.2578125 -0.1640625,0 -0.1992187,0.082031 -0.2695312,0.1875 z m 1.265625,-1.546875 2.0625,-3.4570313 0.3398437,3.4570313 z m 0,0"
       style="fill:#000000;fill-opacity:1;fill-rule:nonzero;stroke:none"
       aria-label="A"
       transform="matrix(1.3333333,0,0,1.3333333,7.284,28.4)" />
    <path
       id="path2"
       d="m 1.6770391,-0.82148438 c -0.1054688,0.41015625 -0.1171875,0.4921875 -0.94921879,0.4921875 -0.17578125,0 -0.28125,0 -0.28125,0.2109375 0,0.1171875 0.09375,0.1171875 0.28125,0.1171875 H 4.4778203 c 1.6523438,0 2.8945313,-1.24218752 2.8945313,-2.27343752 0,-0.75 -0.609375,-1.359375 -1.6289063,-1.4765625 1.0898438,-0.1992187 2.1914063,-0.9726562 2.1914063,-1.96875 0,-0.7851562 -0.6914063,-1.453125 -1.9453125,-1.453125 H 2.4621953 c -0.1992187,0 -0.3046875,0 -0.3046875,0.2109375 0,0.1171875 0.09375,0.1171875 0.2929688,0.1171875 0.023437,0 0.2226562,0 0.3984375,0.023437 0.1875,0.011719 0.28125,0.023437 0.28125,0.1640625 0,0.046875 -0.011719,0.070312 -0.046875,0.1992188 z m 1.59375,-3.02343752 0.6445312,-2.6015625 c 0.09375,-0.375 0.1171875,-0.3984375 0.5742188,-0.3984375 h 1.3476562 c 0.9257813,0 1.1484375,0.6210938 1.1484375,1.078125 0,0.9257813 -0.9023437,1.921875 -2.1914062,1.921875 z m -0.4804688,3.51562502 c -0.140625,0 -0.1640625,0 -0.2226562,-0.0117188 -0.1054688,-0.0117188 -0.140625,-0.0117188 -0.140625,-0.10546875 0,-0.0234375 0,-0.046875 0.046875,-0.234375 L 3.2004766,-3.6105469 h 1.9921875 c 1.0078125,0 1.2070312,0.7734375 1.2070312,1.2304688 0,1.03125 -0.9375,2.05078122 -2.1796875,2.05078122 z m 0,0"
       style="fill:#000000;fill-opacity:1;fill-rule:nonzero;stroke:none"
       aria-label="B"
       transform="matrix(1.3333333,0,0,1.3333333,98.150667,28.4)" />
    <path
       id="path3"
       d="m 1.8739531,-1.2082031 c -0.4101562,0.70312497 -0.8203125,0.85546872 -1.28906247,0.87890622 -0.12890625,0.0117188 -0.22265625,0.0117188 -0.22265625,0.2109375 0,0.0703125 0.0585938,0.1171875 0.140625,0.1171875 0.28125,0 0.60937502,-0.03515625 0.90234372,-0.03515625 0.3515625,0 0.7148438,0.03515625 1.0546875,0.03515625 0.058594,0 0.1992188,0 0.1992188,-0.19921875 0,-0.1171875 -0.09375,-0.12890625 -0.1757813,-0.12890625 -0.234375,-0.0234375 -0.4921875,-0.10546875 -0.4921875,-0.36328125 0,-0.12890625 0.070312,-0.24609375 0.1523438,-0.38671877 l 0.796875,-1.3476562 h 2.6367187 c 0.023437,0.2226562 0.1640625,1.65234372 0.1640625,1.75781247 0,0.31640625 -0.5390625,0.33984375 -0.75,0.33984375 -0.1523437,0 -0.2578125,0 -0.2578125,0.2109375 0,0.1171875 0.1289063,0.1171875 0.1523438,0.1171875 0.421875,0 0.8789062,-0.03515625 1.3125,-0.03515625 0.2578125,0 0.9140625,0.03515625 1.1835937,0.03515625 0.058594,0 0.1875,0 0.1875,-0.2109375 0,-0.1171875 -0.1054687,-0.1171875 -0.2460937,-0.1171875 -0.6445313,0 -0.6445313,-0.0703125 -0.6796875,-0.375 L 6.0106719,-7.2667969 c -0.023437,-0.2109375 -0.023437,-0.2578125 -0.2109375,-0.2578125 -0.1640625,0 -0.1992188,0.082031 -0.2695313,0.1875 z m 1.265625,-1.546875 2.0625,-3.4570313 0.3398438,3.4570313 z m 0,0"
       style="fill:#000000;fill-opacity:1;fill-rule:nonzero;stroke:none"
       aria-label="A"
       transform="matrix(1.3333333,0,0,1.3333333,189.83733,28.4)" />
    <path
       id="path4"
       d="m 5.0982813,-4.31175 -0.890625,-2.0976562 c -0.023437,-0.082031 -0.046875,-0.1171875 -0.046875,-0.1289063 0,-0.070312 0.1757812,-0.2695312 0.6210937,-0.3046875 0.1054688,-0.011719 0.2109375,-0.023437 0.2109375,-0.1992187 0,-0.1289063 -0.1289062,-0.1289063 -0.1640625,-0.1289063 -0.4335937,0 -0.8789062,0.035156 -1.3242187,0.035156 -0.2578125,0 -0.9140625,-0.035156 -1.171875,-0.035156 -0.058594,0 -0.1875,0 -0.1875,0.2109375 0,0.1171875 0.1054687,0.1171875 0.234375,0.1171875 0.6328125,0 0.703125,0.1054688 0.796875,0.328125 L 4.406875,-3.5851875 2.1920313,-1.1945625 2.063125,-1.077375 c -0.515625,0.55078125 -1.0078125,0.7265625 -1.546875,0.75 -0.140625,0.0117188 -0.234375,0.0117188 -0.234375,0.2109375 0,0.0117188 0,0.1171875 0.140625,0.1171875 0.31640625,0 0.65625,-0.03515625 0.984375,-0.03515625 0.3867188,0 0.796875,0.03515625 1.171875,0.03515625 0.070312,0 0.1992188,0 0.1992188,-0.2109375 0,-0.10546875 -0.1054688,-0.1171875 -0.1289063,-0.1171875 -0.09375,-0.0117188 -0.421875,-0.0234375 -0.421875,-0.328125 0,-0.1640625 0.1523438,-0.328125 0.28125,-0.46875 l 1.078125,-1.1367187 0.9375,-1.0195313 1.0664063,2.5078125 c 0.035156,0.1171875 0.046875,0.1171875 0.046875,0.140625 0,0.0820313 -0.1992188,0.26953125 -0.609375,0.3046875 -0.1171875,0.0117188 -0.2109375,0.0234375 -0.2109375,0.19921875 0,0.12890625 0.1171875,0.12890625 0.1640625,0.12890625 0.2929687,0 1.03125,-0.03515625 1.3242187,-0.03515625 0.2578125,0 0.9023438,0.03515625 1.1601563,0.03515625 0.070312,0 0.1992187,0 0.1992187,-0.19921875 0,-0.12890625 -0.1054687,-0.12890625 -0.1875,-0.12890625 C 6.7740625,-0.33909375 6.750625,-0.36253125 6.5748438,-0.78440625 6.1646875,-1.7687812 5.4615625,-3.3976875 5.2154688,-4.0305 5.9303125,-4.7687812 7.031875,-6.0109687 7.3717188,-6.3039375 7.6764063,-6.56175 8.0748438,-6.8195625 8.7076563,-6.843 c 0.1289062,-0.011719 0.2226562,-0.011719 0.2226562,-0.2109375 0,-0.011719 0,-0.1171875 -0.1289062,-0.1171875 -0.3164063,0 -0.6679688,0.035156 -0.984375,0.035156 -0.3984375,0 -0.796875,-0.035156 -1.171875,-0.035156 -0.058594,0 -0.1992188,0 -0.1992188,0.2109375 0,0.070312 0.058594,0.1054688 0.1289063,0.1171875 0.09375,0.011719 0.421875,0.023437 0.421875,0.328125 0,0.140625 -0.1171875,0.28125 -0.1992188,0.375 z m 0,0"
       style="fill:#000000;fill-opacity:1;fill-rule:nonzero;stroke:none"
       aria-label="X"
       transform="matrix(1.3333333,0,0,1.3333333,6.1866667,98.624)" />
    <path
       id="path5"
       d="m 6.2690859,-5.9758125 0.140625,-0.140625 C 6.7261172,-6.4328437 7.0776797,-6.796125 7.7925234,-6.843 c 0.1171875,-0.011719 0.2109375,-0.011719 0.2109375,-0.1992187 0,-0.082031 -0.058594,-0.1289063 -0.140625,-0.1289063 -0.2695312,0 -0.5742187,0.035156 -0.8554687,0.035156 -0.3515625,0 -0.7148438,-0.035156 -1.0546875,-0.035156 -0.058594,0 -0.1992188,0 -0.1992188,0.1992188 0,0.1171875 0.1054688,0.1289062 0.1523438,0.1289062 0.082031,0 0.3867187,0.023437 0.3867187,0.234375 0,0.1875 -0.2460937,0.4570313 -0.28125,0.5039063 l -2.4375,2.8125 -1.1601562,-3.1171875 C 2.3550232,-6.56175 2.3550232,-6.5851875 2.3550232,-6.5969062 2.3550232,-6.843 2.8706482,-6.843 2.976117,-6.843 c 0.140625,0 0.2460937,0 0.2460937,-0.2109375 0,-0.1171875 -0.1289062,-0.1171875 -0.1523437,-0.1171875 -0.2929688,0 -1.03125,0.035156 -1.3242188,0.035156 -0.2695312,0 -0.91406246,-0.035156 -1.18359371,-0.035156 -0.0585938,0 -0.19921875,0 -0.19921875,0.2109375 0,0.1171875 0.10546875,0.1171875 0.24609375,0.1171875 0.63281251,0 0.66796871,0.09375 0.76171871,0.3515625 l 1.3007813,3.4570313 c 0,0.035156 0.035156,0.1523437 0.035156,0.1757812 0,0.035156 -0.421875,1.7226563 -0.46875,1.91015625 -0.140625,0.5859375 -0.1523437,0.609375 -0.984375,0.62109375 -0.1992187,0 -0.29296871,0 -0.29296871,0.2109375 0,0.1171875 0.12890621,0.1171875 0.15234371,0.1171875 0.2929688,0 1.03125,-0.03515625 1.3242188,-0.03515625 0.2929687,0 1.0429687,0.03515625 1.3476562,0.03515625 0.070312,0 0.1992188,0 0.1992188,-0.2109375 0,-0.1171875 -0.09375,-0.1171875 -0.3046875,-0.1171875 -0.011719,0 -0.2109375,0 -0.3984375,-0.0234375 -0.2109375,-0.0117188 -0.28125,-0.0351563 -0.28125,-0.1640625 0,-0.0703125 0.09375,-0.4453125 0.1523437,-0.65625 l 0.3632813,-1.4882812 c 0.058594,-0.1992188 0.070312,-0.2226563 0.1523437,-0.3164063 z m 0,0"
       style="fill:#000000;fill-opacity:1;fill-rule:nonzero;stroke:none"
       aria-label="Y"
       transform="matrix(1.3333333,0,0,1.3333333,98.192,98.624)" />
    <path
       id="path6"
       d="m 5.0963672,-4.31175 -0.890625,-2.0976562 c -0.023437,-0.082031 -0.046875,-0.1171875 -0.046875,-0.1289063 0,-0.070312 0.1757812,-0.2695312 0.6210937,-0.3046875 0.1054688,-0.011719 0.2109375,-0.023437 0.2109375,-0.1992187 0,-0.1289063 -0.1289062,-0.1289063 -0.1640625,-0.1289063 -0.4335937,0 -0.8789062,0.035156 -1.3242187,0.035156 -0.2578125,0 -0.9140625,-0.035156 -1.171875,-0.035156 -0.058594,0 -0.1875,0 -0.1875,0.2109375 0,0.1171875 0.1054687,0.1171875 0.234375,0.1171875 0.6328125,0 0.703125,0.1054688 0.796875,0.328125 l 1.2304687,2.9296875 -2.2148437,2.390625 -0.1289063,0.1171875 c -0.515625,0.55078125 -1.0078125,0.7265625 -1.54687496,0.75 -0.140625,0.0117188 -0.234375,0.0117188 -0.234375,0.2109375 0,0.0117188 0,0.1171875 0.140625,0.1171875 0.31640625,0 0.65624996,-0.03515625 0.98437496,-0.03515625 0.3867188,0 0.796875,0.03515625 1.171875,0.03515625 0.070312,0 0.1992188,0 0.1992188,-0.2109375 0,-0.10546875 -0.1054688,-0.1171875 -0.1289063,-0.1171875 -0.09375,-0.0117188 -0.421875,-0.0234375 -0.421875,-0.328125 0,-0.1640625 0.1523438,-0.328125 0.28125,-0.46875 l 1.078125,-1.1367187 0.9375,-1.0195313 1.0664063,2.5078125 c 0.035156,0.1171875 0.046875,0.1171875 0.046875,0.140625 0,0.0820313 -0.1992188,0.26953125 -0.609375,0.3046875 -0.1171875,0.0117188 -0.2109375,0.0234375 -0.2109375,0.19921875 0,0.12890625 0.1171875,0.12890625 0.1640625,0.12890625 0.2929687,0 1.03125,-0.03515625 1.3242187,-0.03515625 0.2578125,0 0.9023438,0.03515625 1.1601563,0.03515625 0.070312,0 0.1992187,0 0.1992187,-0.19921875 0,-0.12890625 -0.1054687,-0.12890625 -0.1875,-0.12890625 C 6.7721484,-0.33909375 6.7487109,-0.36253125 6.5729297,-0.78440625 6.1627734,-1.7687812 5.4596484,-3.3976875 5.2135547,-4.0305 5.9283984,-4.7687812 7.0299609,-6.0109687 7.3698047,-6.3039375 7.6744922,-6.56175 8.0729297,-6.8195625 8.7057422,-6.843 c 0.1289062,-0.011719 0.2226562,-0.011719 0.2226562,-0.2109375 0,-0.011719 0,-0.1171875 -0.1289062,-0.1171875 -0.3164063,0 -0.6679688,0.035156 -0.984375,0.035156 -0.3984375,0 -0.796875,-0.035156 -1.171875,-0.035156 -0.058594,0 -0.1992188,0 -0.1992188,0.2109375 0,0.070312 0.058594,0.1054688 0.1289063,0.1171875 0.09375,0.011719 0.421875,0.023437 0.421875,0.328125 0,0.140625 -0.1171875,0.28125 -0.1992188,0.375 z m 0,0"
       style="fill:#000000;fill-opacity:1;fill-rule:nonzero;stroke:none"
       aria-label="X"
       transform="matrix(1.3333333,0,0,1.3333333,188.74,98.624)" />
    <path
       id="path7"
       d="M -59.79633,25.37202 H -9.3904"
       style="fill:none;stroke:#000000;stroke-width:0.41998;stroke-linecap:butt;stroke-linejoin:miter;stroke-miterlimit:10;stroke-dasharray:none;stroke-opacity:1"
       transform="matrix(1.3333333,0,0,-1.3333333,103.81333,58.728)" />
    <path
       id="path8"
       d="M -2.18391,2.51988 C -1.78491,1.00793 -0.8958,0.29398 0,0 -0.8958,-0.29398 -1.78491,-1.00793 -2.18391,-2.51988"
       style="fill:none;stroke:#000000;stroke-width:0.41998;stroke-linecap:round;stroke-linejoin:round;stroke-miterlimit:10;stroke-dasharray:none;stroke-opacity:1"
       transform="matrix(1.3333333,0,0,-1.3333333,91.5728,24.89864)" />
    <path
       id="path9"
       d="m -59.79633,28.98631 c 41.85816,5.97765 77.7345,5.97765 119.17691,0.05936"
       style="fill:none;stroke:#000000;stroke-width:0.41998;stroke-linecap:butt;stroke-linejoin:miter;stroke-miterlimit:10;stroke-dasharray:none;stroke-opacity:1"
       transform="matrix(1.3333333,0,0,-1.3333333,103.81333,58.728)" />
    <path
       id="path10"
       d="M -2.18391,2.51988 C -1.78491,1.00793 -0.8958,0.29398 0,0 -0.8958,-0.29398 -1.78491,-1.00793 -2.18391,-2.51988"
       style="fill:none;stroke:#000000;stroke-width:0.41998;stroke-linecap:round;stroke-linejoin:round;stroke-miterlimit:10;stroke-dasharray:none;stroke-opacity:1"
       transform="matrix(1.31988,0.18845333,0.18845333,-1.31988,183.26461,20.040013)" />
    <g
       id="g10"
       aria-label="id&#10;A"
       transform="matrix(1.3333333,0,0,1.3333333,95.605333,9.4693333)">
      <path
         id="path11"
         d="m 1.9102578,-4.375e-4 v -0.24609375 c -0.3984375,0 -0.46875,0 -0.46875,-0.29296875 v -2.53125 l -1.03124999,0.070312 v 0.2578125 c 0.4453125,0 0.50390625,0.035156 0.50390625,0.375 v 1.81640625 c 0,0.3046875 -0.0703125,0.3046875 -0.52734375,0.3046875 V -4.375e-4 c 0,0 0.50390625,-0.0234375 0.78515629,-0.0234375 0.2460937,0 0.4921875,0 0.7382812,0.0234375 z M 1.5235391,-4.19575 c 0,-0.2226562 -0.1757813,-0.4101562 -0.3984375,-0.4101562 -0.23437504,0 -0.39843754,0.1992187 -0.39843754,0.3984375 0,0.2226562 0.17578125,0.4101562 0.39843754,0.4101562 0.2460937,0 0.3984375,-0.1992187 0.3984375,-0.3984375 z m 4.7841796,4.1953125 v -0.24609375 c -0.46875,0 -0.5273437,-0.0585937 -0.5273437,-0.3984375 V -4.8402812 L 4.7374062,-4.75825 v 0.2460938 c 0.46875,0 0.515625,0.046875 0.515625,0.3867187 v 1.453125 C 4.9952187,-2.930125 4.6670937,-3.07075 4.280375,-3.07075 c -0.9257813,0 -1.7109375,0.6914063 -1.7109375,1.5703125 0,0.8671875 0.7382812,1.5703125 1.6289062,1.5703125 0.5742188,0 0.9140625,-0.3046875 1.03125,-0.43359375 V 0.069875 Z M 5.2295937,-0.727 C 5.0538125,-0.41059375 4.6905312,-0.12934375 4.2452187,-0.12934375 3.8467812,-0.12934375 3.5655312,-0.352 3.436625,-0.5629375 3.296,-0.76215625 3.2139687,-1.0434062 3.2139687,-1.4887187 c 0,-0.1640625 0,-0.6914063 0.28125,-1.0195313 0.28125,-0.3046875 0.6210938,-0.375 0.8203125,-0.375 0.3398438,0 0.6328125,0.1523438 0.8320313,0.4101563 0.082031,0.1054687 0.082031,0.1171875 0.082031,0.2460937 z m 0,0"
         style="fill:#000000;fill-opacity:1;fill-rule:nonzero;stroke:none" />
      <path
         id="path12"
         d="m 10.274516,-2.4320781 c -0.02344,-0.1054688 -0.03516,-0.1289063 -0.152344,-0.1289063 -0.117188,0 -0.1523439,0.035156 -0.1992189,0.1054688 L 7.9776406,0.38042188 c -0.2109375,0.3046875 -0.3867187,0.38671875 -0.7148437,0.3984375 -0.09375,0 -0.09375,0.12890625 -0.09375,0.140625 0,0.0703125 0.058594,0.0820312 0.082031,0.0820312 0.070312,0 0.1523438,-0.0117187 0.2226563,-0.0117187 0.082031,0 0.1757812,-0.0117188 0.2578125,-0.0117188 0.09375,0 0.1875,0.0117188 0.2695312,0.0117188 0.09375,0 0.1992188,0.0117187 0.28125,0.0117187 0.035156,0 0.1289063,0 0.1289063,-0.14062499 0,-0.0820313 -0.082031,-0.0820313 -0.09375,-0.0820313 -0.046875,0 -0.234375,-0.0117188 -0.234375,-0.12890625 0,-0.0585938 0.058594,-0.15234375 0.09375,-0.19921875 l 0.3632812,-0.52734375 c 0.023437,-0.03515625 0.023437,-0.03515625 0.1171875,-0.03515625 h 1.5117191 c 0.01172,0.05859375 0.01172,0.08203125 0.03516,0.140625 0.01172,0.09375 0.105469,0.5859375 0.105469,0.64453125 0,0.10546875 -0.304688,0.10546875 -0.3398441,0.10546875 -0.070312,0 -0.1523437,0 -0.1523437,0.140625 0,0.046875 0.035156,0.0820312 0.09375,0.0820312 0.1054688,0 0.2226568,-0.0117187 0.3281248,-0.0117187 0.128907,0 0.234375,-0.0117188 0.363282,-0.0117188 0.105468,0 0.210937,0.0117188 0.316406,0.0117188 0.09375,0 0.210937,0.0117187 0.316406,0.0117187 0.08203,0 0.117188,-0.0585937 0.117188,-0.14062496 0,-0.0820313 -0.08203,-0.0820313 -0.152344,-0.0820313 -0.328125,0 -0.328125,-0.0351563 -0.351563,-0.140625 z m -0.4453129,0.4804687 0.3046879,1.61718753 H 8.7159219 Z m 0,0"
         style="fill:#000000;fill-opacity:1;fill-rule:nonzero;stroke:none" />
    </g>
    <path
       id="path13"
       d="M -68.45868,18.70099 V -18.28102"
       style="fill:none;stroke:#000000;stroke-width:0.41998;stroke-linecap:butt;stroke-linejoin:miter;stroke-miterlimit:10;stroke-dasharray:none;stroke-opacity:1"
       transform="matrix(1.3333333,0,0,-1.3333333,103.81333,58.728)" />
    <path
       id="path14"
       d="M -2.18391,2.51988 C -1.78491,1.00793 -0.8958,0.29398 0,0 -0.8958,-0.29398 -1.78491,-1.00793 -2.18391,-2.51988"
       style="fill:none;stroke:#000000;stroke-width:0.41998;stroke-linecap:round;stroke-linejoin:round;stroke-miterlimit:10;stroke-dasharray:none;stroke-opacity:1"
       transform="matrix(0,1.3333333,1.3333333,0,12.535093,83.38268)" />
    <path
       id="path15"
       d="m 2.8356562,-2.7548203 h 0.6796875 c 0.140625,0 0.234375,0 0.234375,-0.1523438 0,-0.09375 -0.09375,-0.09375 -0.2109375,-0.09375 h -0.65625 c 0.1640625,-0.890625 0.2226563,-1.2070312 0.28125,-1.4179687 0.035156,-0.1523438 0.1875,-0.2929688 0.3515625,-0.2929688 0,0 0.1992188,0 0.328125,0.082031 -0.2929687,0.09375 -0.3046875,0.3398437 -0.3046875,0.3867187 0,0.1523438 0.1171875,0.2578125 0.2695313,0.2578125 0.1992187,0 0.3984375,-0.1640625 0.3984375,-0.4335937 0,-0.3164063 -0.3398438,-0.4921875 -0.6914063,-0.4921875 -0.3046875,0 -0.6445312,0.1757812 -0.84375,0.5273437 -0.1289062,0.2578125 -0.1875,0.5742188 -0.3398437,1.3828125 H 1.7809687 c -0.140625,0 -0.2226562,0 -0.2226562,0.1523438 0,0.09375 0.082031,0.09375 0.2109375,0.09375 h 0.515625 c 0,0.046875 -0.4453125,2.55468749 -0.609375,3.29296874 -0.035156,0.1640625 -0.1523438,0.69140626 -0.4921875,0.69140626 0,0 -0.1757813,0 -0.3046875,-0.082031 0.28125,-0.09375 0.3046875,-0.35156246 0.3046875,-0.38671871 0,-0.15234375 -0.1171875,-0.2578125 -0.28125,-0.2578125 -0.1875,0 -0.3984375,0.1640625 -0.3984375,0.421875 0,0.31640621 0.328125,0.49218751 0.6796875,0.49218751 0.4453125,0 0.75,-0.45703126 0.84375,-0.60937501 0.2460937,-0.46875 0.4101562,-1.32421875 0.421875,-1.40625 z m 0,0"
       style="fill:#000000;fill-opacity:1;fill-rule:nonzero;stroke:none"
       aria-label="f"
       transform="matrix(1.3333333,0,0,1.3333333,3.016,61.052)" />
    <path
       id="path16"
       d="M 8.97043,25.37202 H 59.37636"
       style="fill:none;stroke:#000000;stroke-width:0.41998;stroke-linecap:butt;stroke-linejoin:miter;stroke-miterlimit:10;stroke-dasharray:none;stroke-opacity:1"
       transform="matrix(1.3333333,0,0,-1.3333333,103.81333,58.728)" />
    <path
       id="path17"
       d="M -2.18391,2.51988 C -1.78491,1.00793 -0.8958,0.29398 0,0 -0.8958,-0.29398 -1.78491,-1.00793 -2.18391,-2.51988"
       style="fill:none;stroke:#000000;stroke-width:0.41998;stroke-linecap:round;stroke-linejoin:round;stroke-miterlimit:10;stroke-dasharray:none;stroke-opacity:1"
       transform="matrix(1.3333333,0,0,-1.3333333,183.26177,24.89864)" />
    <path
       id="path18"
       d="M 0,18.70099 V -18.28102"
       style="fill:none;stroke:#000000;stroke-width:0.41998;stroke-linecap:butt;stroke-linejoin:miter;stroke-miterlimit:10;stroke-dasharray:none;stroke-opacity:1"
       transform="matrix(1.3333333,0,0,-1.3333333,103.81333,58.728)" />
    <path
       id="path19"
       d="M -2.18391,2.51988 C -1.78491,1.00793 -0.8958,0.29398 0,0 -0.8958,-0.29398 -1.78491,-1.00793 -2.18391,-2.51988"
       style="fill:none;stroke:#000000;stroke-width:0.41998;stroke-linecap:round;stroke-linejoin:round;stroke-miterlimit:10;stroke-dasharray:none;stroke-opacity:1"
       transform="matrix(0,1.3333333,1.3333333,0,103.81333,83.38268)" />
    <path
       id="path20"
       d="m -4.33125,-4.44211 h 8.6625 v 8.88422 h -8.6625 z"
       style="fill:#ffffff;fill-opacity:1;fill-rule:nonzero;stroke:none"
       transform="matrix(1.3333333,0,0,-1.3333333,103.81333,58.728)" />
    <path
       id="path21"
       d="m 3.7138594,-2.5789609 c 0.023437,-0.09375 0.023437,-0.1289063 0.023437,-0.140625 0,-0.1523438 -0.1289063,-0.2226563 -0.234375,-0.2226563 -0.1640625,0 -0.2929688,0.1289063 -0.328125,0.2695313 -0.1171875,-0.1992188 -0.3515625,-0.3984375 -0.7148438,-0.3984375 -0.8671875,0 -1.78124998,0.9257812 -1.78124998,1.921875 0,0.72656246 0.48046878,1.1484374625 1.05468748,1.1484374625 0.328125,0 0.6328125,-0.1640625025 0.8789063,-0.3750000025 L 2.4482344,0.24525781 C 2.3779219,0.53822656 2.3310469,0.72572656 2.0615156,0.97182031 1.7568281,1.2296328 1.4521406,1.2296328 1.2763594,1.2296328 c -0.31640628,0 -0.41015628,-0.023437 -0.52734378,-0.046875 0.17578125,-0.09375 0.22265625,-0.25781249 0.22265625,-0.35156249 0,-0.1640625 -0.140625,-0.2578125 -0.26953125,-0.2578125 -0.19921875,0 -0.3984375,0.15234375 -0.3984375,0.421875 0,0.42187499 0.59765625,0.42187499 0.98437498,0.42187499 1.0898438,0 1.5585938,-0.55078124 1.6640625,-0.94921874 z m -0.9726563,1.65234371 c -0.023437,0.10546875 -0.023437,0.1171875 -0.140625,0.2578125 -0.2460937,0.29296875 -0.5742187,0.46875 -0.84375,0.46875 -0.3515625,0 -0.5273437,-0.29296875 -0.5273437,-0.65625 0,-0.30468751 0.1875,-1.08984371 0.375,-1.39453121 0.2929687,-0.4921875 0.6210937,-0.6328125 0.8554687,-0.6328125 0.4921875,0 0.6210938,0.5273437 0.6210938,0.5976562 0,0.011719 0,0.023437 -0.023437,0.1054688 z m 0,0"
       style="fill:#000000;fill-opacity:1;fill-rule:nonzero;stroke:none"
       aria-label="g"
       transform="matrix(1.3333333,0,0,1.3333333,101.056,59.825333)" />
    <path
       id="path22"
       d="M 68.45868,18.70099 V -18.28102"
       style="fill:none;stroke:#000000;stroke-width:0.41998;stroke-linecap:butt;stroke-linejoin:miter;stroke-miterlimit:10;stroke-dasharray:none;stroke-opacity:1"
       transform="matrix(1.3333333,0,0,-1.3333333,103.81333,58.728)" />
    <path
       id="path23"
       d="M -2.18391,2.51988 C -1.78491,1.00793 -0.8958,0.29398 0,0 -0.8958,-0.29398 -1.78491,-1.00793 -2.18391,-2.51988"
       style="fill:none;stroke:#000000;stroke-width:0.41998;stroke-linecap:round;stroke-linejoin:round;stroke-miterlimit:10;stroke-dasharray:none;stroke-opacity:1"
       transform="matrix(0,1.3333333,1.3333333,0,195.09157,83.38268)" />
    <path
       id="path24"
       d="m 2.8349766,-2.7548203 h 0.6796875 c 0.140625,0 0.234375,0 0.234375,-0.1523438 0,-0.09375 -0.09375,-0.09375 -0.2109375,-0.09375 h -0.65625 c 0.1640625,-0.890625 0.2226562,-1.2070312 0.28125,-1.4179687 0.035156,-0.1523438 0.1875,-0.2929688 0.3515625,-0.2929688 0,0 0.1992187,0 0.328125,0.082031 -0.2929688,0.09375 -0.3046875,0.3398437 -0.3046875,0.3867187 0,0.1523438 0.1171875,0.2578125 0.2695312,0.2578125 0.1992188,0 0.3984375,-0.1640625 0.3984375,-0.4335937 0,-0.3164063 -0.3398437,-0.4921875 -0.6914062,-0.4921875 -0.3046875,0 -0.6445313,0.1757812 -0.84375,0.5273437 -0.1289063,0.2578125 -0.1875,0.5742188 -0.3398438,1.3828125 H 1.7802891 c -0.140625,0 -0.2226563,0 -0.2226563,0.1523438 0,0.09375 0.082031,0.09375 0.2109375,0.09375 h 0.515625 c 0,0.046875 -0.4453125,2.55468749 -0.609375,3.29296874 -0.035156,0.1640625 -0.1523437,0.69140626 -0.4921875,0.69140626 0,0 -0.1757812,0 -0.30468749,-0.082031 0.28124999,-0.09375 0.30468749,-0.35156246 0.30468749,-0.38671871 0,-0.15234375 -0.1171875,-0.2578125 -0.28124999,-0.2578125 -0.1875,0 -0.3984375,0.1640625 -0.3984375,0.421875 0,0.31640621 0.328125,0.49218751 0.67968749,0.49218751 0.4453125,0 0.75,-0.45703126 0.84375,-0.60937501 0.2460938,-0.46875 0.4101563,-1.32421875 0.421875,-1.40625 z m 0,0"
       style="fill:#000000;fill-opacity:1;fill-rule:nonzero;stroke:none"
       aria-label="f"
       transform="matrix(1.3333333,0,0,1.3333333,198.388,61.052)" />
    <path
       id="path25"
       d="M -58.97237,-27.29701 H -9.3594"
       style="fill:none;stroke:#000000;stroke-width:0.41998;stroke-linecap:butt;stroke-linejoin:miter;stroke-miterlimit:10;stroke-dasharray:none;stroke-opacity:1"
       transform="matrix(1.3333333,0,0,-1.3333333,103.81333,58.728)" />
    <path
       id="path26"
       d="M -2.18391,2.51988 C -1.78491,1.00793 -0.8958,0.29398 0,0 -0.8958,-0.29398 -1.78491,-1.00793 -2.18391,-2.51988"
       style="fill:none;stroke:#000000;stroke-width:0.41998;stroke-linecap:round;stroke-linejoin:round;stroke-miterlimit:10;stroke-dasharray:none;stroke-opacity:1"
       transform="matrix(1.3333333,0,0,-1.3333333,91.614093,95.124013)" />
    <path
       id="path27"
       d="M -58.97237,-31.01405 C -17.691,-36.9917 17.691,-36.9917 58.55676,-31.07422"
       style="fill:none;stroke:#000000;stroke-width:0.41998;stroke-linecap:butt;stroke-linejoin:miter;stroke-miterlimit:10;stroke-dasharray:none;stroke-opacity:1"
       transform="matrix(1.3333333,0,0,-1.3333333,103.81333,58.728)" />
    <path
       id="path28"
       d="M -2.18391,2.51988 C -1.78491,1.00793 -0.8958,0.29398 0,0 -0.8958,-0.29398 -1.78491,-1.00793 -2.18391,-2.51988"
       style="fill:none;stroke:#000000;stroke-width:0.41998;stroke-linecap:round;stroke-linejoin:round;stroke-miterlimit:10;stroke-dasharray:none;stroke-opacity:1"
       transform="matrix(1.31952,-0.19104,-0.19104,-1.31952,182.16608,100.12017)" />
    <g
       id="g28"
       aria-label="id&#10;Y"
       transform="matrix(1.3333333,0,0,1.3333333,95.385333,115.808)">
      <path
         id="path29"
         d="M 1.9111953,4.453125e-4 V -0.24564844 c -0.3984375,0 -0.46875,0 -0.46875,-0.29296875 V -3.0698672 l -1.03124999,0.070312 v 0.2578125 c 0.4453125,0 0.50390625,0.035156 0.50390625,0.375 v 1.81640626 c 0,0.3046875 -0.0703125,0.3046875 -0.52734375,0.3046875 V 4.453125e-4 c 0,0 0.50390625,-0.0234375025 0.78515629,-0.0234375025 0.2460937,0 0.4921875,0 0.7382812,0.0234375025 z M 1.5244766,-4.1948672 c 0,-0.2226562 -0.1757813,-0.4101562 -0.3984375,-0.4101562 -0.23437504,0 -0.39843754,0.1992187 -0.39843754,0.3984375 0,0.2226562 0.17578125,0.4101562 0.39843754,0.4101562 0.2460937,0 0.3984375,-0.1992187 0.3984375,-0.3984375 z M 6.3086562,4.453125e-4 V -0.24564844 c -0.46875,0 -0.5273437,-0.0585938 -0.5273437,-0.3984375 V -4.8393984 l -1.0429688,0.082031 v 0.2460938 c 0.46875,0 0.515625,0.046875 0.515625,0.3867187 v 1.453125 C 4.9961562,-2.9292422 4.6680312,-3.0698672 4.2813125,-3.0698672 c -0.9257813,0 -1.7109375,0.6914063 -1.7109375,1.5703125 0,0.86718751 0.7382812,1.57031251 1.6289062,1.57031251 0.5742188,0 0.9140625,-0.3046875 1.03125,-0.43359375 V 0.07075781 Z M 5.2305312,-0.72611719 c -0.1757812,0.31640625 -0.5390625,0.59765625 -0.984375,0.59765625 -0.3984375,0 -0.6796875,-0.22265625 -0.8085937,-0.43359375 -0.140625,-0.19921875 -0.2226563,-0.48046871 -0.2226563,-0.92578121 0,-0.1640625 0,-0.6914063 0.28125,-1.0195313 0.28125,-0.3046875 0.6210938,-0.375 0.8203125,-0.375 0.3398438,0 0.6328125,0.1523438 0.8320313,0.4101563 0.082031,0.1054687 0.082031,0.1171875 0.082031,0.2460937 z m 0,0"
         style="fill:#000000;fill-opacity:1;fill-rule:nonzero;stroke:none" />
      <path
         id="path30"
         d="m 10.627016,-1.7749453 0.140625,-0.1171875 c 0.128906,-0.1054688 0.328125,-0.2578125 0.667968,-0.28125 0.07031,-0.011719 0.140625,-0.011719 0.140625,-0.140625 0,-0.070312 -0.05859,-0.082031 -0.07031,-0.082031 -0.07031,0 -0.152344,0.011719 -0.234375,0.011719 -0.07031,0 -0.152344,0 -0.234375,0 0,0 -0.292969,0 -0.292969,0 -0.08203,0 -0.175781,-0.011719 -0.269531,-0.011719 -0.05859,0 -0.117188,0.035156 -0.117188,0.140625 0,0.070312 0.05859,0.082031 0.09375,0.082031 0.128907,0 0.152344,0.035156 0.152344,0.070312 0,0.070312 -0.117187,0.1757812 -0.152344,0.2109375 L 9.1387344,-0.62650781 8.3652969,-2.0444766 c -0.035156,-0.046875 -0.035156,-0.058594 -0.035156,-0.070312 0,-0.058594 0.2226563,-0.058594 0.2578125,-0.058594 0.070312,0 0.1523438,0 0.1523438,-0.140625 0,-0.058594 -0.046875,-0.082031 -0.09375,-0.082031 -0.1054688,0 -0.234375,0.011719 -0.3515625,0.011719 -0.1171875,0 -0.2460938,0 -0.3632813,0 -0.1054687,0 -0.2109375,0 -0.3164062,0 -0.058594,0 -0.3164063,-0.011719 -0.3164063,-0.011719 -0.070312,0 -0.1171875,0.035156 -0.1171875,0.140625 0,0.082031 0.070312,0.082031 0.1523438,0.082031 0.3164062,0 0.3398437,0.035156 0.3984375,0.140625 l 0.9140625,1.67578124 -0.2226563,0.90234375 c -0.058594,0.22265625 -0.082031,0.234375 -0.4570312,0.234375 -0.1171875,0 -0.1875,0 -0.1875,0.140625 0,0.0351563 0.035156,0.0820312 0.082031,0.0820312 0.1054688,0 0.2226563,-0.0117187 0.3398438,-0.0117187 0.1171875,0 0.234375,-0.0117188 0.3515625,-0.0117188 0.1289062,0 0.2460937,0.0117188 0.375,0.0117188 0.1054687,0 0.234375,0.0117187 0.3398437,0.0117187 0.035156,0 0.1171875,0 0.1171875,-0.14062497 0,-0.0820313 -0.070312,-0.0820313 -0.1640625,-0.0820313 -0.011719,0 -0.1289062,0 -0.2109375,-0.0117188 C 8.880922,0.75630473 8.880922,0.75630473 8.880922,0.70942973 c 0,-0.0351563 0,-0.0351563 0.058594,-0.26953125 l 0.1992188,-0.796875 z m 0,0"
         style="fill:#000000;fill-opacity:1;fill-rule:nonzero;stroke:none" />
    </g>
    <path
       id="path31"
       d="M 8.93944,-27.29701 H 58.5524"
       style="fill:none;stroke:#000000;stroke-width:0.41998;stroke-linecap:butt;stroke-linejoin:miter;stroke-miterlimit:10;stroke-dasharray:none;stroke-opacity:1"
       transform="matrix(1.3333333,0,0,-1.3333333,103.81333,58.728)" />
    <path
       id="path32"
       d="M -2.18391,2.51988 C -1.78491,1.00793 -0.8958,0.29398 0,0 -0.8958,-0.29398 -1.78491,-1.00793 -2.18391,-2.51988"
       style="fill:none;stroke:#000000;stroke-width:0.41998;stroke-linecap:round;stroke-linejoin:round;stroke-miterlimit:10;stroke-dasharray:none;stroke-opacity:1"
       transform="matrix(1.3333333,0,0,-1.3333333,182.16319,95.124013)" />
  </g>
</svg>
