<svg width="687" height="243" version="1.1" xmlns="http://www.w3.org/2000/svg" desc="Created with imagetracer.js version 1.2.6" ><path fill="rgb(148,148,169)" stroke="rgb(148,148,169)" stroke-width="1" opacity="1" d="M 413.5 28 L 419 31.5 L 416.5 37 Q 411 38 410 34.5 Q 409 30 411.5 29 L 413.5 28 Z " /><path fill="rgb(148,148,169)" stroke="rgb(148,148,169)" stroke-width="1" opacity="1" d="M 301 31 Q 304 29.8 303 33.5 L 293 63.5 L 303 94 Q 300.3 95.1 301 92.5 L 291 64.5 L 291 60.5 L 301 31 Z " /><path fill="rgb(148,148,169)" stroke="rgb(148,148,169)" stroke-width="1" opacity="1" d="M 526.5 31 L 529 34.5 L 538 63.5 L 528 94 L 525 93.5 L 536 62.5 L 526 34.5 L 526.5 31 Z " /><path fill="rgb(148,148,169)" stroke="rgb(148,148,169)" stroke-width="1" opacity="1" d="M 157 51 Q 160.3 49.9 159 54 L 163.5 54 Q 164.8 51.8 166 54.5 L 159 55 L 159 58 L 164 58 L 164 65 Q 161.3 63.1 154.5 64 L 152 65 L 152 58 L 157 58 L 157 51 Z M 154 59 L 154 63 L 162 63 L 162 59 L 154 59 Z " /><path fill="rgb(148,148,169)" stroke="rgb(148,148,169)" stroke-width="1" opacity="1" d="M 177.5 51 L 180 52.5 L 180.5 54 L 188 54 L 188 56 L 185 57.5 L 187 61 L 180 62 L 180 68 L 185.5 68 Q 186.7 65.7 188 68.5 L 170.5 69 L 170.5 68 L 178 68 L 178 62 Q 173.3 62.9 171 60.5 L 175.5 56 L 177.5 56 L 175.5 59 L 173 60.5 L 184.5 61 L 181.5 57 L 180 56.5 L 181.5 56 L 185 57 L 184.5 55 L 173 55 L 171.5 58 Q 169.3 58.8 170 56.5 L 171 54 L 177.5 54 L 178 52.5 L 177.5 51 Z " /><path fill="rgb(148,148,169)" stroke="rgb(148,148,169)" stroke-width="1" opacity="1" d="M 193.5 51 L 196 52.5 L 195.5 55 Q 194.3 52.7 193 55.5 L 192.5 70 L 191 68.5 L 191 54.5 L 194 53.5 L 193.5 51 Z " /><path fill="rgb(148,148,169)" stroke="rgb(148,148,169)" stroke-width="1" opacity="1" d="M 198.5 52 L 208 52 L 208 68.5 L 205.5 70 L 204.5 68 L 206 67.5 L 206 53 L 198.5 53 L 198.5 52 Z " /><path fill="rgb(148,148,169)" stroke="rgb(148,148,169)" stroke-width="1" opacity="1" d="M 245.5 53 L 250.5 54 L 252.5 53 L 252 54.5 Q 253.3 59.3 250 58 L 248.5 54 Q 244.5 53.5 244 56.5 L 245.5 59 L 250 60 L 251 63.5 L 248.5 67 L 242.5 68 L 240.5 68 Q 238.3 68.8 239 66.5 L 240 63 Q 243 61.8 242 65.5 Q 242.8 67.8 246.5 67 Q 249 65.8 248 62 L 242 59.5 Q 241 55 243.5 54 L 245.5 53 Z " /><path fill="rgb(148,148,169)" stroke="rgb(148,148,169)" stroke-width="1" opacity="1" d="M 196 56 L 204 56.5 L 203 57.5 L 203 66 L 198.5 65 L 196 66 L 196 56 Z M 198 57 Q 197 62 201 60 Q 203 56 198 57 Z M 198 61 Q 197 66 201 64 Q 203 60 198 61 Z " /><path fill="rgb(148,148,169)" stroke="rgb(148,148,169)" stroke-width="1" opacity="1" d="M 213 60 Q 217.5 58.5 216 63 Q 211.5 64.5 213 60 Z " /><path fill="rgb(148,148,169)" stroke="rgb(148,148,169)" stroke-width="1" opacity="1" d="M 267.5 60 L 282 60.5 L 267.5 61 L 267.5 60 Z " /><path fill="rgb(148,148,169)" stroke="rgb(148,148,169)" stroke-width="1" opacity="1" d="M 253.5 61 Q 258.9 59.1 258 62.5 Q 260.3 63.8 259 68.5 L 258 71 Q 253.4 72.3 252 69.5 Q 250.3 62.8 253.5 61 Z M 254 62 L 254 70 L 257 69 L 257 62 L 254 62 Z " /><path fill="rgb(148,148,169)" stroke="rgb(148,148,169)" stroke-width="1" opacity="1" d="M 267.5 64 L 282 64.5 L 267.5 65 L 267.5 64 Z " /><path fill="rgb(148,148,169)" stroke="rgb(148,148,169)" stroke-width="1" opacity="1" d="M 213 65 Q 217.5 63.5 216 68 Q 211.5 69.5 213 65 Z " /><path fill="rgb(148,148,169)" stroke="rgb(148,148,169)" stroke-width="1" opacity="1" d="M 151.5 66 L 152 68.5 L 149.5 70 L 150 68.5 L 151.5 66 Z " /><path fill="rgb(148,148,169)" stroke="rgb(148,148,169)" stroke-width="1" opacity="1" d="M 155.5 66 L 157 70 Q 153.2 71.2 155.5 66 Z " /><path fill="rgb(148,148,169)" stroke="rgb(148,148,169)" stroke-width="1" opacity="1" d="M 159.5 66 Q 164 68 160.5 70 L 159.5 66 Z " /><path fill="rgb(148,148,169)" stroke="rgb(148,148,169)" stroke-width="1" opacity="1" d="M 163.5 66 L 167 68.5 L 165 69.5 L 163.5 66 Z " /><path fill="rgb(148,148,169)" stroke="rgb(148,148,169)" stroke-width="1" opacity="1" d="M 373 66 Q 377.9 64.2 376 70.5 L 374 71.5 L 375 68 Q 372 69 373 66 Z " /><path fill="rgb(148,148,169)" stroke="rgb(148,148,169)" stroke-width="1" opacity="1" d="M 470 66 Q 474.9 64.2 473 70.5 L 470.5 72 L 472 69.5 Q 472.7 66.9 470 68 L 470 66 Z " /><path fill="rgb(148,148,169)" stroke="rgb(148,148,169)" stroke-width="1" opacity="1" d="M 316.5 79 L 321 80 L 322 85.5 Q 321 89 315.5 88 Q 312.3 87.3 313 82.5 L 314 80 L 316.5 79 Z " /><path fill="rgb(148,148,169)" stroke="rgb(148,148,169)" stroke-width="1" opacity="1" d="M 510.5 79 L 516 82.5 L 513.5 88 Q 508 89 507 85.5 Q 506 81 508.5 80 L 510.5 79 Z " /><path fill="rgb(148,148,169)" stroke="rgb(148,148,169)" stroke-width="1" opacity="1" d="M 301 108 Q 304 106.8 303 110.5 L 293 140.5 L 303 171 Q 300.3 172.1 301 169.5 L 291 141.5 L 291 137.5 L 301 108 Z " /><path fill="rgb(148,148,169)" stroke="rgb(148,148,169)" stroke-width="1" opacity="1" d="M 486 108 Q 489 106.8 488 110.5 L 498 138.5 L 498 141.5 L 488 171 Q 484.7 172.3 486 167.5 L 496 139.5 L 486 111.5 L 486 108 Z " /><path fill="rgb(148,148,169)" stroke="rgb(148,148,169)" stroke-width="1" opacity="1" d="M 336 118 Q 338.7 116.9 338 119.5 L 318 155 L 315 154.5 L 336 118 Z " /><path fill="rgb(148,148,169)" stroke="rgb(148,148,169)" stroke-width="1" opacity="1" d="M 369.5 118 L 391 154.5 L 389 155.5 L 368 119.5 L 369.5 118 Z " /><path fill="rgb(148,148,169)" stroke="rgb(148,148,169)" stroke-width="1" opacity="1" d="M 152.5 128 Q 155.3 129.3 153 130.5 L 151 135 L 154 133.5 Q 153.3 130.9 156 132 L 157 134.5 L 154 135.5 L 152 139.5 L 153.5 139 L 156 139.5 L 149 142 Q 148.2 137.7 152 136.5 L 150.5 136 Q 149.3 138.3 148 135.5 L 152.5 128 Z " /><path fill="rgb(148,148,169)" stroke="rgb(148,148,169)" stroke-width="1" opacity="1" d="M 159.5 128 L 161.5 133 L 164 132.5 L 161.5 129 L 165 130 L 166 134 L 161 134 L 161 137 L 166 139.5 L 162 142.5 L 165 144.5 L 166.5 142 L 167 147 Q 162.4 147.6 160.5 144 L 155.5 146 L 155.5 145 L 160 143 L 159 138 L 155 137.5 L 159 137 L 158 129.5 L 159.5 128 Z M 161 138 L 161 141 L 163 140 Q 164 137 161 138 Z " /><path fill="rgb(148,148,169)" stroke="rgb(148,148,169)" stroke-width="1" opacity="1" d="M 177.5 128 L 180 129.5 L 180.5 131 L 188 131 L 188 133 L 185 134.5 L 187 138 L 180 139 L 180 145 L 185.5 145 Q 186.7 142.8 188 145.5 L 170.5 146 L 170.5 145 L 178 145 L 178 139 Q 173.3 139.9 171 137.5 L 175.5 133 L 177.5 133 L 175.5 136 L 173 137.5 L 184.5 138 L 181.5 134 L 180 133.5 L 181.5 133 L 185 134 L 184.5 132 L 173 132 L 171.5 135 Q 169.3 135.8 170 133.5 L 171 131 L 177.5 131 L 178 129.5 L 177.5 128 Z " /><path fill="rgb(148,148,169)" stroke="rgb(148,148,169)" stroke-width="1" opacity="1" d="M 193.5 128 L 196 129.5 L 195.5 132 Q 194.3 129.8 193 132.5 L 192.5 147 L 191 145.5 L 191 131.5 L 194 130.5 L 193.5 128 Z " /><path fill="rgb(148,148,169)" stroke="rgb(148,148,169)" stroke-width="1" opacity="1" d="M 198.5 129 L 208 129 L 208 145.5 L 205.5 147 L 204.5 145 L 206 144.5 L 206 130 L 198.5 130 L 198.5 129 Z " /><path fill="rgb(148,148,169)" stroke="rgb(148,148,169)" stroke-width="1" opacity="1" d="M 245.5 130 L 250.5 131 L 252.5 130 L 252 131.5 Q 253.3 136.3 250 135 L 248.5 131 Q 244.5 130.5 244 133.5 L 245.5 136 L 250 137 L 251 140.5 L 248.5 144 L 242.5 145 L 240.5 145 Q 238.3 145.8 239 143.5 L 240 140 Q 243 138.8 242 142.5 Q 242.8 144.8 246.5 144 Q 249 142.8 248 139 L 242 136.5 Q 241 132 243.5 131 L 245.5 130 Z " /><path fill="rgb(148,148,169)" stroke="rgb(148,148,169)" stroke-width="1" opacity="1" d="M 196 133 L 204 133.5 L 203 134.5 L 203 143 L 198.5 142 L 196 143 L 196 133 Z M 198 134 Q 197 139 201 137 Q 203 133 198 134 Z M 198 138 Q 197 143 201 141 Q 203 137 198 138 Z " /><path fill="rgb(148,148,169)" stroke="rgb(148,148,169)" stroke-width="1" opacity="1" d="M 164.5 136 L 167 136.5 L 164.5 137 L 164.5 136 Z " /><path fill="rgb(148,148,169)" stroke="rgb(148,148,169)" stroke-width="1" opacity="1" d="M 213 137 Q 217.5 135.5 216 140 Q 211.5 141.5 213 137 Z " /><path fill="rgb(148,148,169)" stroke="rgb(148,148,169)" stroke-width="1" opacity="1" d="M 267.5 137 L 282 137.5 L 267.5 138 L 267.5 137 Z " /><path fill="rgb(148,148,169)" stroke="rgb(148,148,169)" stroke-width="1" opacity="1" d="M 255.5 138 L 257 138.5 L 257 146.5 L 257.5 148 L 253 147.5 Q 255.5 146 254 140.5 L 253.5 139 L 255.5 138 Z " /><path fill="rgb(148,148,169)" stroke="rgb(148,148,169)" stroke-width="1" opacity="1" d="M 267.5 141 L 282 141.5 L 267.5 142 L 267.5 141 Z " /><path fill="rgb(148,148,169)" stroke="rgb(148,148,169)" stroke-width="1" opacity="1" d="M 213 142 Q 217.5 140.5 216 145 Q 211.5 146.5 213 142 Z " /><path fill="rgb(148,148,169)" stroke="rgb(148,148,169)" stroke-width="1" opacity="1" d="M 151.5 143 L 155 143.5 L 149.5 146 L 148.5 144 L 151.5 143 Z " /><path fill="rgb(148,148,169)" stroke="rgb(148,148,169)" stroke-width="1" opacity="1" d="M 350 143 Q 354.9 141.2 353 147.5 L 351 148.5 L 352 145 Q 349 146 350 143 Z " /><path fill="rgb(148,148,169)" stroke="rgb(148,148,169)" stroke-width="1" opacity="1" d="M 403 143 Q 407.9 141.2 406 147.5 L 403.5 149 L 405 146.5 Q 405.7 143.9 403 145 L 403 143 Z " /><path fill="rgb(148,148,169)" stroke="rgb(148,148,169)" stroke-width="1" opacity="1" d="M 425 161 L 468.5 161 L 469 163 L 425.5 163 L 425 161 Z " /><path fill="rgb(148,148,169)" stroke="rgb(148,148,169)" stroke-width="1" opacity="1" d="M 301 180 Q 304 178.8 303 182.5 L 293 212.5 L 303 243 Q 300.3 244.1 301 241.5 L 291 213.5 L 291 209.5 L 301 180 Z " /><path fill="rgb(148,148,169)" stroke="rgb(148,148,169)" stroke-width="1" opacity="1" d="M 334.5 180 L 363 229.5 L 306.5 230 L 307 228.5 L 334.5 180 Z " /><path fill="rgb(148,148,169)" stroke="rgb(148,148,169)" stroke-width="1" opacity="1" d="M 366 180 L 369 181.5 L 379 211.5 L 367.5 243 Q 365.3 243.8 366 241.5 L 376 213.5 L 376 209.5 L 366 180 Z " /><path fill="rgb(148,148,169)" stroke="rgb(148,148,169)" stroke-width="1" opacity="1" d="M 165.5 200 Q 168.1 199.3 167 202 L 158.5 202 L 158 203.5 L 157.5 205 L 166 205 L 166 217.5 L 164 218.5 L 163.5 217 L 152 217 Q 153 220 150 219 L 150 205 L 154.5 205 L 156 202 L 149 201.5 L 164.5 201 L 165.5 200 Z M 152 206 L 152 216 L 155 216 L 155 207 L 152 206 Z M 156 206 Q 155 209 159 208 Q 160 205 156 206 Z M 161 206 L 161 216 L 164 216 L 164 207 L 161 206 Z M 156 209 Q 155 214 159 212 Q 161 208 156 209 Z M 156 213 Q 155 218 159 216 Q 161 212 156 213 Z " /><path fill="rgb(148,148,169)" stroke="rgb(148,148,169)" stroke-width="1" opacity="1" d="M 177.5 200 L 180 201.5 L 180.5 203 L 188 203 L 188 205 L 185 206.5 L 187 210 L 180 211 L 180 217 L 185.5 217 Q 186.7 214.8 188 217.5 L 170.5 218 L 170.5 217 L 178 217 L 178 211 Q 173.3 211.9 171 209.5 L 175.5 205 L 177.5 205 L 175.5 208 L 173 209.5 L 184.5 210 L 181.5 206 L 180 205.5 L 181.5 205 L 185 206 L 184.5 204 L 173 204 L 171.5 207 Q 169.3 207.8 170 205.5 L 171 203 L 177.5 203 L 178 201.5 L 177.5 200 Z " /><path fill="rgb(148,148,169)" stroke="rgb(148,148,169)" stroke-width="1" opacity="1" d="M 193.5 200 L 196 201.5 L 195.5 204 Q 194.3 201.8 193 204.5 L 192.5 219 L 191 217.5 L 191 203.5 L 194 202.5 L 193.5 200 Z " /><path fill="rgb(148,148,169)" stroke="rgb(148,148,169)" stroke-width="1" opacity="1" d="M 198.5 201 L 208 201 L 208 217.5 L 205.5 219 L 204.5 217 L 206 216.5 L 206 202 L 198.5 202 L 198.5 201 Z " /><path fill="rgb(148,148,169)" stroke="rgb(148,148,169)" stroke-width="1" opacity="1" d="M 245.5 202 L 250.5 203 L 252.5 202 L 252 203.5 Q 253.3 208.3 250 207 L 248.5 203 Q 244.5 202.5 244 205.5 L 245.5 208 L 250 209 L 251 212.5 L 248.5 216 L 242.5 217 L 240.5 217 Q 238.3 217.8 239 215.5 L 240 212 Q 243 210.8 242 214.5 Q 242.8 216.8 246.5 216 Q 249 214.8 248 211 L 242 208.5 Q 241 204 243.5 203 L 245.5 202 Z " /><path fill="rgb(148,148,169)" stroke="rgb(148,148,169)" stroke-width="1" opacity="1" d="M 196 205 L 204 205.5 L 203 206.5 L 203 215 L 198.5 214 L 196 215 L 196 205 Z M 198 206 Q 197 211 201 209 Q 203 205 198 206 Z M 198 210 Q 197 215 201 213 Q 203 209 198 210 Z " /><path fill="rgb(148,148,169)" stroke="rgb(148,148,169)" stroke-width="1" opacity="1" d="M 213 209 Q 217.5 207.5 216 212 Q 211.5 213.5 213 209 Z " /><path fill="rgb(148,148,169)" stroke="rgb(148,148,169)" stroke-width="1" opacity="1" d="M 267.5 209 L 282 209.5 L 267.5 210 L 267.5 209 Z " /><path fill="rgb(148,148,169)" stroke="rgb(148,148,169)" stroke-width="1" opacity="1" d="M 253.5 210 Q 258.9 208.1 258 211.5 L 259 214.5 L 255.5 219 L 258.5 217 L 259 220 L 252 219.5 L 257 213.5 L 256 211 L 254 211 Q 255.3 215.1 252 214 L 253.5 210 Z " /><path fill="rgb(148,148,169)" stroke="rgb(148,148,169)" stroke-width="1" opacity="1" d="M 267.5 213 L 282 213.5 L 267.5 214 L 267.5 213 Z " /><path fill="rgb(148,148,169)" stroke="rgb(148,148,169)" stroke-width="1" opacity="1" d="M 213 214 Q 217.5 212.5 216 217 Q 211.5 218.5 213 214 Z " /><path fill="rgb(254,254,254)" stroke="rgb(254,254,254)" stroke-width="1" opacity="1" d="M 415.5 28 L 419 30.5 L 416.5 29 L 415.5 28 Z " /><path fill="rgb(254,254,254)" stroke="rgb(254,254,254)" stroke-width="1" opacity="1" d="M 409.5 31 L 410 33.5 L 409 33.5 L 409.5 31 Z " /><path fill="rgb(254,254,254)" stroke="rgb(254,254,254)" stroke-width="1" opacity="1" d="M 525.5 31 L 526 33.5 L 525 33.5 L 525.5 31 Z " /><path fill="rgb(254,254,254)" stroke="rgb(254,254,254)" stroke-width="1" opacity="1" d="M 418.5 34 L 419 35.5 L 417 36.5 L 418.5 34 Z " /><path fill="rgb(254,254,254)" stroke="rgb(254,254,254)" stroke-width="1" opacity="1" d="M 410.5 35 L 411.5 37 L 410.5 35 Z " /><path fill="rgb(254,254,254)" stroke="rgb(254,254,254)" stroke-width="1" opacity="1" d="M 156.5 51 L 157 57.5 L 156 57.5 L 156.5 51 Z " /><path fill="rgb(254,254,254)" stroke="rgb(254,254,254)" stroke-width="1" opacity="1" d="M 176.5 51 L 177.5 53 L 176.5 51 Z " /><path fill="rgb(254,254,254)" stroke="rgb(254,254,254)" stroke-width="1" opacity="1" d="M 179.5 51 L 181 53.5 L 180 53.5 L 179.5 51 Z " /><path fill="rgb(254,254,254)" stroke="rgb(254,254,254)" stroke-width="1" opacity="1" d="M 195.5 51 L 199 53.5 L 197 54 L 196.5 56 L 195.5 51 Z " /><path fill="rgb(254,254,254)" stroke="rgb(254,254,254)" stroke-width="1" opacity="1" d="M 206.5 51 L 209 52.5 L 208.5 54 L 208 52 L 206.5 51 Z " /><path fill="rgb(254,254,254)" stroke="rgb(254,254,254)" stroke-width="1" opacity="1" d="M 193.5 52 L 195 54.5 L 194 55.5 L 193.5 70 L 193 55.5 L 193 53.5 L 193.5 52 Z " /><path fill="rgb(254,254,254)" stroke="rgb(254,254,254)" stroke-width="1" opacity="1" d="M 165.5 53 L 166.5 55 L 165.5 53 Z " /><path fill="rgb(254,254,254)" stroke="rgb(254,254,254)" stroke-width="1" opacity="1" d="M 185.5 53 L 189 54.5 L 188.5 56 L 188 54 Q 184.7 54.8 185.5 53 Z " /><path fill="rgb(254,254,254)" stroke="rgb(254,254,254)" stroke-width="1" opacity="1" d="M 248.5 54 L 249.5 56 L 248.5 54 Z " /><path fill="rgb(254,254,254)" stroke="rgb(254,254,254)" stroke-width="1" opacity="1" d="M 170.5 55 L 170 56.5 L 169.5 58 L 169 56.5 L 170.5 55 Z " /><path fill="rgb(254,254,254)" stroke="rgb(254,254,254)" stroke-width="1" opacity="1" d="M 175.5 55 L 177 55.5 L 174.5 57 L 175.5 55 Z " /><path fill="rgb(254,254,254)" stroke="rgb(254,254,254)" stroke-width="1" opacity="1" d="M 182.5 56 L 182 57.5 L 185.5 62 L 183 61 L 181 57.5 L 182.5 56 Z " /><path fill="rgb(254,254,254)" stroke="rgb(254,254,254)" stroke-width="1" opacity="1" d="M 184.5 56 L 187 56.5 L 186.5 59 L 184.5 56 Z " /><path fill="rgb(254,254,254)" stroke="rgb(254,254,254)" stroke-width="1" opacity="1" d="M 241.5 56 L 243 60.5 L 241 59.5 L 241.5 56 Z " /><path fill="rgb(254,254,254)" stroke="rgb(254,254,254)" stroke-width="1" opacity="1" d="M 244.5 56 L 246 58.5 L 244 57.5 L 244.5 56 Z " /><path fill="rgb(254,254,254)" stroke="rgb(254,254,254)" stroke-width="1" opacity="1" d="M 151 57 L 153 57.5 L 151.5 61 L 151 57 Z " /><path fill="rgb(254,254,254)" stroke="rgb(254,254,254)" stroke-width="1" opacity="1" d="M 162.5 57 L 165 58.5 L 164.5 60 L 164 58 L 162.5 57 Z " /><path fill="rgb(254,254,254)" stroke="rgb(254,254,254)" stroke-width="1" opacity="1" d="M 177.5 57 L 176.5 59 L 177.5 57 Z " /><path fill="rgb(254,254,254)" stroke="rgb(254,254,254)" stroke-width="1" opacity="1" d="M 203.5 57 L 204 65.5 L 203.5 67 L 205 67.5 L 204.5 70 L 201.5 66 L 203 65.5 L 203.5 57 Z " /><path fill="rgb(254,254,254)" stroke="rgb(254,254,254)" stroke-width="1" opacity="1" d="M 171.5 59 L 171.5 61 L 174.5 59 L 173.5 62 L 175 62.5 L 172.5 63 L 169 61.5 L 171.5 59 Z " /><path fill="rgb(254,254,254)" stroke="rgb(254,254,254)" stroke-width="1" opacity="1" d="M 212.5 60 L 213 62.5 L 212 62.5 L 212.5 60 Z " /><path fill="rgb(254,254,254)" stroke="rgb(254,254,254)" stroke-width="1" opacity="1" d="M 216.5 60 L 217 62.5 L 216 62.5 L 216.5 60 Z " /><path fill="rgb(254,254,254)" stroke="rgb(254,254,254)" stroke-width="1" opacity="1" d="M 290.5 61 L 291 63.5 L 290 63.5 L 290.5 61 Z " /><path fill="rgb(254,254,254)" stroke="rgb(254,254,254)" stroke-width="1" opacity="1" d="M 293.5 61 L 294 63.5 L 293 63.5 L 293.5 61 Z " /><path fill="rgb(254,254,254)" stroke="rgb(254,254,254)" stroke-width="1" opacity="1" d="M 151.5 62 L 152 65 L 155 66.5 L 154.5 68 L 153.5 66 L 152.5 68 L 151.5 66 L 150 66.5 L 151.5 62 Z " /><path fill="rgb(254,254,254)" stroke="rgb(254,254,254)" stroke-width="1" opacity="1" d="M 177.5 62 L 178 67.5 L 177 67.5 L 177.5 62 Z " /><path fill="rgb(254,254,254)" stroke="rgb(254,254,254)" stroke-width="1" opacity="1" d="M 256.5 62 L 257 68.5 L 256 68.5 L 256.5 62 Z " /><path fill="rgb(254,254,254)" stroke="rgb(254,254,254)" stroke-width="1" opacity="1" d="M 251.5 63 L 252 68.5 L 251 68.5 L 250 64.5 L 251.5 63 Z " /><path fill="rgb(254,254,254)" stroke="rgb(254,254,254)" stroke-width="1" opacity="1" d="M 247.5 64 L 248 65.5 L 247.5 68 Q 244.8 66.8 247 65.5 L 247.5 64 Z " /><path fill="rgb(254,254,254)" stroke="rgb(254,254,254)" stroke-width="1" opacity="1" d="M 259.5 64 L 260 67.5 L 259 67.5 L 259.5 64 Z " /><path fill="rgb(254,254,254)" stroke="rgb(254,254,254)" stroke-width="1" opacity="1" d="M 162.5 65 Q 166.5 64.5 167 67.5 L 164.5 66 Q 161.5 66.5 162.5 65 Z " /><path fill="rgb(254,254,254)" stroke="rgb(254,254,254)" stroke-width="1" opacity="1" d="M 212.5 65 L 213 67.5 L 212 67.5 L 212.5 65 Z " /><path fill="rgb(254,254,254)" stroke="rgb(254,254,254)" stroke-width="1" opacity="1" d="M 373.5 65 L 377 66.5 L 376.5 70 L 376 66 Q 372.7 66.8 373.5 65 Z " /><path fill="rgb(254,254,254)" stroke="rgb(254,254,254)" stroke-width="1" opacity="1" d="M 470.5 65 L 474 66.5 L 473.5 70 L 473 66 Q 469.2 64.5 470 67.5 L 469 67.5 L 470.5 65 Z " /><path fill="rgb(254,254,254)" stroke="rgb(254,254,254)" stroke-width="1" opacity="1" d="M 156.5 66 L 159 66.5 L 157.5 70 L 156.5 66 Z " /><path fill="rgb(254,254,254)" stroke="rgb(254,254,254)" stroke-width="1" opacity="1" d="M 160.5 66 L 161.5 68 L 160.5 66 Z " /><path fill="rgb(254,254,254)" stroke="rgb(254,254,254)" stroke-width="1" opacity="1" d="M 163.5 67 L 165 69.5 L 164 69.5 L 163.5 67 Z " /><path fill="rgb(254,254,254)" stroke="rgb(254,254,254)" stroke-width="1" opacity="1" d="M 187.5 67 L 188.5 69 L 187.5 67 Z " /><path fill="rgb(254,254,254)" stroke="rgb(254,254,254)" stroke-width="1" opacity="1" d="M 149.5 68 L 148.5 70 L 149.5 68 Z " /><path fill="rgb(254,254,254)" stroke="rgb(254,254,254)" stroke-width="1" opacity="1" d="M 169.5 68 L 172 69.5 L 170.5 70 L 169.5 68 Z " /><path fill="rgb(254,254,254)" stroke="rgb(254,254,254)" stroke-width="1" opacity="1" d="M 471.5 68 L 472 69.5 L 470 70.5 L 471.5 68 Z " /><path fill="rgb(254,254,254)" stroke="rgb(254,254,254)" stroke-width="1" opacity="1" d="M 512.5 79 L 516 81.5 L 513.5 80 L 512.5 79 Z " /><path fill="rgb(254,254,254)" stroke="rgb(254,254,254)" stroke-width="1" opacity="1" d="M 313.5 81 L 313 82.5 L 312.5 85 L 312 82.5 L 313.5 81 Z " /><path fill="rgb(254,254,254)" stroke="rgb(254,254,254)" stroke-width="1" opacity="1" d="M 506.5 82 L 507 84.5 L 506 84.5 L 506.5 82 Z " /><path fill="rgb(254,254,254)" stroke="rgb(254,254,254)" stroke-width="1" opacity="1" d="M 515.5 85 L 516 86.5 L 514 87.5 L 515.5 85 Z " /><path fill="rgb(254,254,254)" stroke="rgb(254,254,254)" stroke-width="1" opacity="1" d="M 313.5 86 L 314.5 88 L 313.5 86 Z " /><path fill="rgb(254,254,254)" stroke="rgb(254,254,254)" stroke-width="1" opacity="1" d="M 321.5 86 L 320.5 88 L 321.5 86 Z " /><path fill="rgb(254,254,254)" stroke="rgb(254,254,254)" stroke-width="1" opacity="1" d="M 507.5 86 L 508.5 88 L 507.5 86 Z " /><path fill="rgb(254,254,254)" stroke="rgb(254,254,254)" stroke-width="1" opacity="1" d="M 485.5 108 L 486 110.5 L 485 110.5 L 485.5 108 Z " /><path fill="rgb(254,254,254)" stroke="rgb(254,254,254)" stroke-width="1" opacity="1" d="M 153.5 128 L 154.5 131 L 157.5 133 L 158.5 131 L 159 136.5 L 158 136.5 L 156.5 134 L 154 135.5 L 156 132 L 153 130.5 L 153.5 128 Z " /><path fill="rgb(254,254,254)" stroke="rgb(254,254,254)" stroke-width="1" opacity="1" d="M 160.5 128 L 164 132.5 L 160 131.5 L 160.5 128 Z " /><path fill="rgb(254,254,254)" stroke="rgb(254,254,254)" stroke-width="1" opacity="1" d="M 176.5 128 L 177.5 130 L 176.5 128 Z " /><path fill="rgb(254,254,254)" stroke="rgb(254,254,254)" stroke-width="1" opacity="1" d="M 179.5 128 L 181 130.5 L 180 130.5 L 179.5 128 Z " /><path fill="rgb(254,254,254)" stroke="rgb(254,254,254)" stroke-width="1" opacity="1" d="M 195.5 128 L 199 130.5 L 197 131 L 196.5 133 L 195.5 128 Z " /><path fill="rgb(254,254,254)" stroke="rgb(254,254,254)" stroke-width="1" opacity="1" d="M 206.5 128 L 209 129.5 L 208.5 131 L 208 129 L 206.5 128 Z " /><path fill="rgb(254,254,254)" stroke="rgb(254,254,254)" stroke-width="1" opacity="1" d="M 193.5 129 L 195 131.5 L 194 132.5 L 193.5 147 L 193 132.5 L 193 130.5 L 193.5 129 Z " /><path fill="rgb(254,254,254)" stroke="rgb(254,254,254)" stroke-width="1" opacity="1" d="M 185.5 130 L 189 131.5 L 188.5 133 L 188 131 Q 184.7 131.8 185.5 130 Z " /><path fill="rgb(254,254,254)" stroke="rgb(254,254,254)" stroke-width="1" opacity="1" d="M 248.5 131 L 249.5 133 L 248.5 131 Z " /><path fill="rgb(254,254,254)" stroke="rgb(254,254,254)" stroke-width="1" opacity="1" d="M 152.5 132 L 153.5 134 L 151 133.5 L 152.5 132 Z " /><path fill="rgb(254,254,254)" stroke="rgb(254,254,254)" stroke-width="1" opacity="1" d="M 170.5 132 L 170 133.5 L 169.5 135 L 169 133.5 L 170.5 132 Z " /><path fill="rgb(254,254,254)" stroke="rgb(254,254,254)" stroke-width="1" opacity="1" d="M 175.5 132 L 177 132.5 L 174.5 134 L 175.5 132 Z " /><path fill="rgb(254,254,254)" stroke="rgb(254,254,254)" stroke-width="1" opacity="1" d="M 149.5 133 L 148.5 135 L 149.5 133 Z " /><path fill="rgb(254,254,254)" stroke="rgb(254,254,254)" stroke-width="1" opacity="1" d="M 182.5 133 L 182 134.5 L 185.5 139 L 183 138 L 181 134.5 L 182.5 133 Z " /><path fill="rgb(254,254,254)" stroke="rgb(254,254,254)" stroke-width="1" opacity="1" d="M 184.5 133 L 187 133.5 L 186.5 136 L 184.5 133 Z " /><path fill="rgb(254,254,254)" stroke="rgb(254,254,254)" stroke-width="1" opacity="1" d="M 241.5 133 L 243 137.5 L 241 136.5 L 241.5 133 Z " /><path fill="rgb(254,254,254)" stroke="rgb(254,254,254)" stroke-width="1" opacity="1" d="M 244.5 133 L 246 135.5 L 244 134.5 L 244.5 133 Z " /><path fill="rgb(254,254,254)" stroke="rgb(254,254,254)" stroke-width="1" opacity="1" d="M 177.5 134 L 176.5 136 L 177.5 134 Z " /><path fill="rgb(254,254,254)" stroke="rgb(254,254,254)" stroke-width="1" opacity="1" d="M 203.5 134 L 204 142.5 L 203.5 144 L 205 144.5 L 204.5 147 L 201.5 143 L 203 142.5 L 203.5 134 Z " /><path fill="rgb(254,254,254)" stroke="rgb(254,254,254)" stroke-width="1" opacity="1" d="M 164.5 135 L 166 135.5 L 164 136.5 L 165.5 139 L 162 136.5 L 164.5 135 Z " /><path fill="rgb(254,254,254)" stroke="rgb(254,254,254)" stroke-width="1" opacity="1" d="M 171.5 136 L 171.5 138 L 174.5 136 L 173.5 139 L 175 139.5 L 172.5 140 L 169 138.5 L 171.5 136 Z " /><path fill="rgb(254,254,254)" stroke="rgb(254,254,254)" stroke-width="1" opacity="1" d="M 153.5 137 L 157 138 L 156.5 140 L 153.5 138 L 153 139.5 L 153.5 141 L 152 138.5 L 153.5 137 Z " /><path fill="rgb(254,254,254)" stroke="rgb(254,254,254)" stroke-width="1" opacity="1" d="M 212.5 137 L 213 139.5 L 212 139.5 L 212.5 137 Z " /><path fill="rgb(254,254,254)" stroke="rgb(254,254,254)" stroke-width="1" opacity="1" d="M 216.5 137 L 217 139.5 L 216 139.5 L 216.5 137 Z " /><path fill="rgb(254,254,254)" stroke="rgb(254,254,254)" stroke-width="1" opacity="1" d="M 290.5 138 L 291 140.5 L 290 140.5 L 290.5 138 Z " /><path fill="rgb(254,254,254)" stroke="rgb(254,254,254)" stroke-width="1" opacity="1" d="M 293.5 138 L 294 140.5 L 293 140.5 L 293.5 138 Z " /><path fill="rgb(254,254,254)" stroke="rgb(254,254,254)" stroke-width="1" opacity="1" d="M 162.5 139 L 161.5 141 L 162.5 139 Z " /><path fill="rgb(254,254,254)" stroke="rgb(254,254,254)" stroke-width="1" opacity="1" d="M 177.5 139 L 178 144.5 L 177 144.5 L 177.5 139 Z " /><path fill="rgb(254,254,254)" stroke="rgb(254,254,254)" stroke-width="1" opacity="1" d="M 164.5 140 L 167 141.5 L 165 142.5 L 164.5 141 L 163 142.5 L 164.5 145 Q 159.5 142.5 164.5 140 Z " /><path fill="rgb(254,254,254)" stroke="rgb(254,254,254)" stroke-width="1" opacity="1" d="M 247.5 141 L 248 142.5 L 247.5 145 Q 244.8 143.8 247 142.5 L 247.5 141 Z " /><path fill="rgb(254,254,254)" stroke="rgb(254,254,254)" stroke-width="1" opacity="1" d="M 154.5 142 L 157 142 Q 155.5 145.7 158.5 145 L 158.5 146 L 154.5 142 Z " /><path fill="rgb(254,254,254)" stroke="rgb(254,254,254)" stroke-width="1" opacity="1" d="M 212.5 142 L 213 144.5 L 212 144.5 L 212.5 142 Z " /><path fill="rgb(254,254,254)" stroke="rgb(254,254,254)" stroke-width="1" opacity="1" d="M 350.5 142 L 354 143.5 L 353.5 147 L 353 143 Q 349.7 143.8 350.5 142 Z " /><path fill="rgb(254,254,254)" stroke="rgb(254,254,254)" stroke-width="1" opacity="1" d="M 403.5 142 L 407 143.5 L 406.5 147 L 406 143 Q 402.2 141.5 403 144.5 L 402 144.5 L 403.5 142 Z " /><path fill="rgb(254,254,254)" stroke="rgb(254,254,254)" stroke-width="1" opacity="1" d="M 187.5 144 L 188.5 146 L 187.5 144 Z " /><path fill="rgb(254,254,254)" stroke="rgb(254,254,254)" stroke-width="1" opacity="1" d="M 154.5 145 L 155.5 147 L 153 146.5 L 154.5 145 Z " /><path fill="rgb(254,254,254)" stroke="rgb(254,254,254)" stroke-width="1" opacity="1" d="M 169.5 145 L 172 146.5 L 170.5 147 L 169.5 145 Z " /><path fill="rgb(254,254,254)" stroke="rgb(254,254,254)" stroke-width="1" opacity="1" d="M 404.5 145 L 405 146.5 L 403 147.5 L 404.5 145 Z " /><path fill="rgb(254,254,254)" stroke="rgb(254,254,254)" stroke-width="1" opacity="1" d="M 167.5 146 L 168 148 L 165 147.5 L 167.5 146 Z " /><path fill="rgb(254,254,254)" stroke="rgb(254,254,254)" stroke-width="1" opacity="1" d="M 334.5 179 L 364 231 L 305.5 231 L 305 229.5 L 334.5 179 Z M 335 180 L 307 229 L 307 230 L 363 230 L 335 180 Z " /><path fill="rgb(254,254,254)" stroke="rgb(254,254,254)" stroke-width="1" opacity="1" d="M 176.5 200 L 177.5 202 L 176.5 200 Z " /><path fill="rgb(254,254,254)" stroke="rgb(254,254,254)" stroke-width="1" opacity="1" d="M 179.5 200 L 181 202.5 L 180 202.5 L 179.5 200 Z " /><path fill="rgb(254,254,254)" stroke="rgb(254,254,254)" stroke-width="1" opacity="1" d="M 195.5 200 L 199 202.5 L 197 203 L 196.5 205 L 195.5 200 Z " /><path fill="rgb(254,254,254)" stroke="rgb(254,254,254)" stroke-width="1" opacity="1" d="M 206.5 200 L 209 201.5 L 208.5 203 L 208 201 L 206.5 200 Z " /><path fill="rgb(254,254,254)" stroke="rgb(254,254,254)" stroke-width="1" opacity="1" d="M 148.5 201 L 149.5 203 Q 146.7 203.7 148.5 201 Z " /><path fill="rgb(254,254,254)" stroke="rgb(254,254,254)" stroke-width="1" opacity="1" d="M 193.5 201 L 195 203.5 L 194 204.5 L 193.5 219 L 193 204.5 L 193 202.5 L 193.5 201 Z " /><path fill="rgb(254,254,254)" stroke="rgb(254,254,254)" stroke-width="1" opacity="1" d="M 185.5 202 L 189 203.5 L 188.5 205 L 188 203 Q 184.7 203.8 185.5 202 Z " /><path fill="rgb(254,254,254)" stroke="rgb(254,254,254)" stroke-width="1" opacity="1" d="M 248.5 203 L 249.5 205 L 248.5 203 Z " /><path fill="rgb(254,254,254)" stroke="rgb(254,254,254)" stroke-width="1" opacity="1" d="M 149 204 L 151 204.5 L 149.5 207 L 149 204 Z " /><path fill="rgb(254,254,254)" stroke="rgb(254,254,254)" stroke-width="1" opacity="1" d="M 164.5 204 L 167 205.5 L 165.5 205 L 164.5 204 Z " /><path fill="rgb(254,254,254)" stroke="rgb(254,254,254)" stroke-width="1" opacity="1" d="M 170.5 204 L 170 205.5 L 169.5 207 L 169 205.5 L 170.5 204 Z " /><path fill="rgb(254,254,254)" stroke="rgb(254,254,254)" stroke-width="1" opacity="1" d="M 175.5 204 L 177 204.5 L 174.5 206 L 175.5 204 Z " /><path fill="rgb(254,254,254)" stroke="rgb(254,254,254)" stroke-width="1" opacity="1" d="M 182.5 205 L 182 206.5 L 185.5 211 L 183 210 L 181 206.5 L 182.5 205 Z " /><path fill="rgb(254,254,254)" stroke="rgb(254,254,254)" stroke-width="1" opacity="1" d="M 184.5 205 L 187 205.5 L 186.5 208 L 184.5 205 Z " /><path fill="rgb(254,254,254)" stroke="rgb(254,254,254)" stroke-width="1" opacity="1" d="M 241.5 205 L 243 209.5 L 241 208.5 L 241.5 205 Z " /><path fill="rgb(254,254,254)" stroke="rgb(254,254,254)" stroke-width="1" opacity="1" d="M 244.5 205 L 246 207.5 L 244 206.5 L 244.5 205 Z " /><path fill="rgb(254,254,254)" stroke="rgb(254,254,254)" stroke-width="1" opacity="1" d="M 154.5 206 L 155 215.5 L 154 215.5 L 154.5 206 Z " /><path fill="rgb(254,254,254)" stroke="rgb(254,254,254)" stroke-width="1" opacity="1" d="M 163.5 206 L 164 215.5 L 163 215.5 L 163.5 206 Z " /><path fill="rgb(254,254,254)" stroke="rgb(254,254,254)" stroke-width="1" opacity="1" d="M 177.5 206 L 176.5 208 L 177.5 206 Z " /><path fill="rgb(254,254,254)" stroke="rgb(254,254,254)" stroke-width="1" opacity="1" d="M 203.5 206 L 204 214.5 L 203.5 216 L 205 216.5 L 204.5 219 L 201.5 215 L 203 214.5 L 203.5 206 Z " /><path fill="rgb(254,254,254)" stroke="rgb(254,254,254)" stroke-width="1" opacity="1" d="M 171.5 208 L 171.5 210 L 174.5 208 L 173.5 211 L 175 211.5 L 172.5 212 L 169 210.5 L 171.5 208 Z " /><path fill="rgb(254,254,254)" stroke="rgb(254,254,254)" stroke-width="1" opacity="1" d="M 156.5 209 L 157 211.5 L 156 211.5 L 156.5 209 Z " /><path fill="rgb(254,254,254)" stroke="rgb(254,254,254)" stroke-width="1" opacity="1" d="M 212.5 209 L 213 211.5 L 212 211.5 L 212.5 209 Z " /><path fill="rgb(254,254,254)" stroke="rgb(254,254,254)" stroke-width="1" opacity="1" d="M 216.5 209 L 217 211.5 L 216 211.5 L 216.5 209 Z " /><path fill="rgb(254,254,254)" stroke="rgb(254,254,254)" stroke-width="1" opacity="1" d="M 290.5 210 L 291 212.5 L 290 212.5 L 290.5 210 Z " /><path fill="rgb(254,254,254)" stroke="rgb(254,254,254)" stroke-width="1" opacity="1" d="M 293.5 210 L 294 212.5 L 293 212.5 L 293.5 210 Z " /><path fill="rgb(254,254,254)" stroke="rgb(254,254,254)" stroke-width="1" opacity="1" d="M 177.5 211 L 178 216.5 L 177 216.5 L 177.5 211 Z " /><path fill="rgb(254,254,254)" stroke="rgb(254,254,254)" stroke-width="1" opacity="1" d="M 254 211 L 256 211.5 L 254.5 214 L 254 211 Z " /><path fill="rgb(254,254,254)" stroke="rgb(254,254,254)" stroke-width="1" opacity="1" d="M 251.5 212 L 252 214 L 250 213.5 L 251.5 212 Z " /><path fill="rgb(254,254,254)" stroke="rgb(254,254,254)" stroke-width="1" opacity="1" d="M 156.5 213 L 157 215.5 L 156 215.5 L 156.5 213 Z " /><path fill="rgb(254,254,254)" stroke="rgb(254,254,254)" stroke-width="1" opacity="1" d="M 247.5 213 L 248 214.5 L 247.5 217 Q 244.8 215.8 247 214.5 L 247.5 213 Z " /><path fill="rgb(254,254,254)" stroke="rgb(254,254,254)" stroke-width="1" opacity="1" d="M 212.5 214 L 213 216.5 L 212 216.5 L 212.5 214 Z " /><path fill="rgb(254,254,254)" stroke="rgb(254,254,254)" stroke-width="1" opacity="1" d="M 255.5 215 L 251.5 220 L 255.5 215 Z " /><path fill="rgb(254,254,254)" stroke="rgb(254,254,254)" stroke-width="1" opacity="1" d="M 258.5 215 L 258 216.5 L 256.5 219 L 255 218.5 L 258.5 215 Z " /><path fill="rgb(254,254,254)" stroke="rgb(254,254,254)" stroke-width="1" opacity="1" d="M 187.5 216 L 188.5 218 L 187.5 216 Z " /><path fill="rgb(254,254,254)" stroke="rgb(254,254,254)" stroke-width="1" opacity="1" d="M 169.5 217 L 172 218.5 L 170.5 219 L 169.5 217 Z " /><path fill="rgb(255,255,255)" stroke="rgb(255,255,255)" stroke-width="1" opacity="1" d="M 0 0 L 687 0 L 687 243 L 369.5 243 L 369 241.5 L 379 213.5 L 379 209.5 L 369 180 Q 364.5 178.3 366 183.5 L 376 211.5 L 366 239.5 L 366 243 L 304.5 243 L 304 241.5 L 294 213.5 L 294 209.5 L 304 180 L 300 181.5 L 290 212.5 L 300 243 L 0 243 L 0 0 Z M 413 28 L 410 29 L 409 32 L 410 36 Q 412 38 418 37 Q 420 36 419 31 Q 418 27 413 28 Z M 302 31 L 290 62 L 300 92 Q 299 96 304 94 L 294 65 L 294 61 L 304 33 Q 305 30 302 31 Z M 525 31 L 535 62 L 525 92 Q 524 95 528 94 L 538 66 L 538 60 L 528 33 Q 529 29 525 31 Z M 156 51 L 156 58 L 151 57 L 152 62 L 148 70 L 152 70 L 154 66 L 155 64 L 162 64 L 164 69 Q 163 72 167 70 Q 168 66 164 65 L 165 60 L 164 57 L 159 58 L 159 55 L 167 55 L 166 53 L 163 54 L 159 54 Q 161 50 156 51 Z M 177 51 L 178 54 L 171 53 L 169 58 Q 175 60 173 55 L 175 56 L 174 58 L 169 62 L 173 63 L 177 62 L 177 68 L 170 68 L 171 70 L 173 69 L 189 69 L 188 67 L 185 68 L 180 68 L 180 62 Q 185 63 187 61 L 186 58 L 189 56 L 188 53 L 185 54 Q 180 55 181 53 Q 180 50 177 51 Z M 193 51 Q 194 54 191 54 L 191 70 L 194 70 L 194 55 L 196 56 L 196 67 Q 199 68 198 65 Q 202 63 201 67 Q 202 71 208 70 L 208 55 L 209 54 L 208 51 L 206 52 Q 197 53 193 51 Z M 245 53 Q 240 54 241 60 L 248 64 L 246 67 L 242 66 Q 243 61 240 62 L 239 68 Q 247 69 250 67 L 251 65 L 252 70 Q 251 72 258 71 L 260 68 L 259 63 Q 257 59 252 61 L 252 63 L 251 60 L 245 58 Q 244 54 247 55 Q 248 52 250 57 Q 249 60 252 59 L 253 56 L 253 53 L 245 53 Z M 212 60 L 212 63 L 217 63 L 217 60 L 212 60 Z M 267 60 L 267 61 L 282 61 L 267 60 Z M 267 64 L 267 65 L 282 65 L 267 64 Z M 212 65 L 212 68 Q 216 69 217 67 L 217 65 L 212 65 Z M 373 65 L 373 68 L 375 69 L 373 72 L 376 72 L 377 67 L 373 65 Z M 471 65 L 469 67 Q 468 69 471 68 L 470 71 Q 469 73 473 72 L 474 67 L 471 65 Z M 154 66 L 155 70 Q 159 72 158 68 L 154 66 Z M 159 66 L 159 70 Q 163 72 162 68 L 159 66 Z M 316 79 L 312 83 L 313 87 Q 314 90 321 88 L 323 85 L 322 82 Q 321 78 316 79 Z M 510 79 L 507 80 L 506 83 L 507 87 Q 508 90 515 88 Q 517 87 516 82 Q 515 78 510 79 Z M 302 108 L 290 139 L 300 169 Q 299 173 304 171 L 294 142 L 294 138 L 304 110 Q 305 107 302 108 Z M 485 108 L 495 138 L 495 142 L 485 170 Q 484 172 488 171 L 499 140 L 489 110 L 485 108 Z M 337 117 L 315 155 L 318 156 L 338 121 L 337 117 Z M 368 118 L 388 155 Q 390 158 391 155 L 371 120 Q 372 116 368 118 Z M 151 128 L 148 137 L 151 138 L 148 139 L 150 142 L 155 140 L 157 140 Q 156 137 159 138 Q 160 143 158 144 L 157 142 L 150 143 L 148 146 L 154 144 L 156 145 L 155 145 L 154 147 L 160 145 L 168 148 L 167 146 Q 169 140 165 141 L 165 144 Q 161 142 166 140 L 165 138 L 167 137 L 166 135 L 162 137 L 161 134 L 167 134 L 165 131 L 158 128 L 158 133 L 154 131 L 153 135 L 151 135 L 155 130 L 151 128 Z M 177 128 L 178 131 L 171 130 L 169 135 Q 175 137 173 132 L 175 133 L 174 135 L 169 139 L 173 140 L 177 139 L 177 145 L 170 145 L 171 147 L 173 146 L 189 146 L 188 144 L 185 145 L 180 145 L 180 139 Q 185 140 187 138 L 186 135 L 189 133 L 188 130 L 185 131 Q 180 132 181 130 Q 180 127 177 128 Z M 193 128 Q 194 131 191 131 L 191 147 L 194 147 L 194 132 L 196 133 L 196 144 Q 199 145 198 142 Q 202 140 201 144 Q 202 148 208 147 L 208 132 L 209 131 L 208 128 L 206 129 Q 197 130 193 128 Z M 245 130 Q 240 131 241 137 L 248 141 L 246 144 L 242 143 Q 243 138 240 139 L 239 145 Q 247 146 250 144 L 251 137 L 245 135 Q 244 131 247 132 Q 248 129 250 134 Q 249 137 252 136 L 253 133 L 253 130 L 245 130 Z M 212 137 L 212 140 L 217 140 L 217 137 L 212 137 Z M 267 137 L 267 138 L 282 138 L 267 137 Z M 255 138 L 253 139 L 253 140 L 254 141 L 254 147 L 252 148 L 259 148 L 259 147 L 257 147 L 257 138 L 255 138 Z M 267 141 L 267 142 L 282 142 L 267 141 Z M 212 142 L 212 145 Q 216 146 217 144 L 217 142 L 212 142 Z M 350 142 L 350 145 L 352 146 L 350 149 L 353 149 L 354 144 L 350 142 Z M 404 142 L 402 144 Q 401 146 404 145 L 403 148 Q 402 150 406 149 L 407 144 L 404 142 Z M 425 161 L 426 163 L 470 163 L 470 161 L 425 161 Z M 335 179 L 305 230 L 306 231 L 364 231 L 335 179 Z M 165 200 L 164 201 L 149 201 L 148 203 L 151 202 Q 157 200 155 205 L 149 204 L 150 208 Q 151 216 149 219 Q 153 220 152 217 L 163 217 L 163 219 L 166 219 L 166 207 Q 168 205 166 204 L 164 205 Q 157 206 158 204 L 160 202 L 168 202 L 165 200 Z M 177 200 L 178 203 L 171 202 L 169 207 Q 175 209 173 204 L 175 205 L 174 207 L 169 211 L 173 212 L 177 211 L 177 217 L 170 217 L 171 219 L 173 218 L 189 218 L 188 216 L 185 217 L 180 217 L 180 211 Q 185 212 187 210 L 186 207 L 189 205 L 188 202 L 185 203 Q 180 204 181 202 Q 180 199 177 200 Z M 193 200 Q 194 203 191 203 L 191 219 L 194 219 L 194 204 L 196 205 L 196 216 Q 199 217 198 214 Q 202 212 201 216 Q 202 220 208 219 L 208 204 L 209 203 L 208 200 L 206 201 Q 197 202 193 200 Z M 245 202 Q 240 203 241 209 L 248 213 L 246 216 L 242 215 Q 243 210 240 211 L 239 217 L 248 217 L 249 216 Q 251 217 250 214 L 255 214 L 255 213 L 256 213 L 256 215 L 251 220 L 259 220 L 258 217 L 259 212 Q 257 208 252 210 L 252 212 L 251 209 L 245 207 Q 244 203 247 204 Q 248 201 250 206 Q 249 209 252 208 L 253 205 L 253 202 L 245 202 Z M 212 209 L 212 212 L 217 212 L 217 209 L 212 209 Z M 267 209 L 267 210 L 282 210 L 267 209 Z M 267 213 L 267 214 L 282 214 L 267 213 Z M 212 214 L 212 217 Q 216 218 217 216 L 217 214 L 212 214 Z " /><path fill="rgb(255,255,255)" stroke="rgb(255,255,255)" stroke-width="1" opacity="1" d="M 199.5 53 L 206 53 L 206 67.5 L 204.5 67 L 203 66.5 L 204 65.5 L 204 56.5 L 201.5 55 L 197 56 Q 195.9 53.3 198.5 54 L 199.5 53 Z " /><path fill="rgb(255,255,255)" stroke="rgb(255,255,255)" stroke-width="1" opacity="1" d="M 177.5 55 L 185 55.5 Q 183.7 58.3 182.5 56 L 180 56.5 L 183 61 L 174 60.5 L 178 57.5 L 177.5 55 Z " /><path fill="rgb(255,255,255)" stroke="rgb(255,255,255)" stroke-width="1" opacity="1" d="M 198 57 Q 202.5 55.5 201 60 Q 196.5 61.5 198 57 Z " /><path fill="rgb(255,255,255)" stroke="rgb(255,255,255)" stroke-width="1" opacity="1" d="M 154 59 L 162 59 L 162 63 L 154 63 L 154 59 Z " /><path fill="rgb(255,255,255)" stroke="rgb(255,255,255)" stroke-width="1" opacity="1" d="M 198 61 Q 202.5 59.5 201 64 Q 196.5 65.5 198 61 Z " /><path fill="rgb(255,255,255)" stroke="rgb(255,255,255)" stroke-width="1" opacity="1" d="M 255.5 62 L 256 69.5 L 255 69.5 L 254 64.5 L 255.5 62 Z " /><path fill="rgb(255,255,255)" stroke="rgb(255,255,255)" stroke-width="1" opacity="1" d="M 199.5 130 L 206 130 L 206 144.5 L 204.5 144 L 203 143.5 L 204 142.5 L 204 133.5 L 201.5 132 L 197 133 Q 195.9 130.3 198.5 131 L 199.5 130 Z " /><path fill="rgb(255,255,255)" stroke="rgb(255,255,255)" stroke-width="1" opacity="1" d="M 161.5 131 L 162.5 133 Q 159.7 133.7 161.5 131 Z " /><path fill="rgb(255,255,255)" stroke="rgb(255,255,255)" stroke-width="1" opacity="1" d="M 177.5 132 L 185 132.5 Q 183.7 135.3 182.5 133 L 180 133.5 L 183 138 L 174 137.5 L 178 134.5 L 177.5 132 Z " /><path fill="rgb(255,255,255)" stroke="rgb(255,255,255)" stroke-width="1" opacity="1" d="M 198 134 Q 202.5 132.5 201 137 Q 196.5 138.5 198 134 Z " /><path fill="rgb(255,255,255)" stroke="rgb(255,255,255)" stroke-width="1" opacity="1" d="M 155.5 135 Q 159.3 134 158 137 L 154 136.5 L 155.5 135 Z " /><path fill="rgb(255,255,255)" stroke="rgb(255,255,255)" stroke-width="1" opacity="1" d="M 161 138 L 163 138.5 L 161 139.5 L 161 138 Z " /><path fill="rgb(255,255,255)" stroke="rgb(255,255,255)" stroke-width="1" opacity="1" d="M 198 138 Q 202.5 136.5 201 141 Q 196.5 142.5 198 138 Z " /><path fill="rgb(255,255,255)" stroke="rgb(255,255,255)" stroke-width="1" opacity="1" d="M 199.5 202 L 206 202 L 206 216.5 L 204.5 216 L 203 215.5 L 204 214.5 L 204 205.5 L 201.5 204 L 197 205 Q 195.9 202.3 198.5 203 L 199.5 202 Z " /><path fill="rgb(255,255,255)" stroke="rgb(255,255,255)" stroke-width="1" opacity="1" d="M 177.5 204 L 185 204.5 Q 183.7 207.3 182.5 205 L 180 205.5 L 183 210 L 174 209.5 L 178 206.5 L 177.5 204 Z " /><path fill="rgb(255,255,255)" stroke="rgb(255,255,255)" stroke-width="1" opacity="1" d="M 152 206 L 154 206.5 L 154 216 L 152 215.5 L 152 206 Z " /><path fill="rgb(255,255,255)" stroke="rgb(255,255,255)" stroke-width="1" opacity="1" d="M 157 206 Q 160 205 159 208 Q 156 209 157 206 Z " /><path fill="rgb(255,255,255)" stroke="rgb(255,255,255)" stroke-width="1" opacity="1" d="M 161 206 L 163 206.5 L 163 216 L 161 215.5 L 161 206 Z " /><path fill="rgb(255,255,255)" stroke="rgb(255,255,255)" stroke-width="1" opacity="1" d="M 198 206 Q 202.5 204.5 201 209 Q 196.5 210.5 198 206 Z " /><path fill="rgb(255,255,255)" stroke="rgb(255,255,255)" stroke-width="1" opacity="1" d="M 157 209 Q 160.3 207.9 159 212 Q 155.7 213.1 157 209 Z " /><path fill="rgb(255,255,255)" stroke="rgb(255,255,255)" stroke-width="1" opacity="1" d="M 198 210 Q 202.5 208.5 201 213 Q 196.5 214.5 198 210 Z " /><path fill="rgb(255,255,255)" stroke="rgb(255,255,255)" stroke-width="1" opacity="1" d="M 157 213 Q 160.3 211.9 159 216 Q 155.7 217.1 157 213 Z " /></svg>