<?xml version="1.0" encoding="UTF-8" standalone="no"?>
<!-- Created with Inkscape (http://www.inkscape.org/) -->

<svg
   version="1.1"
   id="svg1"
   width="182.97333"
   height="129.29333"
   viewBox="0 0 182.97333 129.29333"
   sodipodi:docname="upload_azrr7vpafkga2fzfla6zkydafg.pdf"
   xmlns:inkscape="http://www.inkscape.org/namespaces/inkscape"
   xmlns:sodipodi="http://sodipodi.sourceforge.net/DTD/sodipodi-0.dtd"
   xmlns="http://www.w3.org/2000/svg"
   xmlns:svg="http://www.w3.org/2000/svg">
  <defs
     id="defs1" />
  <sodipodi:namedview
     id="namedview1"
     pagecolor="#ffffff"
     bordercolor="#000000"
     borderopacity="0.25"
     inkscape:showpageshadow="2"
     inkscape:pageopacity="0.0"
     inkscape:pagecheckerboard="0"
     inkscape:deskcolor="#d1d1d1">
    <inkscape:page
       x="0"
       y="0"
       inkscape:label="1"
       id="page1"
       width="182.97333"
       height="129.29333"
       margin="0"
       bleed="0" />
  </sodipodi:namedview>
  <g
     id="g1"
     inkscape:groupmode="layer"
     inkscape:label="1">
    <path
       id="path1"
       d="m 4.8525625,-3.5613828 c 0.046875,-0.2226563 0.1523437,-0.6210938 0.1523437,-0.6796875 0,-0.1875 -0.140625,-0.28125 -0.3046875,-0.28125 -0.1171875,0 -0.3046875,0.082031 -0.3867187,0.2929687 -0.023437,0.070312 -0.5273438,2.0742188 -0.5976563,2.3554688 -0.070312,0.3046875 -0.09375,0.5039062 -0.09375,0.6914062 0,0.1171875 0,0.1289063 0.011719,0.18750004 -0.2460938,0.55078125 -0.5507813,0.87890625 -0.9609375,0.87890625 -0.84375,0 -0.84375,-0.7734375 -0.84375,-0.94921879 0,-0.3398437 0.046875,-0.75 0.5390625,-2.0390625 0.1171875,-0.3164062 0.1875,-0.46875 0.1875,-0.6796875 0,-0.46875 -0.3515625,-0.8554687 -0.8671875,-0.8554687 -0.99609375,0 -1.3828125,1.5234375 -1.3828125,1.6171875 0,0.1054687 0.10546875,0.1054687 0.12890625,0.1054687 0.10546875,0 0.1171875,-0.023437 0.1640625,-0.1875 0.28125,-0.984375 0.69140625,-1.3007812 1.06640625,-1.3007812 0.09375,0 0.2578125,0.011719 0.2578125,0.3398437 0,0.2695313 -0.1171875,0.5625 -0.1875,0.7382813 -0.46875,1.2421875 -0.5859375,1.7226562 -0.5859375,2.1210937 0,0.94921879 0.703125,1.32421879 1.4882812,1.32421879 0.1757813,0 0.6679688,0 1.0898438,-0.73828125 0.2695312,0.66796875 0.9960937,0.73828125 1.3125,0.73828125 0.7851562,0 1.2539062,-0.66796875 1.5234375,-1.28906249 0.3515625,-0.8203125 0.6914062,-2.2265625 0.6914062,-2.7304688 0,-0.5859375 -0.28125,-0.7382812 -0.4570312,-0.7382812 -0.2695313,0 -0.5273438,0.2695312 -0.5273438,0.5039062 0,0.140625 0.058594,0.1992188 0.1523438,0.28125 0.1171875,0.1171875 0.3867187,0.3867188 0.3867187,0.890625 0,0.3632813 -0.3046875,1.3945313 -0.5859375,1.921875 -0.2695312,0.56250004 -0.6328125,0.92578129 -1.1484375,0.92578129 -0.4921875,0 -0.7851562,-0.31640625 -0.7851562,-0.91406249 0,-0.2929688 0.082031,-0.6210938 0.1171875,-0.7617188 z m 0,0"
       style="fill:#000000;fill-opacity:1;fill-rule:nonzero;stroke:none"
       aria-label="w"
       transform="matrix(1.3333333,0,0,1.3333333,14.998667,11.158667)" />
    <path
       id="path2"
       d="m 3.5049063,-3.1747969 c 0.070312,-0.2695312 0.3046875,-1.2304687 1.0429687,-1.2304687 0.046875,0 0.3046875,0 0.5273438,0.1289062 -0.2929688,0.058594 -0.5039063,0.3164063 -0.5039063,0.5742188 0,0.1640625 0.1171875,0.3632812 0.3984375,0.3632812 0.234375,0 0.5625,-0.1875 0.5625,-0.609375 0,-0.5390625 -0.6210937,-0.6914062 -0.9726562,-0.6914062 -0.609375,0 -0.9726563,0.5507812 -1.1015625,0.796875 C 3.1885,-4.5341719 2.626,-4.6396406 2.3213125,-4.6396406 c -1.0898437,0 -1.6875,1.359375 -1.6875,1.6171875 0,0.1054687 0.10546875,0.1054687 0.12890625,0.1054687 0.0820313,0 0.10546875,-0.023437 0.12890625,-0.1171875 0.3632813,-1.1132812 1.0546875,-1.3710937 1.40625,-1.3710937 0.1992188,0 0.5742188,0.09375 0.5742188,0.703125 0,0.3164062 -0.1875,1.03125 -0.5742188,2.4960937 -0.1640625,0.65625002 -0.5273437,1.08984377 -0.9960937,1.08984377 -0.058594,0 -0.30468755,0 -0.5273438,-0.140625 0.2695313,-0.046875 0.4921875,-0.26953125 0.4921875,-0.5625 0,-0.28124997 -0.2226562,-0.36328127 -0.38671875,-0.36328127 -0.31640625,0 -0.57421875,0.26953127 -0.57421875,0.60937502 0,0.48046875 0.52734375,0.69140625 0.984375,0.69140625 0.6914063,0 1.078125,-0.73828125 1.1015625,-0.796875 0.1289063,0.38671875 0.5039063,0.796875 1.1367188,0.796875 1.078125,0 1.6757812,-1.35937497 1.6757812,-1.61718747 0,-0.1054688 -0.09375,-0.1054688 -0.1171875,-0.1054688 -0.09375,0 -0.1171875,0.035156 -0.140625,0.1171875 -0.3515625,1.12500002 -1.0546875,1.37109377 -1.3945312,1.37109377 -0.4101563,0 -0.5742188,-0.33984375 -0.5742188,-0.69140625 0,-0.23437502 0.058594,-0.45703122 0.1757813,-0.92578122 z m 0,0"
       style="fill:#000000;fill-opacity:1;fill-rule:nonzero;stroke:none"
       aria-label="x"
       transform="matrix(1.3333333,0,0,1.3333333,88.998667,41.444)" />
    <path
       id="path3"
       d="m 5.0978281,-3.9951094 c 0.046875,-0.1523437 0.046875,-0.1757812 0.046875,-0.2460937 0,-0.1875 -0.1523437,-0.28125 -0.3046875,-0.28125 -0.1054687,0 -0.2695312,0.058594 -0.3632812,0.2226562 -0.023437,0.046875 -0.1054688,0.375 -0.1523438,0.5625 -0.070312,0.2695313 -0.140625,0.5625 -0.2109375,0.84375 l -0.46875,1.8867188 c -0.046875,0.15234372 -0.4921875,0.89062497 -1.1835937,0.89062497 -0.5390625,0 -0.65625,-0.45703125 -0.65625,-0.84375 0,-0.49218747 0.1757812,-1.13671877 0.5390625,-2.06249997 0.1640625,-0.4335938 0.2109375,-0.5507813 0.2109375,-0.7617188 0,-0.46875 -0.3398438,-0.8554687 -0.8671875,-0.8554687 -0.99609377,0 -1.38281252,1.5234375 -1.38281252,1.6171875 0,0.1054687 0.10546875,0.1054687 0.12890625,0.1054687 0.10546875,0 0.1171875,-0.023437 0.1640625,-0.1875 0.28125,-0.984375 0.70312497,-1.3007812 1.06640627,-1.3007812 0.082031,0 0.2578125,0 0.2578125,0.328125 0,0.2695312 -0.1054688,0.5390625 -0.1757813,0.7382812 -0.421875,1.1132813 -0.609375,1.7109375 -0.609375,2.203125 0,0.93750002 0.65625,1.25390627 1.2773438,1.25390627 0.4101562,0 0.7617187,-0.17578125 1.0664062,-0.46875 -0.140625,0.5390625 -0.2695312,1.0546875 -0.6914062,1.61718753 -0.2695313,0.3515625 -0.6679688,0.65625 -1.1484375,0.65625 -0.1523438,0 -0.6210938,-0.035156 -0.79687502,-0.4453125 0.16406252,0 0.30468752,0 0.44531252,-0.1171875 0.1054687,-0.09375 0.2109375,-0.234375 0.2109375,-0.43359378 0,-0.328125 -0.28125,-0.375 -0.3867188,-0.375 -0.24609372,0 -0.58593747,0.17578125 -0.58593747,0.69140628 0,0.5273437 0.45703125,0.9140625 1.11328127,0.9140625 1.078125,0 2.15625,-0.9609375 2.4492187,-2.14453128 z m 0,0"
       style="fill:#000000;fill-opacity:1;fill-rule:nonzero;stroke:none"
       aria-label="y"
       transform="matrix(1.3333333,0,0,1.3333333,160.60133,41.444)" />
    <g
       id="g3"
       aria-label="p(w)"
       transform="matrix(1.3333333,0,0,1.3333333,6.032,78.924)">
      <path
         id="path4"
         d="m 0.4681875,1.2786797 c -0.0820313,0.3632812 -0.10546875,0.4335937 -0.5625,0.4335937 -0.12890625,0 -0.24609375,0 -0.24609375,0.1992188 0,0.082031 0.0585938,0.1289062 0.140625,0.1289062 0.28125,0 0.5859375,-0.035156 0.87890625,-0.035156 0.3515625,0 0.703125,0.035156 1.0429687,0.035156 0.046875,0 0.1875,0 0.1875,-0.2109375 0,-0.1171875 -0.1054687,-0.1171875 -0.2460937,-0.1171875 -0.5273438,0 -0.5273438,-0.070312 -0.5273438,-0.1640625 0,-0.1289062 0.4335938,-1.83984371 0.515625,-2.09765621 0.1289063,0.29296875 0.421875,0.66796875 0.9609375,0.66796875 1.21875,0 2.53125,-1.53515624 2.53125,-3.08203124 0,-0.984375 -0.5976562,-1.6757813 -1.3945312,-1.6757813 -0.5273438,0 -1.03125,0.375 -1.3828125,0.7851563 -0.09375,-0.5625 -0.5507813,-0.7851563 -0.9375,-0.7851563 -0.48046875,0 -0.6796875,0.4101563 -0.7734375,0.5976563 -0.19921875,0.3632812 -0.328125,0.984375 -0.328125,1.0195312 0,0.1054688 0.10546875,0.1054688 0.12890625,0.1054688 0.09375,0 0.10546875,-0.011719 0.17578125,-0.2460938 0.17578125,-0.7382812 0.3867187,-1.2421875 0.7617187,-1.2421875 0.1757813,0 0.328125,0.082031 0.328125,0.4804688 0,0.2460937 -0.035156,0.3515625 -0.070312,0.5390625 z M 2.31975,-3.2799141 c 0.070312,-0.28125 0.3515625,-0.5742187 0.5507812,-0.7265625 0.3632813,-0.328125 0.6679688,-0.3984375 0.84375,-0.3984375 0.421875,0 0.6796875,0.3632813 0.6796875,0.984375 0,0.6210938 -0.3515625,1.828125 -0.5390625,2.2265625 C 3.491625,-0.45569531 2.9877187,-0.11585156 2.601,-0.11585156 c -0.6914063,0 -0.8320313,-0.8671875 -0.8320313,-0.93750004 0,-0.011719 0,-0.035156 0.035156,-0.1640625 z m 0,0"
         style="fill:#000000;fill-opacity:1;fill-rule:nonzero;stroke:none" />
      <path
         id="path5"
         d="m 8.7621328,2.5208672 c 0,-0.035156 0,-0.046875 -0.1875,-0.234375 -1.3125,-1.32421876 -1.640625,-3.3046875 -1.640625,-4.9101563 0,-1.828125 0.3984375,-3.65625 1.6875,-4.96875 0.140625,-0.1289062 0.140625,-0.140625 0.140625,-0.1757812 0,-0.070312 -0.046875,-0.1054688 -0.1054687,-0.1054688 -0.1054688,0 -1.0546875,0.7148438 -1.6757813,2.0507813 -0.5390625,1.1484375 -0.65625,2.3203125 -0.65625,3.1992187 0,0.8203125 0.1171875,2.08593754 0.6914063,3.28125004 0.6328125,1.28906246 1.5351562,1.96874996 1.640625,1.96874996 0.058594,0 0.1054687,-0.035156 0.1054687,-0.1054687 z m 0,0"
         style="fill:#000000;fill-opacity:1;fill-rule:nonzero;stroke:none" />
      <path
         id="path6"
         d="m 14.217211,-3.5611641 c 0.04687,-0.2226562 0.152344,-0.6210937 0.152344,-0.6796875 0,-0.1875 -0.140625,-0.28125 -0.304688,-0.28125 -0.117187,0 -0.304687,0.082031 -0.386719,0.2929688 -0.02344,0.070312 -0.527343,2.0742187 -0.597656,2.3554687 -0.07031,0.3046875 -0.09375,0.5039063 -0.09375,0.6914063 0,0.1171875 0,0.1289062 0.01172,0.18749999 -0.246094,0.55078125 -0.550781,0.87890625 -0.960938,0.87890625 -0.84375,0 -0.84375,-0.7734375 -0.84375,-0.94921874 0,-0.3398438 0.04687,-0.75 0.539063,-2.0390625 0.117187,-0.3164063 0.1875,-0.46875 0.1875,-0.6796875 0,-0.46875 -0.351563,-0.8554688 -0.867188,-0.8554688 -0.996093,0 -1.3828121,1.5234375 -1.3828121,1.6171875 0,0.1054688 0.1054688,0.1054688 0.1289063,0.1054688 0.1054687,0 0.1171875,-0.023437 0.1640625,-0.1875 0.2812503,-0.984375 0.6914063,-1.3007813 1.0664063,-1.3007813 0.09375,0 0.257812,0.011719 0.257812,0.3398438 0,0.2695312 -0.117187,0.5625 -0.1875,0.7382812 -0.46875,1.2421875 -0.585937,1.7226563 -0.585937,2.1210938 0,0.94921874 0.703125,1.32421874 1.488281,1.32421874 0.175781,0 0.667969,0 1.089844,-0.73828125 0.269531,0.66796875 0.996094,0.73828125 1.3125,0.73828125 0.785156,0 1.253906,-0.66796875 1.523437,-1.28906254 0.351563,-0.8203125 0.691407,-2.2265625 0.691407,-2.7304687 0,-0.5859375 -0.28125,-0.7382813 -0.457032,-0.7382813 -0.269531,0 -0.527343,0.2695313 -0.527343,0.5039063 0,0.140625 0.05859,0.1992187 0.152343,0.28125 0.117188,0.1171875 0.386719,0.3867187 0.386719,0.890625 0,0.3632812 -0.304687,1.3945312 -0.585937,1.921875 -0.269532,0.56249999 -0.632813,0.92578124 -1.148438,0.92578124 -0.492187,0 -0.785156,-0.31640625 -0.785156,-0.91406254 0,-0.2929687 0.08203,-0.6210937 0.117187,-0.7617187 z m 0,0"
         style="fill:#000000;fill-opacity:1;fill-rule:nonzero;stroke:none" />
      <path
         id="path7"
         d="m 20.202562,-2.6236641 c 0,-0.8203125 -0.117187,-2.0859375 -0.691406,-3.28125 -0.632812,-1.2890625 -1.535156,-1.96875 -1.640625,-1.96875 -0.05859,0 -0.105469,0.046875 -0.105469,0.1054688 0,0.035156 0,0.046875 0.199219,0.2460937 1.03125,1.03125 1.628906,2.7070313 1.628906,4.8984375 0,1.79296879 -0.386718,3.6445313 -1.6875,4.96875 -0.140625,0.1289063 -0.140625,0.140625 -0.140625,0.1757813 0,0.058594 0.04687,0.1054687 0.105469,0.1054687 0.105469,0 1.054688,-0.7148437 1.664063,-2.05078121 0.539062,-1.1484375 0.667968,-2.32031249 0.667968,-3.19921879 z m 0,0"
         style="fill:#000000;fill-opacity:1;fill-rule:nonzero;stroke:none" />
    </g>
    <g
       id="g7"
       aria-label="p(x)"
       transform="matrix(1.3333333,0,0,1.3333333,80.033333,117.18133)">
      <path
         id="path8"
         d="m 0.47011719,1.2761094 c -0.0820313,0.3632812 -0.10546875,0.4335937 -0.5625,0.4335937 -0.12890625,0 -0.24609375,0 -0.24609375,0.1992188 0,0.082031 0.0585938,0.1289062 0.140625,0.1289062 0.28125,0 0.5859375,-0.035156 0.87890625,-0.035156 0.35156251,0 0.70312501,0.035156 1.04296871,0.035156 0.046875,0 0.1875,0 0.1875,-0.2109375 0,-0.1171875 -0.1054687,-0.1171875 -0.2460937,-0.1171875 -0.5273438,0 -0.5273438,-0.070312 -0.5273438,-0.1640625 0,-0.1289062 0.4335938,-1.83984372 0.515625,-2.09765622 0.1289063,0.29296875 0.421875,0.66796875 0.9609375,0.66796875 1.21875,0 2.53125,-1.53515623 2.53125,-3.08203123 0,-0.984375 -0.5976562,-1.6757813 -1.3945312,-1.6757813 -0.5273438,0 -1.03125,0.375 -1.3828125,0.7851563 -0.09375,-0.5625 -0.5507813,-0.7851563 -0.9375,-0.7851563 -0.48046876,0 -0.67968751,0.4101563 -0.77343751,0.5976563 -0.19921875,0.3632812 -0.328125,0.984375 -0.328125,1.0195312 0,0.1054688 0.10546875,0.1054688 0.12890625,0.1054688 0.09375,0 0.10546875,-0.011719 0.17578125,-0.2460938 0.17578125,-0.7382812 0.38671871,-1.2421875 0.76171871,-1.2421875 0.1757813,0 0.328125,0.082031 0.328125,0.4804688 0,0.2460937 -0.035156,0.3515625 -0.070312,0.5390625 z M 2.3216797,-3.2824844 c 0.070312,-0.28125 0.3515625,-0.5742187 0.5507812,-0.7265625 0.3632813,-0.328125 0.6679688,-0.3984375 0.84375,-0.3984375 0.421875,0 0.6796875,0.3632813 0.6796875,0.984375 0,0.6210938 -0.3515625,1.828125 -0.5390625,2.2265625 -0.3632812,0.73828128 -0.8671875,1.07812503 -1.2539062,1.07812503 -0.6914063,0 -0.8320313,-0.8671875 -0.8320313,-0.93750003 0,-0.011719 0,-0.035156 0.035156,-0.1640625 z m 0,0"
         style="fill:#000000;fill-opacity:1;fill-rule:nonzero;stroke:none" />
      <path
         id="path9"
         d="m 8.7640625,2.5182969 c 0,-0.035156 0,-0.046875 -0.1875,-0.234375 -1.3125,-1.32421877 -1.640625,-3.3046875 -1.640625,-4.9101563 0,-1.828125 0.3984375,-3.65625 1.6875,-4.96875 0.140625,-0.1289062 0.140625,-0.140625 0.140625,-0.1757812 0,-0.070312 -0.046875,-0.1054688 -0.1054687,-0.1054688 -0.1054688,0 -1.0546875,0.7148438 -1.6757813,2.0507813 -0.5390625,1.1484375 -0.65625,2.3203125 -0.65625,3.1992187 0,0.8203125 0.1171875,2.08593753 0.6914063,3.28125003 0.6328125,1.28906247 1.5351562,1.96874997 1.640625,1.96874997 0.058594,0 0.1054687,-0.035156 0.1054687,-0.1054687 z m 0,0"
         style="fill:#000000;fill-opacity:1;fill-rule:nonzero;stroke:none" />
      <path
         id="path10"
         d="m 12.868555,-3.1770156 c 0.07031,-0.2695313 0.304687,-1.2304688 1.042968,-1.2304688 0.04687,0 0.304688,0 0.527344,0.1289063 -0.292969,0.058594 -0.503906,0.3164062 -0.503906,0.5742187 0,0.1640625 0.117187,0.3632813 0.398437,0.3632813 0.234375,0 0.5625,-0.1875 0.5625,-0.609375 0,-0.5390625 -0.621093,-0.6914063 -0.972656,-0.6914063 -0.609375,0 -0.972656,0.5507813 -1.101562,0.796875 -0.269532,-0.6914062 -0.832032,-0.796875 -1.136719,-0.796875 -1.089844,0 -1.6875001,1.359375 -1.6875001,1.6171875 0,0.1054688 0.1054691,0.1054688 0.1289061,0.1054688 0.08203,0 0.105469,-0.023437 0.128906,-0.1171875 0.363282,-1.1132813 1.054688,-1.3710938 1.40625,-1.3710938 0.199219,0 0.574219,0.09375 0.574219,0.703125 0,0.3164063 -0.1875,1.03125 -0.574219,2.4960938 -0.164062,0.65624998 -0.527343,1.08984373 -0.996093,1.08984373 -0.05859,0 -0.304688,0 -0.527344,-0.140625 0.269531,-0.046875 0.492187,-0.26953125 0.492187,-0.5625 0,-0.28125003 -0.222656,-0.36328123 -0.386718,-0.36328123 -0.3164066,0 -0.5742191,0.26953123 -0.5742191,0.60937498 0,0.48046875 0.5273441,0.69140625 0.9843751,0.69140625 0.691406,0 1.078125,-0.73828125 1.101562,-0.796875 0.128907,0.38671875 0.503907,0.796875 1.136719,0.796875 1.078125,0 1.675781,-1.35937503 1.675781,-1.61718753 0,-0.1054687 -0.09375,-0.1054687 -0.117187,-0.1054687 -0.09375,0 -0.117188,0.035156 -0.140625,0.1171875 -0.351563,1.12499998 -1.054688,1.37109373 -1.394531,1.37109373 -0.410157,0 -0.574219,-0.33984375 -0.574219,-0.69140625 0,-0.23437498 0.05859,-0.45703128 0.175781,-0.92578128 z m 0,0"
         style="fill:#000000;fill-opacity:1;fill-rule:nonzero;stroke:none" />
      <path
         id="path11"
         d="m 18.402734,-2.6262344 c 0,-0.8203125 -0.117187,-2.0859375 -0.691406,-3.28125 -0.632812,-1.2890625 -1.535156,-1.96875 -1.640625,-1.96875 -0.05859,0 -0.105469,0.046875 -0.105469,0.1054688 0,0.035156 0,0.046875 0.199219,0.2460937 1.03125,1.03125 1.628906,2.7070313 1.628906,4.8984375 0,1.79296878 -0.386718,3.6445313 -1.6875,4.96875 -0.140625,0.1289063 -0.140625,0.140625 -0.140625,0.1757813 0,0.058594 0.04687,0.1054687 0.105469,0.1054687 0.105469,0 1.054688,-0.7148437 1.664063,-2.05078122 0.539062,-1.1484375 0.667968,-2.32031248 0.667968,-3.19921878 z m 0,0"
         style="fill:#000000;fill-opacity:1;fill-rule:nonzero;stroke:none" />
    </g>
    <g
       id="g11"
       aria-label="p(y),"
       transform="matrix(1.3333333,0,0,1.3333333,151.63467,117.18133)">
      <path
         id="path12"
         d="m 0.46735938,1.2761094 c -0.0820313,0.3632812 -0.10546875,0.4335937 -0.5625,0.4335937 -0.12890625,0 -0.24609375,0 -0.24609375,0.1992188 0,0.082031 0.0585938,0.1289062 0.140625,0.1289062 0.28125,0 0.5859375,-0.035156 0.87890625,-0.035156 0.35156252,0 0.70312502,0.035156 1.04296872,0.035156 0.046875,0 0.1875,0 0.1875,-0.2109375 0,-0.1171875 -0.1054687,-0.1171875 -0.2460937,-0.1171875 -0.5273438,0 -0.5273438,-0.070312 -0.5273438,-0.1640625 0,-0.1289062 0.4335938,-1.83984372 0.515625,-2.09765622 0.1289063,0.29296875 0.421875,0.66796875 0.9609375,0.66796875 1.21875,0 2.53125,-1.53515623 2.53125,-3.08203123 0,-0.984375 -0.5976562,-1.6757813 -1.3945312,-1.6757813 -0.5273438,0 -1.03125,0.375 -1.3828125,0.7851563 -0.09375,-0.5625 -0.5507813,-0.7851563 -0.9375,-0.7851563 -0.48046877,0 -0.67968752,0.4101563 -0.77343752,0.5976563 -0.19921875,0.3632812 -0.328125,0.984375 -0.328125,1.0195312 0,0.1054688 0.10546875,0.1054688 0.12890625,0.1054688 0.09375,0 0.10546875,-0.011719 0.17578125,-0.2460938 0.17578125,-0.7382812 0.38671872,-1.2421875 0.76171872,-1.2421875 0.1757813,0 0.328125,0.082031 0.328125,0.4804688 0,0.2460937 -0.035156,0.3515625 -0.070312,0.5390625 z M 2.3189219,-3.2824844 c 0.070312,-0.28125 0.3515625,-0.5742187 0.5507812,-0.7265625 0.3632813,-0.328125 0.6679688,-0.3984375 0.84375,-0.3984375 0.421875,0 0.6796875,0.3632813 0.6796875,0.984375 0,0.6210938 -0.3515625,1.828125 -0.5390625,2.2265625 -0.3632812,0.73828128 -0.8671875,1.07812503 -1.2539062,1.07812503 -0.6914063,0 -0.8320313,-0.8671875 -0.8320313,-0.93750003 0,-0.011719 0,-0.035156 0.035156,-0.1640625 z m 0,0"
         style="fill:#000000;fill-opacity:1;fill-rule:nonzero;stroke:none" />
      <path
         id="path13"
         d="m 8.7642344,2.5182969 c 0,-0.035156 0,-0.046875 -0.1875,-0.234375 -1.3125,-1.32421877 -1.640625,-3.3046875 -1.640625,-4.9101563 0,-1.828125 0.3984375,-3.65625 1.6875,-4.96875 0.140625,-0.1289062 0.140625,-0.140625 0.140625,-0.1757812 0,-0.070312 -0.046875,-0.1054688 -0.1054688,-0.1054688 -0.1054687,0 -1.0546875,0.7148438 -1.6757812,2.0507813 -0.5390625,1.1484375 -0.65625,2.3203125 -0.65625,3.1992187 0,0.8203125 0.1171875,2.08593753 0.6914062,3.28125003 0.6328125,1.28906247 1.5351563,1.96874997 1.640625,1.96874997 0.058594,0 0.1054688,-0.035156 0.1054688,-0.1054687 z m 0,0"
         style="fill:#000000;fill-opacity:1;fill-rule:nonzero;stroke:none" />
      <path
         id="path14"
         d="m 14.465406,-3.9973281 c 0.04687,-0.1523438 0.04687,-0.1757813 0.04687,-0.2460938 0,-0.1875 -0.152343,-0.28125 -0.304687,-0.28125 -0.105469,0 -0.269531,0.058594 -0.363281,0.2226563 -0.02344,0.046875 -0.105469,0.375 -0.152344,0.5625 -0.07031,0.2695312 -0.140625,0.5625 -0.210938,0.84375 l -0.46875,1.8867187 c -0.04687,0.15234378 -0.492187,0.89062503 -1.183593,0.89062503 -0.539063,0 -0.65625,-0.45703125 -0.65625,-0.84375 0,-0.49218753 0.175781,-1.13671873 0.539062,-2.06250003 0.164063,-0.4335937 0.210938,-0.5507812 0.210938,-0.7617187 0,-0.46875 -0.339844,-0.8554688 -0.867188,-0.8554688 -0.996094,0 -1.3828125,1.5234375 -1.3828125,1.6171875 0,0.1054688 0.1054688,0.1054688 0.1289063,0.1054688 0.1054687,0 0.1171875,-0.023437 0.1640625,-0.1875 0.2812497,-0.984375 0.7031247,-1.3007813 1.0664067,-1.3007813 0.08203,0 0.257812,0 0.257812,0.328125 0,0.2695313 -0.105469,0.5390625 -0.175781,0.7382813 -0.421875,1.1132812 -0.609375,1.7109375 -0.609375,2.203125 0,0.93749998 0.65625,1.25390623 1.277344,1.25390623 0.410156,0 0.761718,-0.17578125 1.066406,-0.46875 -0.140625,0.5390625 -0.269531,1.0546875 -0.691406,1.61718747 -0.269532,0.3515625 -0.667969,0.65625 -1.148438,0.65625 -0.152344,0 -0.621094,-0.035156 -0.796875,-0.4453125 0.164063,0 0.304688,0 0.445313,-0.1171875 0.105468,-0.09375 0.210937,-0.234375 0.210937,-0.43359372 0,-0.328125 -0.28125,-0.375 -0.386719,-0.375 -0.246093,0 -0.5859372,0.17578125 -0.5859372,0.69140622 0,0.5273438 0.4570312,0.9140625 1.1132812,0.9140625 1.078125,0 2.15625,-0.9609375 2.449219,-2.14453122 z m 0,0"
         style="fill:#000000;fill-opacity:1;fill-rule:nonzero;stroke:none" />
      <path
         id="path15"
         d="m 17.925367,-2.6262344 c 0,-0.8203125 -0.117187,-2.0859375 -0.691406,-3.28125 -0.632813,-1.2890625 -1.535156,-1.96875 -1.640625,-1.96875 -0.05859,0 -0.105469,0.046875 -0.105469,0.1054688 0,0.035156 0,0.046875 0.199219,0.2460937 1.03125,1.03125 1.628906,2.7070313 1.628906,4.8984375 0,1.79296878 -0.386719,3.6445313 -1.6875,4.96875 -0.140625,0.1289063 -0.140625,0.140625 -0.140625,0.1757813 0,0.058594 0.04687,0.1054687 0.105469,0.1054687 0.105469,0 1.054687,-0.7148437 1.664062,-2.05078122 0.539063,-1.1484375 0.667969,-2.32031248 0.667969,-3.19921878 z m 0,0"
         style="fill:#000000;fill-opacity:1;fill-rule:nonzero;stroke:none" />
      <path
         id="path16"
         d="m 24.605055,-0.01295312 c 0,-0.66796875 -0.257813,-1.10156248 -0.667969,-1.10156248 -0.375,0 -0.5625,0.28124998 -0.5625,0.56249998 0,0.26953125 0.175781,0.55078125 0.5625,0.55078125 0.152344,0 0.304687,-0.05859375 0.410156,-0.1640625 0.02344,0.8203125 -0.269531,1.46484377 -0.726562,1.95703127 -0.07031,0.070312 -0.08203,0.070312 -0.08203,0.1171875 0,0.070312 0.05859,0.1171875 0.105469,0.1171875 0.128906,0 0.960938,-0.8320313 0.960938,-2.03906252 z m 0,0"
         style="fill:#000000;fill-opacity:1;fill-rule:nonzero;stroke:none" />
    </g>
    <path
       id="path17"
       d="M -53.46393,34.76538 V -0.0924"
       style="fill:none;stroke:#000000;stroke-width:0.41998;stroke-linecap:butt;stroke-linejoin:miter;stroke-miterlimit:10;stroke-dasharray:0.41998, 1.99255;stroke-dashoffset:0;stroke-opacity:1"
       transform="matrix(1.3333333,0,0,-1.3333333,91.484,62.905333)" />
    <path
       id="path18"
       d="M -44.31798,42.10402 47.22455,22.86147"
       style="fill:none;stroke:#000000;stroke-width:0.41998;stroke-linecap:butt;stroke-linejoin:miter;stroke-miterlimit:10;stroke-dasharray:none;stroke-opacity:1"
       transform="matrix(1.3333333,0,0,-1.3333333,91.484,62.905333)" />
    <path
       id="path19"
       d="M -2.18391,2.51988 C -1.78491,1.00793 -0.8958,0.29398 0,0 -0.8958,-0.29398 -1.78491,-1.00793 -2.18391,-2.51988"
       style="fill:none;stroke:#000000;stroke-width:0.41998;stroke-linecap:round;stroke-linejoin:round;stroke-miterlimit:10;stroke-dasharray:none;stroke-opacity:1"
       transform="matrix(1.3047867,0.27425333,0.27425333,-1.3047867,154.72401,32.48096)" />
    <path
       id="path20"
       d="m 3.7139844,-2.5789687 c 0.023437,-0.09375 0.023437,-0.1289063 0.023437,-0.140625 0,-0.1523438 -0.1289063,-0.2226563 -0.234375,-0.2226563 -0.1640625,0 -0.2929688,0.1289063 -0.328125,0.2695313 -0.1171875,-0.1992188 -0.3515625,-0.3984375 -0.7148438,-0.3984375 -0.8671875,0 -1.78124997,0.9257812 -1.78124997,1.921875 0,0.72656245 0.48046877,1.14843745 1.05468747,1.14843745 0.328125,0 0.6328125,-0.1640625 0.8789063,-0.375 L 2.4483594,0.24525 C 2.3780469,0.53821875 2.3311719,0.72571875 2.0616406,0.9718125 1.7569531,1.229625 1.4522656,1.229625 1.2764844,1.229625 0.96007813,1.229625 0.86632813,1.2061875 0.74914063,1.18275 0.92492188,1.089 0.97179688,0.9249375 0.97179688,0.8311875 c 0,-0.1640625 -0.140625,-0.2578125 -0.26953125,-0.2578125 -0.19921875,0 -0.3984375,0.15234375 -0.3984375,0.421875 0,0.421875 0.59765625,0.421875 0.98437497,0.421875 1.0898438,0 1.5585938,-0.55078125 1.6640625,-0.94921875 z M 2.7413281,-0.926625 c -0.023437,0.10546875 -0.023437,0.1171875 -0.140625,0.2578125 -0.2460937,0.29296875 -0.5742187,0.46875 -0.84375,0.46875 -0.3515625,0 -0.5273437,-0.29296875 -0.5273437,-0.65625 0,-0.3046875 0.1875,-1.0898437 0.375,-1.3945312 0.2929687,-0.4921875 0.6210937,-0.6328125 0.8554687,-0.6328125 0.4921875,0 0.6210938,0.5273437 0.6210938,0.5976562 0,0.011719 0,0.023437 -0.023437,0.1054688 z m 0,0"
       style="fill:#000000;fill-opacity:1;fill-rule:nonzero;stroke:none"
       aria-label="g"
       transform="matrix(1.3333333,0,0,1.3333333,96.993333,14.548)" />
    <path
       id="path21"
       d="M -44.83923,37.85037 -6.97556,22.09485"
       style="fill:none;stroke:#000000;stroke-width:0.41998;stroke-linecap:butt;stroke-linejoin:miter;stroke-miterlimit:10;stroke-dasharray:2.93988, 1.67993;stroke-dashoffset:0;stroke-opacity:1"
       transform="matrix(1.3333333,0,0,-1.3333333,91.484,62.905333)" />
    <path
       id="path22"
       d="M -2.18391,2.51988 C -1.78491,1.00793 -0.8958,0.29398 0,0 -0.8958,-0.29398 -1.78491,-1.00793 -2.18391,-2.51988"
       style="fill:none;stroke:#000000;stroke-width:0.41998;stroke-linecap:round;stroke-linejoin:round;stroke-miterlimit:10;stroke-dasharray:none;stroke-opacity:1"
       transform="matrix(1.2309333,0.51218667,0.51218667,-1.2309333,82.44172,33.55308)" />
    <g
       id="g22"
       aria-label="∃!&#10;˜&#10;h"
       transform="matrix(1.3333333,0,0,1.3333333,36.846667,32.804)">
      <path
         id="path23"
         d="m 3.9733984,-4.5697969 c 0,-0.234375 -0.046875,-0.2695312 -0.28125,-0.2695312 H 0.82105469 c -0.1171875,0 -0.28125,0 -0.28125,0.1757812 0,0.1640625 0.1640625,0.1640625 0.28125,0.1640625 H 3.6218359 v 1.9101563 H 0.93824219 c -0.1171875,0 -0.29296875,0 -0.29296875,0.1757812 0,0.1640625 0.15234375,0.1640625 0.2578125,0.1640625 H 3.6218359 v 1.91015628 H 0.82105469 c -0.1171875,0 -0.28125,0 -0.28125,0.17578125 0,0.164062495 0.1640625,0.164062495 0.28125,0.164062495 H 3.6921484 c 0.234375,0 0.28125,-0.035156245 0.28125,-0.269531245 z m 0,0"
         style="fill:#000000;fill-opacity:1;fill-rule:nonzero;stroke:none" />
      <path
         id="path24"
         d="m 6.0358984,-4.5932344 c 0,-0.2578125 -0.2109375,-0.3867187 -0.3984375,-0.3867187 -0.1992187,0 -0.3984375,0.1523437 -0.3984375,0.3867187 l 0.2695313,3.0703125 c 0.011719,0.1523438 0.035156,0.1757813 0.1289062,0.1757813 0.09375,0 0.1171875,-0.023437 0.1289063,-0.1640625 z m 0,4.18359378 c 0,-0.2109375 -0.1757812,-0.38671875 -0.3984375,-0.38671875 -0.234375,0 -0.3984375,0.1875 -0.3984375,0.38671875 0,0.24609375 0.1992188,0.410156245 0.3984375,0.410156245 0.2226563,0 0.3984375,-0.175781245 0.3984375,-0.410156245 z M 11.388437,-6.5268281 c -0.210937,0.2109375 -0.410156,0.3164062 -0.609375,0.3164062 -0.175781,0 -0.386718,-0.1054687 -0.445312,-0.140625 -0.246094,-0.1171875 -0.3984375,-0.1757812 -0.5507813,-0.1757812 -0.28125,0 -0.3867187,0.1054687 -0.8203125,0.5507812 l 0.1289063,0.140625 c 0.2109375,-0.2109375 0.4101562,-0.3164062 0.609375,-0.3164062 0.1757812,0 0.3867185,0.1054687 0.4453125,0.140625 0.246094,0.1171875 0.398437,0.1757812 0.550781,0.1757812 0.28125,0 0.386719,-0.1054687 0.820313,-0.5625 z m 0,0"
         style="fill:#000000;fill-opacity:1;fill-rule:nonzero;stroke:none" />
      <path
         id="path25"
         d="m 10.307383,-4.6283906 c 0.01172,-0.011719 0.03516,-0.1054688 0.03516,-0.1171875 0,-0.035156 -0.03516,-0.09375 -0.117187,-0.09375 -0.140625,0 -0.7148442,0.058594 -0.8906254,0.070312 -0.058594,0.011719 -0.1523438,0.011719 -0.1523438,0.1640625 0,0.09375 0.09375,0.09375 0.1757813,0.09375 0.3398437,0 0.3398437,0.046875 0.3398437,0.1054687 0,0.046875 -0.011719,0.09375 -0.035156,0.1523438 l -0.9726563,3.94921873 c -0.035156,0.12890625 -0.035156,0.140625 -0.035156,0.15234375 0,0.10546875 0.082031,0.22265625 0.234375,0.22265625 0.070312,0 0.2109375,-0.03515625 0.28125,-0.1875 0.023437,-0.0351563 0.082031,-0.29296875 0.1171875,-0.43359375 L 9.4519141,-1.1713594 c 0.023437,-0.1054687 0.09375,-0.3632812 0.1171875,-0.46875 0.070312,-0.2695312 0.070312,-0.28125 0.1992187,-0.5039062 0.2226563,-0.3398438 0.5742187,-0.7382813 1.1249997,-0.7382813 0.386719,0 0.410157,0.328125 0.410157,0.4921875 0,0.421875 -0.304688,1.1953125 -0.410157,1.48828128 -0.08203,0.1875 -0.105468,0.2578125 -0.105468,0.375 0,0.36328125 0.304687,0.59765625 0.65625,0.59765625 0.703125,0 1.007812,-0.9609375 1.007812,-1.06640625 0,-0.09375 -0.09375,-0.09375 -0.117187,-0.09375 -0.09375,0 -0.105469,0.046875 -0.128907,0.11718746 -0.164062,0.5625 -0.46875,0.84375 -0.738281,0.84375 -0.140625,0 -0.175781,-0.09375 -0.175781,-0.24609375 0,-0.15234375 0.03516,-0.24609375 0.164062,-0.5625 0.08203,-0.21093751 0.363282,-0.94921871 0.363282,-1.34765621 0,-0.1054688 0,-0.3984375 -0.257813,-0.5976563 -0.117187,-0.09375 -0.316406,-0.1875 -0.644531,-0.1875 -0.503906,0 -0.878906,0.2695313 -1.1367189,0.5742188 z m 0,0"
         style="fill:#000000;fill-opacity:1;fill-rule:nonzero;stroke:none" />
    </g>
    <path
       id="path26"
       d="M 1.1375,12.05089 V -28.78613"
       style="fill:none;stroke:#000000;stroke-width:0.41998;stroke-linecap:butt;stroke-linejoin:miter;stroke-miterlimit:10;stroke-dasharray:0.41998, 1.99255;stroke-dashoffset:0;stroke-opacity:1"
       transform="matrix(1.3333333,0,0,-1.3333333,91.484,62.905333)" />
    <path
       id="path27"
       d="M 8.86285,18.72191 H 46.69429"
       style="fill:none;stroke:#000000;stroke-width:0.41998;stroke-linecap:butt;stroke-linejoin:miter;stroke-miterlimit:10;stroke-dasharray:none;stroke-opacity:1"
       transform="matrix(1.3333333,0,0,-1.3333333,91.484,62.905333)" />
    <path
       id="path28"
       d="M -2.18391,2.51988 C -1.78491,1.00793 -0.8958,0.29398 0,0 -0.8958,-0.29398 -1.78491,-1.00793 -2.18391,-2.51988"
       style="fill:none;stroke:#000000;stroke-width:0.41998;stroke-linecap:round;stroke-linejoin:round;stroke-miterlimit:10;stroke-dasharray:none;stroke-opacity:1"
       transform="matrix(1.3333333,0,0,-1.3333333,154.02303,37.942787)" />
    <path
       id="path29"
       d="m 2.8364922,-2.7524922 h 0.6796875 c 0.140625,0 0.234375,0 0.234375,-0.1523437 0,-0.09375 -0.09375,-0.09375 -0.2109375,-0.09375 h -0.65625 c 0.1640625,-0.890625 0.2226562,-1.2070313 0.28125,-1.4179688 0.035156,-0.1523437 0.1875,-0.2929687 0.3515625,-0.2929687 0,0 0.1992187,0 0.328125,0.082031 -0.2929688,0.09375 -0.3046875,0.3398438 -0.3046875,0.3867188 0,0.1523437 0.1171875,0.2578125 0.2695312,0.2578125 0.1992188,0 0.3984375,-0.1640625 0.3984375,-0.4335938 0,-0.3164062 -0.3398437,-0.4921875 -0.6914062,-0.4921875 -0.3046875,0 -0.6445313,0.1757813 -0.84375,0.5273438 -0.1289063,0.2578125 -0.1875,0.5742187 -0.3398438,1.3828125 H 1.7818047 c -0.140625,0 -0.2226563,0 -0.2226563,0.1523437 0,0.09375 0.082031,0.09375 0.2109375,0.09375 h 0.515625 c 0,0.046875 -0.4453125,2.55468751 -0.609375,3.29296876 -0.035156,0.1640625 -0.1523437,0.69140624 -0.4921875,0.69140624 0,0 -0.1757812,0 -0.30468746,-0.082031 0.28124996,-0.09375 0.30468746,-0.35156254 0.30468746,-0.38671879 0,-0.15234375 -0.1171875,-0.2578125 -0.28124996,-0.2578125 -0.1875,0 -0.3984375,0.1640625 -0.3984375,0.421875 0,0.31640629 0.328125,0.49218749 0.67968746,0.49218749 0.4453125,0 0.75,-0.45703124 0.84375,-0.60937499 0.2460938,-0.46875 0.4101563,-1.32421875 0.421875,-1.40625 z m 0,0"
       style="fill:#000000;fill-opacity:1;fill-rule:nonzero;stroke:none"
       aria-label="f"
       transform="matrix(1.3333333,0,0,1.3333333,125.69067,47.697333)" />
    <path
       id="path30"
       d="M 54.60143,10.0092 V -28.78613"
       style="fill:none;stroke:#000000;stroke-width:0.41998;stroke-linecap:butt;stroke-linejoin:miter;stroke-miterlimit:10;stroke-dasharray:0.41998, 1.99255;stroke-dashoffset:0;stroke-opacity:1"
       transform="matrix(1.3333333,0,0,-1.3333333,91.484,62.905333)" />
    <path
       id="path31"
       d="M -38.11441,-17.45598 -13.6844,-30.29813"
       style="fill:none;stroke:#000000;stroke-width:0.41998;stroke-linecap:butt;stroke-linejoin:miter;stroke-miterlimit:10;stroke-dasharray:none;stroke-opacity:1"
       transform="matrix(1.3333333,0,0,-1.3333333,91.484,62.905333)" />
    <path
       id="path32"
       d="M -2.18391,2.51988 C -1.78491,1.00793 -0.8958,0.29398 0,0 -0.8958,-0.29398 -1.78491,-1.00793 -2.18391,-2.51988"
       style="fill:none;stroke:#000000;stroke-width:0.41998;stroke-linecap:round;stroke-linejoin:round;stroke-miterlimit:10;stroke-dasharray:none;stroke-opacity:1"
       transform="matrix(1.18016,0.62036,0.62036,-1.18016,73.485907,103.43308)" />
    <path
       id="path33"
       d="m 2.1803828,-4.6291562 c 0.011719,-0.011719 0.035156,-0.1054688 0.035156,-0.1171875 0,-0.035156 -0.035156,-0.09375 -0.1171875,-0.09375 -0.140625,0 -0.7148438,0.058594 -0.890625,0.070312 -0.058594,0.011719 -0.1523438,0.011719 -0.1523438,0.1640625 0,0.09375 0.09375,0.09375 0.1757813,0.09375 0.3398437,0 0.3398437,0.046875 0.3398437,0.1054687 0,0.046875 -0.011719,0.09375 -0.035156,0.1523438 L 0.56319521,-0.304938 c -0.0351563,0.12890625 -0.0351563,0.140625 -0.0351563,0.15234375 0,0.10546875 0.0820313,0.22265625 0.234375,0.22265625 0.0703125,0 0.2109375,-0.03515625 0.28124999,-0.1875 0.023437,-0.0351563 0.082031,-0.29296875 0.1171875,-0.43359375 L 1.3249141,-1.172125 c 0.023437,-0.1054687 0.09375,-0.3632812 0.1171875,-0.46875 0.070312,-0.2695312 0.070312,-0.28125 0.1992187,-0.5039062 0.2226563,-0.3398438 0.5742188,-0.7382813 1.125,-0.7382813 0.3867188,0 0.4101563,0.328125 0.4101563,0.4921875 0,0.421875 -0.3046875,1.1953125 -0.4101563,1.48828125 -0.082031,0.1875 -0.1054687,0.2578125 -0.1054687,0.375 0,0.36328125 0.3046875,0.59765625 0.65625,0.59765625 0.703125,0 1.0078125,-0.9609375 1.0078125,-1.06640625 0,-0.0937499 -0.09375,-0.0937499 -0.1171875,-0.0937499 -0.09375,0 -0.1054688,0.046875 -0.1289063,0.1171875 -0.1640625,0.5625 -0.46875,0.84375 -0.7382812,0.84375 -0.140625,0 -0.1757813,-0.09375 -0.1757813,-0.24609375 0,-0.15234375 0.035156,-0.24609375 0.1640625,-0.5625 0.082031,-0.21093755 0.3632813,-0.94921875 0.3632813,-1.34765625 0,-0.1054688 0,-0.3984375 -0.2578125,-0.5976563 -0.1171875,-0.09375 -0.3164063,-0.1875 -0.6445313,-0.1875 -0.5039062,0 -0.8789062,0.2695313 -1.1367187,0.5742188 z m 0,0"
       style="fill:#000000;fill-opacity:1;fill-rule:nonzero;stroke:none"
       aria-label="h"
       transform="matrix(1.3333333,0,0,1.3333333,47.682667,104.62533)" />
    <path
       id="path34"
       d="M -38.11441,-13.46028 39.98354,-34.20216"
       style="fill:none;stroke:#000000;stroke-width:0.41998;stroke-linecap:butt;stroke-linejoin:miter;stroke-miterlimit:10;stroke-dasharray:none;stroke-opacity:1"
       transform="matrix(1.3333333,0,0,-1.3333333,91.484,62.905333)" />
    <path
       id="path35"
       d="M -2.18391,2.51988 C -1.78491,1.00793 -0.8958,0.29398 0,0 -0.8958,-0.29398 -1.78491,-1.00793 -2.18391,-2.51988"
       style="fill:none;stroke:#000000;stroke-width:0.41998;stroke-linecap:round;stroke-linejoin:round;stroke-miterlimit:10;stroke-dasharray:none;stroke-opacity:1"
       transform="matrix(1.2886133,0.34224,0.34224,-1.2886133,145.06595,108.58008)" />
    <g
       id="g35"
       aria-label="p(g)"
       transform="matrix(1.3333333,0,0,1.3333333,106.76533,91.910667)">
      <path
         id="path36"
         d="M 0.5275625,0.85508594 C 0.46896875,1.0425859 0.45725,1.1011797 0.176,1.1011797 c -0.08203125,0 -0.1875,0 -0.1875,0.1523437 0,0.070312 0.0703125,0.09375 0.10546875,0.09375 0.17578125,0 0.41015625,-0.023437 0.59765625,-0.023437 0.234375,0 0.5039063,0.023437 0.7265625,0.023437 0.070312,0 0.140625,-0.011719 0.140625,-0.1523437 0,-0.09375 -0.09375,-0.09375 -0.1757812,-0.09375 -0.1523438,0 -0.3398438,0 -0.3398438,-0.082031 0,-0.0351562 0.046875,-0.22265621 0.070312,-0.31640621 0.082031,-0.375 0.1875,-0.75 0.2578125,-1.04296875 0.082031,0.140625 0.3046875,0.41015625 0.7265625,0.41015625 0.84375,0 1.78125,-0.9375 1.78125,-1.98046879 0,-0.8203125 -0.5625,-1.1601562 -1.0429687,-1.1601562 -0.4335938,0 -0.796875,0.2929687 -0.984375,0.4804687 -0.1171875,-0.3984375 -0.515625,-0.4804687 -0.7265625,-0.4804687 -0.2695313,0 -0.4335938,0.1757812 -0.5507813,0.3632812 -0.140625,0.234375 -0.24609375,0.65625 -0.24609375,0.703125 0,0.082031 0.09375,0.082031 0.1171875,0.082031 0.09375,0 0.10546875,-0.011719 0.15234375,-0.1992188 0.10546875,-0.4101562 0.234375,-0.7617187 0.515625,-0.7617187 0.1757813,0 0.2226563,0.1523437 0.2226563,0.3398437 0,0.082031 -0.011719,0.1757813 -0.023437,0.2109375 z m 1.3125,-3.09375004 c 0.4101563,-0.5390625 0.75,-0.6445312 0.9726563,-0.6445312 0.28125,0 0.515625,0.2109375 0.515625,0.6796875 0,0.28125 -0.1523438,0.9960937 -0.3632813,1.40624999 -0.1757812,0.33984375 -0.515625,0.66796875 -0.8671875,0.66796875 -0.5039062,0 -0.6210937,-0.5390625 -0.6210937,-0.59765625 0,-0.0351563 0.011719,-0.0820313 0.011719,-0.10546875 z m 0,0"
         style="fill:#000000;fill-opacity:1;fill-rule:nonzero;stroke:none" />
      <path
         id="path37"
         d="m 6.5802969,-5.2269453 c -1.3242188,0.9257812 -1.6757813,2.4140625 -1.6757813,3.4804687 0,0.98437504 0.2929688,2.50781254 1.6757813,3.4804688 0.058594,0 0.140625,0 0.140625,-0.082031 0,-0.046875 -0.023437,-0.058594 -0.070312,-0.1054687 -0.9257813,-0.83203126 -1.265625,-2.01562501 -1.265625,-3.2929688 0,-1.875 0.7148437,-2.8007812 1.2890625,-3.3164062 0.023437,-0.023437 0.046875,-0.046875 0.046875,-0.082031 0,-0.082031 -0.082031,-0.082031 -0.1406255,-0.082032 z m 0,0"
         style="fill:#000000;fill-opacity:1;fill-rule:nonzero;stroke:none" />
      <path
         id="path38"
         d="m 10.936742,-2.5785078 c 0.02344,-0.09375 0.02344,-0.1289063 0.02344,-0.140625 0,-0.1523438 -0.128907,-0.2226563 -0.234375,-0.2226563 -0.164063,0 -0.292969,0.1289063 -0.328125,0.2695313 -0.117188,-0.1992188 -0.351563,-0.3984375 -0.7148441,-0.3984375 -0.8671875,0 -1.78125,0.9257812 -1.78125,1.921875 0,0.72656249 0.4804688,1.1484374875 1.0546875,1.1484374875 0.328125,0 0.6328125,-0.1640624975 0.8789063,-0.3749999975 L 9.6711172,0.24571094 C 9.6008047,0.53867969 9.5539297,0.72617969 9.2843984,0.97227344 8.9797109,1.2300859 8.6750234,1.2300859 8.4992422,1.2300859 c -0.3164063,0 -0.4101563,-0.023437 -0.5273438,-0.046875 0.1757813,-0.09375 0.2226563,-0.25781246 0.2226563,-0.35156246 0,-0.1640625 -0.140625,-0.2578125 -0.2695313,-0.2578125 -0.1992187,0 -0.3984375,0.15234375 -0.3984375,0.421875 0,0.42187496 0.5976563,0.42187496 0.984375,0.42187496 1.0898438,0 1.5585941,-0.55078121 1.6640621,-0.94921871 z m -0.9726561,1.65234374 c -0.023437,0.10546875 -0.023437,0.1171875 -0.140625,0.2578125 -0.2460937,0.29296875 -0.5742187,0.46875 -0.84375,0.46875 -0.3515625,0 -0.5273437,-0.29296875 -0.5273437,-0.65625 0,-0.30468754 0.1875,-1.08984374 0.375,-1.39453124 0.2929687,-0.4921875 0.6210937,-0.6328125 0.8554687,-0.6328125 0.4921871,0 0.6210941,0.5273437 0.6210941,0.5976562 0,0.011719 0,0.023437 -0.02344,0.1054688 z m 0,0"
         style="fill:#000000;fill-opacity:1;fill-rule:nonzero;stroke:none" />
      <path
         id="path39"
         d="m 11.99143,-5.2269453 c -0.05859,0 -0.140625,0 -0.140625,0.082031 0,0.035156 0.02344,0.058594 0.07031,0.1054688 0.597656,0.5507812 1.265625,1.4882812 1.265625,3.2929687 0,1.45312504 -0.457031,2.55468754 -1.207031,3.234375 -0.117188,0.1171875 -0.128906,0.1289063 -0.128906,0.1640625 0,0.035156 0.02344,0.082031 0.09375,0.082031 0.08203,0 0.75,-0.4570313 1.207031,-1.32421876 0.304687,-0.5859375 0.503906,-1.3359375 0.503906,-2.15625004 0,-0.984375 -0.292969,-2.5078125 -1.664062,-3.4804687 z m 0,0"
         style="fill:#000000;fill-opacity:1;fill-rule:nonzero;stroke:none" />
    </g>
    <path
       id="path40"
       d="M 15.58769,-38.0822 H 39.96945"
       style="fill:none;stroke:#000000;stroke-width:0.41998;stroke-linecap:butt;stroke-linejoin:miter;stroke-miterlimit:10;stroke-dasharray:none;stroke-opacity:1"
       transform="matrix(1.3333333,0,0,-1.3333333,91.484,62.905333)" />
    <path
       id="path41"
       d="M -2.18391,2.51988 C -1.78491,1.00793 -0.8958,0.29398 0,0 -0.8958,-0.29398 -1.78491,-1.00793 -2.18391,-2.51988"
       style="fill:none;stroke:#000000;stroke-width:0.41998;stroke-linecap:round;stroke-linejoin:round;stroke-miterlimit:10;stroke-dasharray:none;stroke-opacity:1"
       transform="matrix(1.3333333,0,0,-1.3333333,145.05657,113.6816)" />
    <g
       id="g41"
       aria-label="p(f)"
       transform="matrix(1.3333333,0,0,1.3333333,118.80133,123.952)">
      <path
         id="path42"
         d="m 0.52692969,0.8563125 c -0.0585938,0.1875 -0.0703125,0.2460938 -0.3515625,0.2460938 -0.08203125,0 -0.1875,0 -0.1875,0.1523437 0,0.070312 0.0703125,0.09375 0.10546875,0.09375 0.17578125,0 0.41015625,-0.023437 0.59765625,-0.023437 0.234375,0 0.50390621,0.023437 0.72656251,0.023437 0.070312,0 0.140625,-0.011719 0.140625,-0.1523437 0,-0.09375 -0.09375,-0.09375 -0.1757813,-0.09375 -0.1523437,0 -0.3398437,0 -0.3398437,-0.082031 0,-0.0351563 0.046875,-0.22265625 0.070312,-0.31640625 0.082031,-0.375 0.1875,-0.75 0.2578125,-1.04296875 0.082031,0.140625 0.3046875,0.41015625 0.7265625,0.41015625 0.84375,0 1.78125,-0.9375 1.78125,-1.98046875 0,-0.8203125 -0.5625,-1.1601562 -1.0429688,-1.1601562 -0.4335937,0 -0.796875,0.2929687 -0.984375,0.4804687 -0.1171875,-0.3984375 -0.515625,-0.4804687 -0.7265625,-0.4804687 -0.26953121,0 -0.43359371,0.1757812 -0.55078121,0.3632812 -0.140625,0.234375 -0.24609375,0.65625 -0.24609375,0.703125 0,0.082031 0.09375,0.082031 0.1171875,0.082031 0.09375,0 0.10546875,-0.011719 0.15234375,-0.1992188 0.10546875,-0.4101562 0.234375,-0.7617187 0.51562501,-0.7617187 0.1757812,0 0.2226562,0.1523437 0.2226562,0.3398437 0,0.082031 -0.011719,0.1757813 -0.023437,0.2109375 z m 1.31250001,-3.09375 c 0.4101562,-0.5390625 0.75,-0.6445312 0.9726562,-0.6445312 0.28125,0 0.515625,0.2109375 0.515625,0.6796875 0,0.28125 -0.1523437,0.9960937 -0.3632812,1.40624995 -0.1757813,0.33984375 -0.515625,0.66796875 -0.8671875,0.66796875 -0.5039063,0 -0.6210938,-0.5390625 -0.6210938,-0.59765625 0,-0.0351563 0.011719,-0.0820313 0.011719,-0.10546875 z m 0,0"
         style="fill:#000000;fill-opacity:1;fill-rule:nonzero;stroke:none" />
      <path
         id="path43"
         d="m 6.5796641,-5.2257187 c -1.3242188,0.9257812 -1.6757813,2.4140625 -1.6757813,3.4804687 0,0.984375 0.2929688,2.5078125 1.6757813,3.4804688 0.058594,0 0.140625,0 0.140625,-0.082031 0,-0.046875 -0.023437,-0.058594 -0.070312,-0.1054687 -0.9257813,-0.8320313 -1.265625,-2.01562505 -1.265625,-3.2929688 0,-1.875 0.7148437,-2.8007812 1.2890625,-3.3164062 0.023437,-0.023437 0.046875,-0.046875 0.046875,-0.082031 0,-0.082031 -0.082031,-0.082031 -0.1406255,-0.082032 z m 0,0"
         style="fill:#000000;fill-opacity:1;fill-rule:nonzero;stroke:none" />
      <path
         id="path44"
         d="m 10.057203,-2.7530625 h 0.679688 c 0.140625,0 0.234375,0 0.234375,-0.1523437 0,-0.09375 -0.09375,-0.09375 -0.210938,-0.09375 h -0.65625 c 0.164063,-0.890625 0.222656,-1.2070313 0.28125,-1.4179688 0.03516,-0.1523437 0.1875,-0.2929687 0.351563,-0.2929687 0,0 0.199218,0 0.328125,0.082031 -0.292969,0.09375 -0.304688,0.3398438 -0.304688,0.3867188 0,0.1523437 0.117188,0.2578125 0.269531,0.2578125 0.199219,0 0.398438,-0.1640625 0.398438,-0.4335938 0,-0.3164062 -0.339844,-0.4921875 -0.691406,-0.4921875 -0.304688,0 -0.644532,0.1757813 -0.8437504,0.5273438 -0.1289062,0.2578125 -0.1875,0.5742187 -0.3398437,1.3828125 H 9.0025156 c -0.140625,0 -0.2226562,0 -0.2226562,0.1523437 0,0.09375 0.082031,0.09375 0.2109375,0.09375 h 0.515625 c 0,0.046875 -0.4453125,2.5546875 -0.609375,3.29296875 -0.035156,0.1640625 -0.1523438,0.69140625 -0.4921875,0.69140625 0,0 -0.1757813,0 -0.3046875,-0.082031 0.28125,-0.09375 0.3046875,-0.35156255 0.3046875,-0.3867188 0,-0.15234375 -0.1171875,-0.2578125 -0.28125,-0.2578125 -0.1875,0 -0.3984375,0.1640625 -0.3984375,0.421875 0,0.3164063 0.328125,0.4921875 0.6796875,0.4921875 0.4453125,0 0.75,-0.45703125 0.84375,-0.609375 0.2460937,-0.46875 0.4101562,-1.32421875 0.421875,-1.40625 z m 0,0"
         style="fill:#000000;fill-opacity:1;fill-rule:nonzero;stroke:none" />
      <path
         id="path45"
         d="m 12.52107,-5.2257187 c -0.05859,0 -0.140625,0 -0.140625,0.082031 0,0.035156 0.02344,0.058594 0.07031,0.1054688 0.597656,0.5507812 1.265625,1.4882812 1.265625,3.2929687 0,1.453125 -0.457031,2.5546875 -1.207031,3.234375 -0.117188,0.1171875 -0.128907,0.1289063 -0.128907,0.1640625 0,0.035156 0.02344,0.082031 0.09375,0.082031 0.08203,0 0.75,-0.4570313 1.207032,-1.3242188 0.304687,-0.5859375 0.503906,-1.3359375 0.503906,-2.15625 0,-0.984375 -0.292969,-2.5078125 -1.664063,-3.4804687 z m 0,0"
         style="fill:#000000;fill-opacity:1;fill-rule:nonzero;stroke:none" />
    </g>
  </g>
</svg>
